<svg xmlns="http://www.w3.org/2000/svg" width="119.66" height="40" viewBox="0 0 119.66 40"><path d="M110.13 0H7.52a13.39 13.39 0 0 0-2 .18 6.64 6.64 0 0 0-1.9.63A6.07 6.07 0 0 0 2 2 6.07 6.07 0 0 0 .82 3.62a6.74 6.74 0 0 0-.63 1.9 12.18 12.18 0 0 0-.17 2v24.96a12.18 12.18 0 0 0 .17 2 6.7 6.7 0 0 0 .63 1.91A6 6 0 0 0 2 38a6.07 6.07 0 0 0 1.62 1.18 6.64 6.64 0 0 0 1.9.63 13.39 13.39 0 0 0 2 .18h104.62a13.39 13.39 0 0 0 2-.18 6.8 6.8 0 0 0 1.91-.63 6.24 6.24 0 0 0 1.62-1.18 6.31 6.31 0 0 0 1.8-3.52 13.39 13.39 0 0 0 .18-2V7.52a13.39 13.39 0 0 0-.18-2 6.72 6.72 0 0 0-.62-1.9 6.53 6.53 0 0 0-2.8-2.8 6.8 6.8 0 0 0-1.91-.63 13.39 13.39 0 0 0-2-.18h-2z" fill="#a6a6a6"/><path d="M8.44 39.13h-.9A11.7 11.7 0 0 1 5.67 39 5.79 5.79 0 0 1 4 38.4a5.5 5.5 0 0 1-1.39-1 5.19 5.19 0 0 1-1-1.4 5.69 5.69 0 0 1-.55-1.66 13 13 0 0 1-.16-1.87V7.55a13 13 0 0 1 .16-1.87A5.69 5.69 0 0 1 1.6 4a5.38 5.38 0 0 1 1-1.4 5.59 5.59 0 0 1 1.4-1 5.69 5.69 0 0 1 1.66-.55A13 13 0 0 1 7.54.89h104.6a13 13 0 0 1 1.86.16 5.85 5.85 0 0 1 1.67.55 5.58 5.58 0 0 1 2.41 2.4 5.92 5.92 0 0 1 .54 1.65 13.14 13.14 0 0 1 .17 1.88v24.94a12.72 12.72 0 0 1-.17 1.85 5.73 5.73 0 0 1-.54 1.67 5.6 5.6 0 0 1-1 1.39 5.41 5.41 0 0 1-1.4 1A5.69 5.69 0 0 1 114 39a11.8 11.8 0 0 1-1.87.16H8.44z" fill="#010101"/><path d="M24.77 20.3a4.93 4.93 0 0 1 2.36-4.15 5.08 5.08 0 0 0-4-2.16c-1.67-.18-3.3 1-4.16 1s-2.2-1-3.6-1a5.31 5.31 0 0 0-4.47 2.73C9 20.1 10.4 25 12.25 27.74c.93 1.33 2 2.8 3.43 2.76s1.9-.9 3.58-.9 2.14.9 3.6.85 2.43-1.33 3.32-2.67a10.85 10.85 0 0 0 1.52-3.09 4.78 4.78 0 0 1-2.92-4.4zM22 12.2a4.86 4.86 0 0 0 1.11-3.49 5 5 0 0 0-3.21 1.66 4.63 4.63 0 0 0-1.14 3.36A4.11 4.11 0 0 0 22 12.21zm20.3 14.94h-4.73l-1.14 3.36h-2l4.48-12.42H41l4.48 12.42h-2zm-4.24-1.55h3.75L40 20.14h-.05zm17.1.4c0 2.8-1.5 4.62-3.78 4.62A3.08 3.08 0 0 1 48.53 29h0v4.48h-1.9v-12h1.8V23a3.21 3.21 0 0 1 2.89-1.6c2.33-.05 3.84 1.76 3.84 4.6zm-1.9 0c0-1.83-1-3-2.4-3s-2.38 1.23-2.38 3 1 3.05 2.38 3.05 2.4-1.23 2.4-3.05zm11.86 0c0 2.8-1.5 4.62-3.77 4.62A3.07 3.07 0 0 1 58.5 29h0v4.48h-1.9v-12h1.8V23a3.19 3.19 0 0 1 2.88-1.6c2.33-.05 3.84 1.76 3.84 4.6zm-1.9 0c0-1.83-.94-3-2.4-3s-2.37 1.23-2.37 3 .95 3 2.37 3 2.4-1.2 2.4-3.05zm8.48 1c.14 1.23 1.33 2 3 2s2.7-.8 2.7-1.92-.68-1.54-2.3-1.94l-1.6-.4c-2.28-.55-3.33-1.6-3.33-3.34 0-2.15 1.86-3.62 4.5-3.62s4.43 1.47 4.5 3.62h-1.9c-.1-1.24-1.14-2-2.63-2s-2.52.75-2.52 1.86c0 .87.65 1.4 2.25 1.8l1.37.33c2.55.6 3.6 1.63 3.6 3.44 0 2.33-1.86 3.78-4.8 3.78-2.75 0-4.6-1.42-4.73-3.66zm11.65-7.7v2.14h1.72v1.47h-1.72v5c0 .77.34 1.13 1.1 1.13h.6v1.46a5.12 5.12 0 0 1-1 .09c-1.84 0-2.55-.7-2.55-2.45V22.9h-1.35v-1.47h1.32V19.3zm2.72 6.7c0-2.85 1.67-4.64 4.3-4.64s4.3 1.8 4.3 4.64-1.65 4.6-4.3 4.6-4.3-1.78-4.3-4.6zm6.7 0c0-1.95-.9-3.1-2.4-3.1S88 24 88 26s.9 3.1 2.4 3.1 2.4-1.15 2.4-3.1zm3.43-4.56H98V23a2.16 2.16 0 0 1 2.18-1.63 2.79 2.79 0 0 1 .64.07v1.74A2.41 2.41 0 0 0 100 23a1.88 1.88 0 0 0-2 1.8v5.7h-1.8zm13.18 6.4c-.25 1.64-1.85 2.77-3.9 2.77-2.64 0-4.27-1.77-4.27-4.6s1.64-4.68 4.2-4.68 4.08 1.72 4.08 4.47v.63h-6.4v.12a2.36 2.36 0 0 0 2.14 2.55h.3a2.05 2.05 0 0 0 2.09-1.27zm-6.28-2.7h4.53a2.17 2.17 0 0 0-2-2.29h-.17a2.29 2.29 0 0 0-2.31 2.28zM37.83 8.73a2.65 2.65 0 0 1 2.82 2.45 2.29 2.29 0 0 1 0 .52c0 1.9-1 3-2.8 3h-2.18v-6zm-1.23 5.12h1.12a1.87 1.87 0 0 0 2-1.76 2.42 2.42 0 0 0 0-.38 1.88 1.88 0 0 0-1.61-2.12 2.17 2.17 0 0 0-.36 0H36.6zm5.08-1.4a2.134 2.134 0 0 1 4.25-.4 2.67 2.67 0 0 1 0 .4 2.14 2.14 0 0 1-4.25.42 2.94 2.94 0 0 1 0-.42zm3.33 0c0-1-.43-1.54-1.2-1.54s-1.2.57-1.2 1.54S43 14 43.8 14s1.2-.57 1.2-1.55zm6.56 2.26h-.92l-.93-3.32h-.07l-.93 3.32h-.9l-1.24-4.5h.9l.8 3.44h.06l.93-3.44h.85l.93 3.44h.07l.8-3.44h.9zm2.28-4.5h.86v.72h.07a1.33 1.33 0 0 1 1.34-.8 1.46 1.46 0 0 1 1.57 1.35 1.69 1.69 0 0 1 0 .32v2.92h-.9V12c0-.73-.32-1.1-1-1.1a1 1 0 0 0-1.08 1v2.8h-.9zm5.25-1.76h.9v6.26h-.9zm2.12 4a2.134 2.134 0 0 1 4.25-.4 2.67 2.67 0 0 1 0 .4 2.14 2.14 0 0 1-4.25.42 1.48 1.48 0 0 1 0-.42zm3.33 0c0-1-.44-1.54-1.2-1.54s-1.2.57-1.2 1.54.43 1.56 1.2 1.56 1.2-.58 1.2-1.56zm1.85.98c0-.8.6-1.27 1.68-1.34L69.3 12v-.4c0-.47-.32-.74-.93-.74s-.84.18-.93.5h-.87c.1-.78.82-1.27 1.84-1.27s1.77.56 1.77 1.5v3.1h-.86v-.63h-.07a1.49 1.49 0 0 1-1.35.7 1.35 1.35 0 0 1-1.49-1.21.66.66 0 0 1-.01-.14zm2.9-.42v-.38l-1.1.07c-.62 0-.9.26-.9.65s.36.64.84.64a1.06 1.06 0 0 0 1.16-.95zm2.05-.56c0-1.42.73-2.32 1.87-2.32a1.48 1.48 0 0 1 1.38.79h.06V8.44h.9v6.26h-.85V14h-.07a1.57 1.57 0 0 1-1.41.78c-1.15-.01-1.87-.9-1.87-2.34zm.92 0c0 1 .45 1.53 1.2 1.53s1.2-.58 1.2-1.52-.47-1.53-1.2-1.53-1.2.58-1.2 1.52zm6.96 0a2.134 2.134 0 0 1 4.25-.4 2.67 2.67 0 0 1 0 .4 2.14 2.14 0 0 1-4.25.42 2.94 2.94 0 0 1 0-.42zm3.33 0c0-1-.44-1.54-1.2-1.54s-1.2.57-1.2 1.54.43 1.56 1.2 1.56 1.2-.58 1.2-1.56zm2.1-2.24h.85v.72h.07a1.34 1.34 0 0 1 1.35-.8 1.47 1.47 0 0 1 1.57 1.35 1.67 1.67 0 0 1 0 .32v2.92h-.88V12c0-.73-.32-1.1-1-1.1a1 1 0 0 0-1.08 1 .76.76 0 0 0 0 .15v2.64h-.9zm8.85-1.13v1.15h1V11h-1v2.32c0 .47.2.68.63.68h.34v.74a2.59 2.59 0 0 1-.48 0c-1 0-1.38-.34-1.38-1.2V11h-.72v-.74h.72v-1.2zm2.18-.63h.9v2.48h.07a1.38 1.38 0 0 1 1.34-.81 1.48 1.48 0 0 1 1.56 1.4 1.29 1.29 0 0 1 0 .28v2.9h-.9V12c0-.72-.33-1.08-1-1.08a1.05 1.05 0 0 0-1.14 1v2.78h-.83zm9.06 5.04a1.82 1.82 0 0 1-2 1.3 2 2 0 0 1-2.1-2 1.83 1.83 0 0 1 0-.33 2.07 2.07 0 0 1 1.78-2.33 1.51 1.51 0 0 1 .3 0c1.25 0 2 .85 2 2.27v.3h-3.17v.05a1.18 1.18 0 0 0 1.15 1.25h.1a1.1 1.1 0 0 0 1.08-.55zM101.64 12h2.27a1.09 1.09 0 0 0-1-1.16h-.1a1.16 1.16 0 0 0-1.16 1.16h0z" fill="#fff"/></svg>