<svg xmlns="http://www.w3.org/2000/svg" viewBox="0 0 135 40"><defs><linearGradient id="A" x1="21.8" y1="8.71" x2="5.02" y2="25.5" gradientUnits="userSpaceOnUse"><stop offset="0" stop-color="#4696d2"/><stop offset=".01" stop-color="#4598d3"/><stop offset=".26" stop-color="#3fb9eb"/><stop offset=".51" stop-color="#4ac1ed"/><stop offset=".76" stop-color="#5cc4e6"/><stop offset="1" stop-color="#60c4e5"/></linearGradient><linearGradient id="B" x1="33.83" y1="20.01" x2="9.64" y2="20.01" gradientUnits="userSpaceOnUse"><stop offset="0" stop-color="#ffe00a"/><stop offset=".41" stop-color="#fbbc0f"/><stop offset=".78" stop-color="#f7a418"/><stop offset="1" stop-color="#f59a1b"/></linearGradient><linearGradient id="C" x1="24.83" y1="22.3" x2="2.07" y2="45.06" gradientUnits="userSpaceOnUse"><stop offset="0" stop-color="#e8404a"/><stop offset="1" stop-color="#c31262"/></linearGradient><linearGradient id="D" x1="7.3" y1=".18" x2="17.46" y2="10.34" gradientUnits="userSpaceOnUse"><stop offset="0" stop-color="#32a071"/><stop offset=".07" stop-color="#2da771"/><stop offset=".48" stop-color="#4fb26f"/><stop offset=".8" stop-color="#61b668"/><stop offset="1" stop-color="#64b664"/></linearGradient></defs><rect width="135" height="40" rx="5"/><path d="M130,.8A4.2,4.2,0,0,1,134.2,5V35a4.2,4.2,0,0,1-4.2,4.2H5A4.2,4.2,0,0,1,.8,35V5A4.2,4.2,0,0,1,5,.8H130m0-.8H5A5,5,0,0,0,0,5V35a5,5,0,0,0,5,5H130a5,5,0,0,0,5-5V5a5,5,0,0,0-5-5Z" fill="#a6a6a6"/><path d="M47.42 10.24a2.72 2.72 0 0 1-.75 2 2.9 2.9 0 0 1-2.2.88 3 3 0 0 1-2.21-.9 3 3 0 0 1-.91-2.22 3 3 0 0 1 .91-2.23 3.1 3.1 0 0 1 3.44-.65 2.44 2.44 0 0 1 .94.67l-.53.52a2 2 0 0 0-1.64-.71 2.27 2.27 0 0 0-1.64.67 2.29 2.29 0 0 0-.69 1.73 2.36 2.36 0 0 0 4 1.73 2 2 0 0 0 .51-1.22h-2.18v-.7h2.9a3.75 3.75 0 0 1 .04.45zM52 7.74h-2.7v1.9h2.46v.72H49.3v1.9H52V13h-3.48V7H52zM55.28 13h-.77V7.74h-1.68V7H57v.74h-1.72zm4.66 0V7h.77v6zm4.2 0h-.77V7.74H61.7V7h4.12v.74h-1.67zm9.48-.78a3.11 3.11 0 0 1-4.4 0 3 3 0 0 1-.88-2.22 3.08 3.08 0 0 1 .88-2.23 3.1 3.1 0 0 1 4.4 0A3.07 3.07 0 0 1 74.5 10a3 3 0 0 1-.88 2.22zm-3.83-.5a2.29 2.29 0 0 0 3.26 0 2.36 2.36 0 0 0 .67-1.72A2.36 2.36 0 0 0 73 8.28a2.29 2.29 0 0 0-3.26 0 2.36 2.36 0 0 0-.63 1.72 2.36 2.36 0 0 0 .67 1.72zM75.6 13V7h.93l2.92 4.67V7h.77v6h-.8l-3.05-4.9V13zm-7.45 8.75A4.26 4.26 0 1 0 72.41 26a4.19 4.19 0 0 0-4.27-4.25zm0 6.83a2.58 2.58 0 1 1 2.4-2.58 2.46 2.46 0 0 1-2.4 2.58zm-9.32-6.83A4.26 4.26 0 1 0 63.09 26a4.19 4.19 0 0 0-4.27-4.25zm0 6.83a2.58 2.58 0 1 1 2.4-2.58 2.46 2.46 0 0 1-2.4 2.58zm-11.08-5.52v1.8h4.32a3.8 3.8 0 0 1-1 2.27 4.42 4.42 0 0 1-3.34 1.32 4.8 4.8 0 0 1 0-9.6A4.6 4.6 0 0 1 51 20.14l1.27-1.27a6.3 6.3 0 0 0-4.53-1.82 6.61 6.61 0 1 0 0 13.21 6 6 0 0 0 4.61-1.86 6 6 0 0 0 1.56-4.22 6.19 6.19 0 0 0-.09-1.12zm45.3 1.4a4 4 0 0 0-3.64-2.71 4 4 0 0 0-4 4.25 4.16 4.16 0 0 0 4.22 4.26 4.22 4.22 0 0 0 3.54-1.89l-1.45-1a2.43 2.43 0 0 1-2.09 1.17 2.15 2.15 0 0 1-2.06-1.29l5.7-2.35zm-5.8 1.4a2.33 2.33 0 0 1 2.23-2.48 1.63 1.63 0 0 1 1.57.91zM82.63 30h1.87V17.5h-1.87zm-3.06-7.3h-.07a2.94 2.94 0 0 0-2.24-.95 4.26 4.26 0 0 0 0 8.51 2.88 2.88 0 0 0 2.24-1h.07v.6c0 1.63-.87 2.5-2.27 2.5a2.36 2.36 0 0 1-2.15-1.51l-1.62.67a4 4 0 0 0 3.77 2.52c2.2 0 4-1.3 4-4.44V22h-1.73zm-2.15 5.88a2.58 2.58 0 0 1 0-5.15A2.39 2.39 0 0 1 79.7 26a2.38 2.38 0 0 1-2.28 2.58zm24.4-11.08h-4.48V30h1.87v-4.74h2.6a3.89 3.89 0 1 0 0-7.76zm0 6h-2.6v-4.26h2.65a2.14 2.14 0 1 1 0 4.28zm11.54-1.8a3.49 3.49 0 0 0-3.33 1.91l1.65.7a1.78 1.78 0 0 1 1.71-.91 1.8 1.8 0 0 1 2 1.6v.13a4.18 4.18 0 0 0-1.95-.48c-1.78 0-3.6 1-3.6 2.82a2.89 2.89 0 0 0 3.11 2.75 2.65 2.65 0 0 0 2.38-1.22h.06v1h1.8v-4.8c0-2.2-1.66-3.46-3.8-3.46zm-.23 6.85c-.6 0-1.46-.3-1.46-1.06 0-1 1.06-1.34 2-1.34a3.32 3.32 0 0 1 1.7.42 2.26 2.26 0 0 1-2.2 2zm10.6-6.55l-2.14 5.42h-.06L119.32 22h-2l3.33 7.58-1.9 4.2h2l5.07-11.8zm-16.8 8h1.86V17.5h-1.86z" fill="#fff"/><path d="M10.44 7.54a1.94 1.94 0 0 0-.44 1.4v22.12a1.94 1.94 0 0 0 .47 1.4l.07.08 12.36-12.4v-.3L10.5 7.46z" fill="url(#A)"/><path d="M27 24.28l-4.1-4.13v-.3l4.1-4.13.1.06 4.9 2.78c1.4.8 1.4 2.1 0 2.88l-4.9 2.78z" fill="url(#B)"/><path d="M27.12 24.22L22.9 20 10.44 32.46a1.61 1.61 0 0 0 2.07.06l14.6-8.3" fill="url(#C)"/><path d="M27.12 15.78l-14.6-8.3a1.61 1.61 0 0 0-2.07.06L22.9 20z" fill="url(#D)"/></svg>