<svg id="Layer_1" data-name="Layer 1" xmlns="http://www.w3.org/2000/svg" xmlns:xlink="http://www.w3.org/1999/xlink" viewBox="0 0 135 40"><defs><style>.cls-1{fill:#fff;}.cls-2{fill:#1d1d1b;}.cls-3{fill:url(#linear-gradient);}.cls-4{fill:url(#linear-gradient-2);}.cls-5{fill:url(#linear-gradient-3);}.cls-6{fill:url(#linear-gradient-4);}</style><linearGradient id="linear-gradient" x1="21.81" y1="-153.28" x2="5.03" y2="-136.5" gradientTransform="translate(0 162)" gradientUnits="userSpaceOnUse"><stop offset="0" stop-color="#4696d2"/><stop offset="0.01" stop-color="#4598d3"/><stop offset="0.26" stop-color="#3fb9eb"/><stop offset="0.51" stop-color="#4ac1ed"/><stop offset="0.76" stop-color="#5cc4e6"/><stop offset="1" stop-color="#60c4e5"/></linearGradient><linearGradient id="linear-gradient-2" x1="33.83" y1="-142" x2="9.64" y2="-142" gradientTransform="translate(0 162)" gradientUnits="userSpaceOnUse"><stop offset="0" stop-color="#ffe00a"/><stop offset="0.41" stop-color="#fbbc0f"/><stop offset="0.78" stop-color="#f7a418"/><stop offset="1" stop-color="#f59a1b"/></linearGradient><linearGradient id="linear-gradient-3" x1="24.82" y1="-139.71" x2="2.06" y2="-116.96" gradientTransform="translate(0 162)" gradientUnits="userSpaceOnUse"><stop offset="0" stop-color="#e8404a"/><stop offset="1" stop-color="#c31262"/></linearGradient><linearGradient id="linear-gradient-4" x1="7.3" y1="-161.82" x2="17.46" y2="-151.66" gradientTransform="translate(0 162)" gradientUnits="userSpaceOnUse"><stop offset="0" stop-color="#32a071"/><stop offset="0.07" stop-color="#2da771"/><stop offset="0.48" stop-color="#4fb26f"/><stop offset="0.8" stop-color="#61b668"/><stop offset="1" stop-color="#64b664"/></linearGradient></defs><rect class="cls-1" x="0.8" y="0.8" width="133.4" height="38.4" rx="4.2"/><path class="cls-2" d="M130,.8A4.2,4.2,0,0,1,134.2,5V35a4.2,4.2,0,0,1-4.2,4.2H5A4.2,4.2,0,0,1,.8,35h0V5A4.2,4.2,0,0,1,5,.8H130m0-.8H5A5,5,0,0,0,0,5V35a5,5,0,0,0,5,5H130a5,5,0,0,0,5-5V5A5,5,0,0,0,130,0Z"/><path class="cls-2" d="M47.48,9.78a3.42,3.42,0,0,1,0,.46,2.84,2.84,0,0,1-.78,2.07,3,3,0,0,1-2.15.91H44.4A3.19,3.19,0,0,1,41.25,10a3.11,3.11,0,0,1,.94-2.3A3.24,3.24,0,0,1,45.74,7a2.69,2.69,0,0,1,1,.69l.06.07-.68.68L46,8.38a1.94,1.94,0,0,0-1.56-.68h0a2.22,2.22,0,0,0-2.22,2.21V10a2.25,2.25,0,0,0,2.23,2.29h0a2.23,2.23,0,0,0,1.57-.63,1.81,1.81,0,0,0,.47-1.05H44.37V9.69h3.1Zm.94,3.32H52.1v-.94H49.4v-1.7h2.46V9.54H49.4V7.84h2.7V6.9H48.42Zm4.31-5.26h1.68V13.1h1V7.84H57.1V6.9H52.73Zm7.11,5.26h1V6.9h-1Zm1.74-5.26h1.68V13.1h1V7.84H65.9V6.9H61.58Zm12.1-.13A3.17,3.17,0,0,1,74.59,10a3.07,3.07,0,0,1-.91,2.29,3.18,3.18,0,0,1-2.27.94h0a3.18,3.18,0,0,1-2.24-.91h0l0,0a3.08,3.08,0,0,1-.9-2.28,3.07,3.07,0,0,1,.91-2.29,3,3,0,0,1,2.27-.94h0A3.1,3.1,0,0,1,73.68,7.71Zm-3.94.57.07.07a2.27,2.27,0,0,0-.6,1.65,2.26,2.26,0,0,0,.64,1.65,2.19,2.19,0,0,0,3.1,0l0,0A2.26,2.26,0,0,0,73.61,10a2.27,2.27,0,0,0-.68-1.65,2.15,2.15,0,0,0-1.55-.65h0a2.16,2.16,0,0,0-1.54.63l-.09-.05ZM79.33,6.9v4.42L76.59,7l0,0H75.48v6.2h1V8.46l2.89,4.64h1V6.9Z"/><path class="cls-2" d="M68.14,21.75A4.26,4.26,0,1,0,72.41,26a4.19,4.19,0,0,0-4.13-4.25Zm0,6.83a2.58,2.58,0,1,1,2.39-2.75.91.91,0,0,1,0,.17,2.46,2.46,0,0,1-2.34,2.58Zm-9.32-6.83A4.26,4.26,0,1,0,63.09,26,4.19,4.19,0,0,0,59,21.75Zm0,6.83a2.58,2.58,0,1,1,2.39-2.75.91.91,0,0,1,0,.17,2.46,2.46,0,0,1-2.34,2.58ZM47.74,23.06v1.8h4.32a3.77,3.77,0,0,1-1,2.27,4.45,4.45,0,0,1-3.34,1.32,4.8,4.8,0,1,1,0-9.6A4.65,4.65,0,0,1,51,20.14l1.27-1.27a6.29,6.29,0,0,0-4.53-1.82,6.61,6.61,0,0,0-.51,13.21h.51a5.84,5.84,0,0,0,6.17-6.08,7,7,0,0,0-.09-1.12Zm45.31,1.4a3.92,3.92,0,0,0-7.65,1.28,2.26,2.26,0,0,0,0,.26,4.23,4.23,0,0,0,7.76,2.37l-1.45-1a2.42,2.42,0,0,1-2.09,1.17,2.14,2.14,0,0,1-2.06-1.29l5.69-2.35Zm-5.8,1.42a2.35,2.35,0,0,1,2.18-2.49h0a1.64,1.64,0,0,1,1.57.91ZM82.63,30H84.5V17.5H82.63Zm-3.06-7.3H79.5a2.92,2.92,0,0,0-2.24-.95,4.26,4.26,0,0,0,0,8.51,2.87,2.87,0,0,0,2.24-1h.07v.61c0,1.63-.87,2.5-2.27,2.5a2.35,2.35,0,0,1-2.15-1.51l-1.62.67a4,4,0,0,0,3.77,2.52c2.19,0,4-1.29,4-4.43V22H79.57Zm-2.15,5.88a2.58,2.58,0,0,1,0-5.15,2.38,2.38,0,0,1,2.28,2.49V26a2.38,2.38,0,0,1-2.17,2.57ZM101.81,17.5H97.33V30H99.2V25.26h2.61a3.89,3.89,0,1,0,.56-7.76A5.23,5.23,0,0,0,101.81,17.5Zm0,6H99.2V19.24h2.65a2.14,2.14,0,0,1,0,4.28h0Zm11.54-1.79A3.49,3.49,0,0,0,110,23.62l1.65.69a2.06,2.06,0,0,1,3.71.67v.15a4.14,4.14,0,0,0-1.95-.48c-1.78,0-3.6,1-3.6,2.82a2.89,2.89,0,0,0,3,2.76h.09A2.64,2.64,0,0,0,115.32,29h.06v1h1.8V25.19c0-2.19-1.66-3.46-3.79-3.46Zm-.23,6.85c-.61,0-1.46-.31-1.46-1.06,0-1,1.06-1.34,2-1.34a3.38,3.38,0,0,1,1.7.42,2.26,2.26,0,0,1-2.2,2ZM123.74,22l-2.14,5.42h-.06L119.32,22h-2l3.33,7.58-1.9,4.21h2L125.82,22Zm-16.8,8h1.86V17.5h-1.86Z"/><path class="cls-3" d="M10.44,7.54A2,2,0,0,0,10,8.94V31.06a1.94,1.94,0,0,0,.47,1.4l.07.08L22.9,20.15v-.3L10.51,7.47Z"/><path class="cls-4" d="M27,24.28l-4.1-4.13v-.3L27,15.72l.09.06L32,18.56c1.4.79,1.4,2.09,0,2.89l-4.89,2.78Z"/><path class="cls-5" d="M27.12,24.22,22.9,20,10.44,32.46a1.62,1.62,0,0,0,2.07.07l14.61-8.31"/><path class="cls-6" d="M27.12,15.78,12.51,7.48a1.6,1.6,0,0,0-2.07.06L22.9,20Z"/></svg>