<?xml version="1.0" encoding="UTF-8" standalone="no"?>
<!DOCTYPE svg PUBLIC "-//W3C//DTD SVG 1.1//EN" "http://www.w3.org/Graphics/SVG/1.1/DTD/svg11.dtd">
<svg width="100%" height="100%" viewBox="0 0 121 47" version="1.1" xmlns="http://www.w3.org/2000/svg" xmlns:xlink="http://www.w3.org/1999/xlink" xml:space="preserve" style="fill-rule:evenodd;clip-rule:evenodd;stroke-linejoin:round;stroke-miterlimit:2;">
    <path d="M120,0C120,0 120.83,15.44 111,20.86C108.947,22.097 106.703,22.986 104.36,23.49C111,18.65 110.42,7.56 110.42,7.56L95.67,12.32C94.591,12.727 93.536,13.195 92.51,13.72C92.874,11.965 93.844,10.392 95.25,9.28C97.179,7.879 99.305,6.774 101.56,6L120,0ZM92.58,13.77C92.484,14.372 92.427,14.98 92.41,15.59C92.41,20.21 96.62,23.92 101.75,23.92L102.12,23.92C102.958,23.894 103.793,23.814 104.62,23.68C104.19,23.93 103.86,24.18 103.44,24.42C100.24,26.16 97.71,26.82 95.69,26.73L95.44,26.73C91.44,26.61 88.21,23.73 88.21,20.05C88.201,18.116 89.065,16.277 90.56,15.05C91.184,14.55 91.861,14.121 92.58,13.77ZM38.73,31.77C38.73,30.15 40.23,29.77 41.73,29.91L41.73,32.83L38.73,32.83L38.73,31.77ZM22.94,31.77C22.94,30.15 24.44,29.77 25.94,29.91L25.94,32.83L22.94,32.83L22.94,31.77ZM7.06,32L3.16,32L3.16,36.29L7.06,36.29C8.73,36.29 9.23,35.64 9.23,34.1C9.23,32.56 8.81,32 7.06,32ZM7.48,38.64L3.16,38.64L3.16,43.09L7.48,43.09C9.14,43.09 9.64,42.36 9.64,40.83C9.64,39.3 9.14,38.64 7.48,38.64ZM96.37,40.29C95.21,40.37 94.13,40.54 93.13,40.7C91.88,40.94 91.38,41.27 91.38,42.34C91.38,42.99 91.55,43.81 92.8,43.81C94.05,43.81 95.4,43.74 96.2,43.66L96.37,43.66L96.37,40.29ZM19.12,33.7C19.927,33.625 20.74,33.679 21.53,33.86C21.53,34.86 21.28,35.64 20.7,35.97C20.12,36.3 19.78,36.13 19.03,36.21C17.87,36.21 17.29,36.45 17.29,37.91L17.29,45.61L14.29,45.61L14.29,37.91C14.3,34.75 16,33.78 19.12,33.7ZM7.65,29.57C10.8,29.57 12.3,30.7 12.3,33.78C12.463,35.317 11.526,36.772 10.06,37.26C11.55,37.5 12.72,38.4 12.72,40.99C12.72,44.38 11.06,45.55 8.2,45.68L0,45.68L0,29.57L7.65,29.57ZM25.85,33.82L25.85,45.82L22.77,45.82L22.77,33.82L25.85,33.82ZM41.64,33.82L41.64,45.82L38.56,45.82L38.56,33.82L41.64,33.82ZM80.57,29.32C81.9,29.32 85.06,29.73 86.31,29.89C86.31,31.45 85.64,32.35 83.89,32.27L81.23,32.1C77.32,31.86 76.57,32.92 76.57,37.59C76.57,42.26 77.49,43.32 79.98,43.32C80.82,43.32 82.81,43.16 83.64,43.07L83.64,39L82.56,39C80.98,39 80.4,38.26 80.56,36.46L86.8,36.46L86.8,45.14C84.523,45.589 82.211,45.837 79.89,45.88C75.15,45.88 73.32,43.99 73.32,37.53C73.32,31.07 74.83,29.32 80.57,29.32ZM54.94,31.17C54.94,29.53 56.44,29.12 57.94,29.29L57.94,35.29C59.502,34.593 61.167,34.157 62.87,34C65.46,34 66.38,35.39 66.38,37.85L66.38,45.97L63.38,45.97L63.38,38C63.381,37.982 63.381,37.965 63.381,37.947C63.381,37.239 62.799,36.657 62.091,36.657C62.061,36.657 62.03,36.658 62,36.66C60.621,36.818 59.274,37.179 58,37.73L58,45.93L55,45.93L54.94,31.17ZM105.77,33.82C107.52,33.82 109.6,33.99 110.52,34.07C110.52,35.62 109.85,36.36 108.52,36.28C107.77,36.28 106.61,36.2 105.36,36.2C104.61,36.2 104.03,36.52 104.03,37.26C104.03,38.16 104.78,38.32 107.19,38.73C109.77,39.23 111.1,39.96 111.1,42.42C111.1,44.88 109.19,45.94 106.02,45.94C104.19,45.94 102.53,45.86 101.37,45.77L101.53,43.32C102.61,43.4 104.36,43.48 105.94,43.48C107.02,43.48 108.19,43.32 108.19,42.34C108.19,41.52 107.69,41.34 105.28,40.94C102.61,40.54 101.12,39.8 101.12,37.26C101.12,34.72 103.11,33.82 105.77,33.82ZM48.2,33.82C49.95,33.82 52.03,33.99 52.95,34.07C52.95,35.62 52.28,36.36 50.95,36.28C50.2,36.28 49.04,36.2 47.79,36.2C47.04,36.2 46.46,36.52 46.46,37.26C46.46,38.16 47.2,38.32 49.62,38.73C52.2,39.23 53.53,39.96 53.53,42.42C53.53,44.88 51.61,45.94 48.45,45.94C46.62,45.94 44.96,45.86 43.79,45.77L44,43.32C45.08,43.4 46.83,43.48 48.41,43.48C49.49,43.48 50.66,43.32 50.66,42.34C50.66,41.52 50.16,41.34 47.74,40.94C45.08,40.54 43.58,39.8 43.58,37.26C43.58,34.72 45.54,33.82 48.2,33.82ZM29.82,31.82C29.82,30.18 31.31,29.77 32.82,29.93L32.82,33.93L37,33.93C37.17,35.57 36.59,36.31 35,36.31L32.89,36.31L32.89,41.88C32.89,43.1 33.48,43.51 34.64,43.51C35.334,43.525 36.029,43.498 36.72,43.43L36.81,45.8C35.954,45.906 35.093,45.963 34.23,45.97C31.06,45.97 29.82,44.66 29.82,41.71L29.82,36.31L27.57,36.31L27.57,33.9L29.82,33.9L29.82,31.82ZM95.29,33.9C98.29,33.9 99.29,35.14 99.37,37.46L99.37,37.67L99.45,37.67L99.45,45.61C97.048,45.904 94.63,46.041 92.21,46.02C89.63,46.02 88.47,44.63 88.47,42.25C88.47,39.63 90.05,38.9 92.71,38.49C93.71,38.35 94.71,38.22 95.8,38.13L96.46,38.08L96.46,37.67C96.46,36.67 96.04,36.36 95.13,36.36C94.22,36.36 92.38,36.44 91.47,36.44C90.13,36.44 89.72,35.7 89.72,34.23C90.8,34.15 93.38,33.9 95.29,33.9Z" style="fill:white;"/>
</svg>
