<svg id="Layer_1" data-name="Layer 1" xmlns="http://www.w3.org/2000/svg" xmlns:xlink="http://www.w3.org/1999/xlink" viewBox="0 0 130 56.02"><defs><style>.cls-1,.cls-2{fill:none;}.cls-1{clip-rule:evenodd;}.cls-3{clip-path:url(#clip-path);}.cls-4{clip-path:url(#clip-path-2);}.cls-5{fill:#fff;}</style><clipPath id="clip-path" transform="translate(5 5)"><path class="cls-1" d="M120,0s.83,15.44-9,20.86a21.7,21.7,0,0,1-6.64,2.63c6.64-4.84,6.06-15.93,6.06-15.93L95.67,12.32a30.93,30.93,0,0,0-3.16,1.4,7.64,7.64,0,0,1,2.74-4.44A24,24,0,0,1,101.56,6ZM92.58,13.77a14,14,0,0,0-.17,1.82c0,4.62,4.21,8.33,9.34,8.33h.37a19.3,19.3,0,0,0,2.5-.24c-.43.25-.76.5-1.18.74-3.2,1.74-5.73,2.4-7.75,2.31h-.25c-4-.12-7.23-3-7.23-6.68a6.43,6.43,0,0,1,2.35-5A10.79,10.79,0,0,1,92.58,13.77Zm-53.85,18c0-1.62,1.5-2,3-1.86v2.92h-3Zm-15.79,0c0-1.62,1.5-2,3-1.86v2.92h-3ZM7.06,32H3.16v4.29h3.9c1.67,0,2.17-.65,2.17-2.19S8.81,32,7.06,32Zm.42,6.64H3.16v4.45H7.48c1.66,0,2.16-.73,2.16-2.26S9.14,38.64,7.48,38.64Zm88.89,1.65c-1.16.08-2.24.25-3.24.41-1.25.24-1.75.57-1.75,1.64,0,.65.17,1.47,1.42,1.47s2.6-.07,3.4-.15h.17ZM19.12,33.7a7.63,7.63,0,0,1,2.41.16c0,1-.25,1.78-.83,2.11s-.92.16-1.67.24c-1.16,0-1.74.24-1.74,1.7v7.7h-3v-7.7C14.3,34.75,16,33.78,19.12,33.7ZM7.65,29.57c3.15,0,4.65,1.13,4.65,4.21a3.3,3.3,0,0,1-2.24,3.48c1.49.24,2.66,1.14,2.66,3.73,0,3.39-1.66,4.56-4.52,4.69H0V29.57Zm18.2,4.25v12H22.77v-12Zm15.79,0v12H38.56v-12Zm38.93-4.5c1.33,0,4.49.41,5.74.57,0,1.56-.67,2.46-2.42,2.38l-2.66-.17c-3.91-.24-4.66.82-4.66,5.49s.92,5.73,3.41,5.73c.84,0,2.83-.16,3.66-.25V39H82.56c-1.58,0-2.16-.74-2-2.54h6.24v8.68a39.56,39.56,0,0,1-6.91.74c-4.74,0-6.57-1.89-6.57-8.35S74.83,29.32,80.57,29.32ZM54.94,31.17c0-1.64,1.5-2.05,3-1.88v6A15.63,15.63,0,0,1,62.87,34c2.59,0,3.51,1.39,3.51,3.85v8.12h-3V38A1.29,1.29,0,0,0,62,36.66a14.14,14.14,0,0,0-4,1.07v8.2h-3Zm50.83,2.65c1.75,0,3.83.17,4.75.25,0,1.55-.67,2.29-2,2.21-.75,0-1.91-.08-3.16-.08-.75,0-1.33.32-1.33,1.06,0,.9.75,1.06,3.16,1.47,2.58.5,3.91,1.23,3.91,3.69s-1.91,3.52-5.08,3.52c-1.83,0-3.49-.08-4.65-.17l.16-2.45c1.08.08,2.83.16,4.41.16,1.08,0,2.25-.16,2.25-1.14,0-.82-.5-1-2.91-1.4-2.67-.4-4.16-1.14-4.16-3.68S103.11,33.82,105.77,33.82Zm-57.57,0c1.75,0,3.83.17,4.75.25,0,1.55-.67,2.29-2,2.21-.75,0-1.91-.08-3.16-.08-.75,0-1.33.32-1.33,1.06,0,.9.74,1.06,3.16,1.47,2.58.5,3.91,1.23,3.91,3.69s-1.92,3.52-5.08,3.52c-1.83,0-3.49-.08-4.66-.17L44,43.32c1.08.08,2.83.16,4.41.16,1.08,0,2.25-.16,2.25-1.14,0-.82-.5-1-2.92-1.4-2.66-.4-4.16-1.14-4.16-3.68S45.54,33.82,48.2,33.82Zm-18.38-2c0-1.64,1.49-2.05,3-1.89v4H37c.17,1.64-.41,2.38-2,2.38H32.89v5.57c0,1.22.59,1.63,1.75,1.63a17.32,17.32,0,0,0,2.08-.08l.09,2.37a22.34,22.34,0,0,1-2.58.17c-3.17,0-4.41-1.31-4.41-4.26v-5.4H27.57V33.9h2.25ZM95.29,33.9c3,0,4,1.24,4.08,3.56v.21h.08v7.94a55.69,55.69,0,0,1-7.24.41c-2.58,0-3.74-1.39-3.74-3.77,0-2.62,1.58-3.35,4.24-3.76,1-.14,2-.27,3.09-.36l.66-.05v-.41c0-1-.42-1.31-1.33-1.31s-2.75.08-3.66.08c-1.34,0-1.75-.74-1.75-2.21C90.8,34.15,93.38,33.9,95.29,33.9Z"/></clipPath><clipPath id="clip-path-2" transform="translate(5 5)"><rect class="cls-2" width="120" height="47"/></clipPath></defs><g class="cls-3"><g class="cls-4"><rect class="cls-5" width="130" height="56.02"/></g></g></svg>