<svg id="Layer_1" data-name="Layer 1" xmlns="http://www.w3.org/2000/svg" viewBox="0 0 32 32"><defs><style>.cls-1{fill:#fff;}</style></defs><path class="cls-1" d="M16,0A16,16,0,1,0,32,16,16,16,0,0,0,16,0Zm8.1,13.09c0,.17,0,.34,0,.51A11.09,11.09,0,0,1,7,22.94c.3,0,.61,0,.93,0a7.78,7.78,0,0,0,4.84-1.67,3.9,3.9,0,0,1-3.64-2.71,3.55,3.55,0,0,0,.73.08,3.88,3.88,0,0,0,1-.14A3.9,3.9,0,0,1,7.8,14.73v-.05a4.07,4.07,0,0,0,1.77.49,3.9,3.9,0,0,1-1.73-3.25,4,4,0,0,1,.52-2,11.07,11.07,0,0,0,8,4.07,3.68,3.68,0,0,1-.1-.89A3.9,3.9,0,0,1,23,10.48a7.78,7.78,0,0,0,2.47-1,3.88,3.88,0,0,1-1.71,2.16A7.67,7.67,0,0,0,26,11.07,7.77,7.77,0,0,1,24.1,13.09Z"/></svg>