<?xml version="1.0" encoding="UTF-8" standalone="no"?><!DOCTYPE svg PUBLIC "-//W3C//DTD SVG 1.1//EN" "http://www.w3.org/Graphics/SVG/1.1/DTD/svg11.dtd"><svg width="100%" height="100%" viewBox="0 0 512 512" version="1.1" xmlns="http://www.w3.org/2000/svg" xmlns:xlink="http://www.w3.org/1999/xlink" xml:space="preserve" xmlns:serif="http://www.serif.com/" style="fill-rule:evenodd;clip-rule:evenodd;stroke-linejoin:round;stroke-miterlimit:2;"><path d="M216,508.887c-122.319,-19.226 -216,-125.203 -216,-252.887c0,-141.29 114.71,-256 256,-256c141.29,0 256,114.71 256,256c0,127.684 -93.681,233.661 -216,252.887l0,-178.887l59.65,0l11.35,-74l-71,0l0,-48.021c0,-20.245 9.918,-39.979 41.719,-39.979l32.281,0l0,-63c0,0 -29.296,-5 -57.305,-5c-58.476,0 -96.695,35.44 -96.695,99.6l0,56.4l-65,0l0,74l65,0l0,178.887Z" style="fill:#fff;"/></svg>