<svg xmlns="http://www.w3.org/2000/svg" width="100%" height="100%" viewBox="0 0 32 32" fill-rule="evenodd" stroke-linejoin="round" stroke-miterlimit="2"><path d="M16 0a16.01 16.01 0 0 1 16 16 16.01 16.01 0 0 1-16 16A16.01 16.01 0 0 1 0 16 16.01 16.01 0 0 1 16 0zm9.582 11.186c-.23-.86-.907-1.538-1.768-1.768C22.254 9 16 9 16 9s-6.254 0-7.814.418c-.86.23-1.538.908-1.768 1.768C6 12.746 6 16 6 16s0 3.254.418 4.814c.23.86.908 1.538 1.768 1.768C9.746 23 16 23 16 23s6.254 0 7.814-.418c.86-.23 1.538-.908 1.768-1.768C26 19.254 26 16 26 16s0-3.254-.418-4.814zM14 19v-6l5.196 3L14 19z" fill="#fff"/></svg>