<svg id="Layer_1" data-name="Layer 1" xmlns="http://www.w3.org/2000/svg" viewBox="0 0 32 32"><defs><style>.cls-1{fill:#fff;}</style></defs><path class="cls-1" d="M18.16,18.12a1,1,0,0,0-.5.13,1.15,1.15,0,0,0-.26.19v-2a.12.12,0,0,0-.11-.12h-1a.13.13,0,0,0-.12.12v7.1a.13.13,0,0,0,.12.12h1a.12.12,0,0,0,.11-.12v-.11a1.4,1.4,0,0,0,.26.16,1.21,1.21,0,0,0,.55.14.92.92,0,0,0,.76-.35,1.44,1.44,0,0,0,.25-.92V19.54a1.68,1.68,0,0,0-.28-1A.88.88,0,0,0,18.16,18.12ZM18,22.32c0,.18,0,.27-.05.3s-.06.07-.18.07a.41.41,0,0,1-.19,0,.94.94,0,0,1-.16-.14V19.33a.67.67,0,0,1,.14-.11l.12,0a.24.24,0,0,1,.25.1.62.62,0,0,1,.07.34Zm-2.16-9.61a.41.41,0,0,1-.1-.32V9.51a.34.34,0,0,1,.12-.27.36.36,0,0,1,.27-.09.5.5,0,0,1,.33.09.33.33,0,0,1,.11.27v2.88a.46.46,0,0,1-.11.32.45.45,0,0,1-.33.12A.36.36,0,0,1,15.82,12.71Zm-3.25,4.88h-1v5.95c0,.06,0,.12-.09.12H10.34a.12.12,0,0,1-.11-.12V17.59h-1c-.06,0-.09-.06-.09-.12v-1c0-.06,0-.12.09-.12h3.38a.13.13,0,0,1,.12.12v1A.13.13,0,0,1,12.57,17.59Zm2.88.71v5.24c0,.06,0,.12-.09.12h-1a.13.13,0,0,1-.12-.12v-.3a1.51,1.51,0,0,1-.39.3,1.24,1.24,0,0,1-.62.19.7.7,0,0,1-.6-.28,1.24,1.24,0,0,1-.18-.76V18.3a.12.12,0,0,1,.11-.12h1a.12.12,0,0,1,.11.12v4c0,.14,0,.19,0,.21s0,0,.11,0a.4.4,0,0,0,.21-.09,1.37,1.37,0,0,0,.25-.23v-4a.13.13,0,0,1,.12-.12h1C15.42,18.18,15.45,18.24,15.45,18.3Zm5.86-.25a1.55,1.55,0,0,0-1.15.48,1.63,1.63,0,0,0-.43,1.17v2.37a1.88,1.88,0,0,0,.41,1.27,1.38,1.38,0,0,0,1.1.46,1.52,1.52,0,0,0,1.18-.44,1.88,1.88,0,0,0,.41-1.29v-.39a.11.11,0,0,0-.11-.11h-1a.11.11,0,0,0-.11.11v.37a1.13,1.13,0,0,1-.07.53.29.29,0,0,1-.25.09.22.22,0,0,1-.23-.12c0-.05-.07-.18-.07-.5v-.9h1.75c.06,0,.11,0,.11-.09V19.7a1.77,1.77,0,0,0-.39-1.22A1.49,1.49,0,0,0,21.31,18.05Zm.28,2.07H21V19.7a.74.74,0,0,1,.07-.41.36.36,0,0,1,.48,0,.74.74,0,0,1,.07.41ZM16,0A16,16,0,1,0,32,16,16,16,0,0,0,16,0Zm2.37,8.36h1v4a.49.49,0,0,0,0,.27c0,.06.12.07.21.07a.59.59,0,0,0,.28-.11,1.56,1.56,0,0,0,.3-.28v-4h1v5.25h-1V13a2.16,2.16,0,0,1-.58.49,1.19,1.19,0,0,1-.55.16.61.61,0,0,1-.51-.23,1.18,1.18,0,0,1-.18-.69Zm-2.21-.13a1.33,1.33,0,0,1,1,.39,1.26,1.26,0,0,1,.39,1V12.3a1.39,1.39,0,0,1-.37,1,1.42,1.42,0,0,1-1.06.4,1.33,1.33,0,0,1-1-.4,1.52,1.52,0,0,1-.39-1.08V9.56a1.25,1.25,0,0,1,.39-1A1.51,1.51,0,0,1,16.16,8.23Zm-4-1.73.71,2.83H13l.69-2.83h1.11l-1.27,4.16v2.95h-1.1V10.8L11.08,6.5ZM23.94,23.11a2.33,2.33,0,0,1-2.33,2.3c-1.83.07-3.7.09-5.61.09s-3.78,0-5.61-.09a2.33,2.33,0,0,1-2.33-2.3c-.07-1-.11-2-.11-3s0-2,.11-3a2.32,2.32,0,0,1,2.33-2.3c1.83-.08,3.7-.09,5.61-.09s3.78,0,5.61.09a2.32,2.32,0,0,1,2.33,2.3c.07,1,.12,2,.11,3S24,22.1,23.94,23.11Z"/></svg>