<svg xmlns="http://www.w3.org/2000/svg" width="100%" height="100%" viewBox="0 0 32 32" fill-rule="evenodd" stroke-linejoin="round" stroke-miterlimit="2"><path d="M16 0a16.01 16.01 0 0 1 16 16 16.01 16.01 0 0 1-16 16A16.01 16.01 0 0 1 0 16 16.01 16.01 0 0 1 16 0zm-2.818 24.5c7.08 0 10.95-5.867 10.95-10.952 0-.167 0-.335-.008-.495.75-.542 1.405-1.22 1.924-1.995a7.83 7.83 0 0 1-2.211.607c.798-.48 1.405-1.23 1.692-2.132-.742.44-1.564.76-2.442.934-.703-.75-1.7-1.213-2.8-1.213a3.85 3.85 0 0 0-3.847 3.847c0 .304.03.6.103.878-3.2-.16-6.034-1.692-7.934-4.023-.327.567-.52 1.23-.52 1.932 0 1.333.68 2.515 1.716 3.2-.63-.016-1.22-.192-1.74-.48v.048c0 1.868 1.325 3.416 3.09 3.775-.32.088-.662.136-1.013.136-.248 0-.487-.024-.727-.072.487 1.533 1.908 2.642 3.592 2.674-1.317 1.03-2.977 1.645-4.78 1.645-.31 0-.615-.016-.918-.056 1.684 1.1 3.712 1.74 5.883 1.74z" fill="#fff"/></svg>