<?xml version="1.0" encoding="UTF-8"?>
<svg width="227px" height="52px" viewBox="0 0 227 52" version="1.1" xmlns="http://www.w3.org/2000/svg" xmlns:xlink="http://www.w3.org/1999/xlink">
    <!-- Generator: Sketch 63.1 (92452) - https://sketch.com -->
    <title>Bord Gais Energy</title>
    <desc>Created with Sketch.</desc>
    <defs>
        <polygon id="path-1" points="0.947769543 0.102651391 102.757547 0.102651391 102.757547 48.9458939 0.947769543 48.9458939"></polygon>
    </defs>
    <g id="Page-1" stroke="none" stroke-width="1" fill="none" fill-rule="evenodd">
        <g id="Bord-Gais-Energy" transform="translate(-1.000000, 0.500000)">
            <g id="Group-2" transform="translate(130.000000, 25.000000)" fill="#6633CC" fill-rule="nonzero">
                <path d="M25.7582027,12.0912286 L22.9684337,12.0912286 L22.9684337,20 L25.7582027,20 L25.7582027,12.0912286 Z M0,20 L9.57800469,20 L9.57800469,17.3763917 L2.90127887,17.3763917 L2.90127887,14.6198975 L8.72218087,14.6198975 L8.72218087,12.0912286 L2.90127887,12.0912286 L2.90127887,9.35378136 L9.3730403,9.35378136 L9.3730403,6.71127364 L0,6.71127364 L0,20 Z M11.8654015,20 L14.6553149,20 L14.6553149,6.71127364 L11.8654015,6.71127364 L11.8654015,20 Z M17.4455172,20 L20.2355752,20 L20.2355752,6.71127364 L17.4455172,6.71127364 L17.4455172,20 Z M26,6.67273676 C26,6.20424054 25.8419796,5.80779795 25.5259387,5.48459017 C25.2098976,5.16123476 24.8219243,5 24.3630293,5 C23.9047121,5 23.517172,5.16123476 23.2008423,5.48459017 C22.8848013,5.80765029 22.7266364,6.20424054 22.7266364,6.67273676 C22.7266364,7.14167596 22.8849457,7.53767559 23.2008423,7.86103101 C23.5170276,8.18423877 23.9047121,8.34562119 24.3630293,8.34562119 C24.8219243,8.34562119 25.2097532,8.18423877 25.5259387,7.86103101 C25.842124,7.53782324 26,7.14167596 26,6.67273676 Z" id="Shape"></path>
                <path d="M37.0515733,8.9736111 C37.4374342,8.9736111 37.7514681,8.64803332 37.7514681,8.24777776 C37.7514681,7.84795555 37.4374342,7.52252222 37.0515733,7.52252222 C36.6657125,7.52252222 36.3522354,7.84795555 36.3522354,8.24777776 C36.3522354,8.64803332 36.6657125,8.9736111 37.0515733,8.9736111 Z M35.7591066,4.41494444 C35.8618358,4.41494444 35.9456339,4.32813332 35.9456339,4.22153333 C35.9456339,4.11392222 35.8618358,4.02638889 35.7591066,4.02638889 C35.6552639,4.02638889 35.5709091,4.11377777 35.5709091,4.22153333 C35.5710483,4.32827778 35.6552639,4.41494444 35.7591066,4.41494444 Z M37.0515733,6.20995556 C37.3955352,6.20995556 37.6749084,5.91962222 37.6749084,5.56284444 C37.6749084,5.2062111 37.3955352,4.91616666 37.0515733,4.91616666 C36.7081684,4.91616666 36.4285168,5.2062111 36.4285168,5.56284444 C36.428656,5.91962222 36.7083076,6.20995556 37.0515733,6.20995556 Z M35.7577147,7.39382221 C36.0178784,7.39382221 36.2297399,7.1747 36.2297399,6.9056 C36.2297399,6.63606666 36.0180176,6.41665555 35.7577147,6.41665555 C35.4982469,6.41665555 35.2872206,6.63606666 35.2872206,6.9056 C35.2873598,7.17484444 35.4982469,7.39382221 35.7577147,7.39382221 Z M38.3458497,4.78876666 C38.6470772,4.78876666 38.8927642,4.53382222 38.8927642,4.22066666 C38.8927642,3.90779999 38.6470772,3.65328889 38.3458497,3.65328889 C38.0443436,3.65328889 37.7987959,3.90779999 37.7987959,4.22066666 C37.7989351,4.53396666 38.0443436,4.78876666 38.3458497,4.78876666 Z M37.0515733,3.18066666 C37.2129055,3.18066666 37.343753,3.04517778 37.343753,2.87877777 C37.343753,2.71223332 37.2130447,2.5766 37.0515733,2.5766 C36.8917724,2.5766 36.7613425,2.71208888 36.7613425,2.87877777 C36.7613425,3.04517778 36.8917724,3.18066666 37.0515733,3.18066666 Z M38.3458497,1.83776667 C38.505929,1.83776667 38.6362197,1.70256666 38.6362197,1.53645555 C38.6362197,1.37005555 38.505929,1.23456667 38.3458497,1.23456667 C38.1850743,1.23456667 38.0540876,1.37005555 38.0540876,1.53645555 C38.0542269,1.70256666 38.1850743,1.83776667 38.3458497,1.83776667 Z M38.3458497,7.47283333 C38.6470772,7.47283333 38.8927642,7.21846666 38.8927642,6.9056 C38.8927642,6.59258889 38.6470772,6.33822221 38.3458497,6.33822221 C38.0443436,6.33822221 37.7987959,6.59258889 37.7987959,6.9056 C37.7989351,7.2186111 38.0443436,7.47283333 38.3458497,7.47283333 Z M34.4649695,8.73643333 C34.7245765,8.73643333 34.9354637,8.51716666 34.9354637,8.24763332 C34.9354637,7.97867778 34.7245765,7.75955554 34.4649695,7.75955554 C34.2048058,7.75955554 33.9930835,7.97867778 33.9930835,8.24763332 C33.9932227,8.5173111 34.2048058,8.73643333 34.4649695,8.73643333 L34.4649695,8.73643333 Z M31.8783658,11.2344555 C32.0381667,11.2344555 32.1685966,11.0991111 32.1685966,10.9324222 C32.1685966,10.7661667 32.0381667,10.6305333 31.8783658,10.6305333 C31.7174513,10.6305333 31.5864645,10.7660222 31.5864645,10.9324222 C31.5866037,11.0992555 31.7174513,11.2344555 31.8783658,11.2344555 Z M33.1709717,9.92015555 C33.3467805,9.92015555 33.4900168,9.77224443 33.4900168,9.5898111 C33.4900168,9.4078111 33.3467805,9.2596111 33.1709717,9.2596111 C32.9958588,9.2596111 32.8533186,9.4078111 32.8533186,9.5898111 C32.8533186,9.77209999 32.995998,9.92015555 33.1709717,9.92015555 Z M35.7577147,10.3156444 C36.1434362,10.3156444 36.4571918,9.99006665 36.4571918,9.5898111 C36.4571918,9.18998888 36.1434362,8.86469998 35.7577147,8.86469998 C35.371993,8.86469998 35.0579591,9.18998888 35.0579591,9.5898111 C35.0579591,9.99006665 35.371993,10.3156444 35.7577147,10.3156444 Z M30.5843678,12.5766333 C30.7441687,12.5766333 30.8743203,12.4411444 30.8743203,12.2746 C30.8743203,12.1082 30.7441687,11.9727111 30.5843678,11.9727111 C30.4234533,11.9727111 30.2924667,12.1082 30.2924667,12.2746 C30.2926059,12.4412889 30.4234533,12.5766333 30.5843678,12.5766333 Z M34.4649695,5.75697777 C34.567838,5.75697777 34.6516359,5.66973333 34.6516359,5.5627 C34.6516359,5.45595555 34.567838,5.36914444 34.4649695,5.36914444 C34.3622403,5.36914444 34.2784424,5.45595555 34.2784424,5.5627 C34.2785816,5.66987777 34.3622403,5.75697777 34.4649695,5.75697777 Z M34.4649695,11.6584 C34.8508304,11.6584 35.1645859,11.3325333 35.1645859,10.9319889 C35.1645859,10.5321667 34.8508304,10.2067333 34.4649695,10.2067333 C34.0791088,10.2067333 33.7656316,10.5321667 33.7656316,10.9319889 C33.7656316,11.3325333 34.0791088,11.6584 34.4649695,11.6584 Z M38.8163437,9.5898111 C38.8163437,9.3207111 38.6051782,9.10173333 38.3458497,9.10173333 C38.0858251,9.10173333 37.8739635,9.3207111 37.8739635,9.5898111 C37.8739635,9.85934444 38.085686,10.0787556 38.3458497,10.0787556 C38.6053173,10.0786111 38.8163437,9.85934444 38.8163437,9.5898111 Z M37.0515733,11.6584 C37.4374342,11.6584 37.7514681,11.3325333 37.7514681,10.9319889 C37.7514681,10.5321667 37.4374342,10.2067333 37.0515733,10.2067333 C36.6657125,10.2067333 36.3522354,10.5321667 36.3522354,10.9319889 C36.3522354,11.3325333 36.6657125,11.6584 37.0515733,11.6584 Z M40.9327319,13.0746778 C41.3581253,13.0746778 41.7043143,12.7160222 41.7043143,12.2747444 C41.7043143,11.8336111 41.3581253,11.4749555 40.9327319,11.4749555 C40.5069208,11.4749555 40.160871,11.8336111 40.160871,12.2747444 C40.160871,12.7158778 40.50706,13.0746778 40.9327319,13.0746778 Z M35.7577147,11.5489111 C35.371993,11.5489111 35.0579591,11.8744889 35.0579591,12.2746 C35.0579591,12.6747111 35.371993,13.0002889 35.7577147,13.0002889 C36.1434362,13.0002889 36.4571918,12.6747111 36.4571918,12.2746 C36.4571918,11.8744889 36.1435754,11.5489111 35.7577147,11.5489111 Z M29.2902308,13.8109111 C29.3930991,13.8109111 29.4768972,13.7241 29.4768972,13.6167778 C29.4768972,13.5098889 29.3930991,13.4230778 29.2902308,13.4230778 C29.1875015,13.4230778 29.1037036,13.5098889 29.1037036,13.6167778 C29.1037036,13.7242444 29.1873623,13.8109111 29.2902308,13.8109111 Z M42.2265905,11.4603666 C42.5077734,11.4603666 42.7360604,11.2237667 42.7360604,10.9325667 C42.7360604,10.6416555 42.5076343,10.4049111 42.2265905,10.4049111 C41.9456861,10.4049111 41.7172598,10.6418 41.7172598,10.9325667 C41.7172598,11.2237667 41.9458253,11.4603666 42.2265905,11.4603666 Z M37.0515733,14.3434778 C37.4374342,14.3434778 37.7514681,14.0173222 37.7514681,13.6169222 C37.7514681,13.2171 37.4374342,12.8918111 37.0515733,12.8918111 C36.6657125,12.8918111 36.3522354,13.2171 36.3522354,13.6169222 C36.3522354,14.0173222 36.6657125,14.3434778 37.0515733,14.3434778 Z M40.9327319,1.83776667 C41.0925328,1.83776667 41.2229627,1.70256666 41.2229627,1.53645555 C41.2229627,1.37005555 41.0925328,1.23456667 40.9327319,1.23456667 C40.7718174,1.23456667 40.6408306,1.37005555 40.6408306,1.53645555 C40.6409698,1.70256666 40.7718174,1.83776667 40.9327319,1.83776667 Z M38.3458497,11.5489111 C37.960128,11.5489111 37.6460941,11.8744889 37.6460941,12.2746 C37.6460941,12.6747111 37.960128,13.0002889 38.3458497,13.0002889 C38.7317105,13.0002889 39.0453268,12.6747111 39.0453268,12.2746 C39.0453268,11.8744889 38.7318497,11.5489111 38.3458497,11.5489111 Z M40.9327319,9.33862221 C40.7988221,9.33862221 40.6898289,9.45128887 40.6898289,9.58966666 C40.6898289,9.72862221 40.7988221,9.84157777 40.9327319,9.84157777 C41.0665025,9.84157777 41.175078,9.72862221 41.175078,9.58966666 C41.175078,9.45143333 41.0665025,9.33862221 40.9327319,9.33862221 Z M39.6383164,7.99658889 C39.505381,7.99658889 39.3972229,8.10911111 39.3972229,8.24763332 C39.3972229,8.38615555 39.505381,8.49867777 39.6383164,8.49867777 C39.7722262,8.49867777 39.8810802,8.38615555 39.8810802,8.24763332 C39.8810802,8.10911111 39.7722262,7.99658889 39.6383164,7.99658889 Z M39.6383164,11.4603666 C39.9196385,11.4603666 40.1480646,11.2237667 40.1480646,10.9325667 C40.1480646,10.6416555 39.9194993,10.4049111 39.6383164,10.4049111 C39.3582471,10.4049111 39.1305168,10.6418 39.1305168,10.9325667 C39.1305168,11.2237667 39.3583862,11.4603666 39.6383164,11.4603666 Z M38.3458497,15.6855111 C38.7317105,15.6855111 39.0453268,15.3595 39.0453268,14.9589555 C39.0453268,14.5594222 38.7317105,14.2338444 38.3458497,14.2338444 C37.960128,14.2338444 37.6460941,14.5594222 37.6460941,14.9589555 C37.6460941,15.3595 37.960128,15.6855111 38.3458497,15.6855111 Z M39.6383164,5.21834443 C39.4554083,5.21834443 39.3063257,5.37261111 39.3063257,5.56284444 C39.3063257,5.75322222 39.4552691,5.90806666 39.6383164,5.90806666 C39.8221988,5.90806666 39.9718383,5.75336666 39.9718383,5.56284444 C39.9719774,5.37261111 39.8223381,5.21834443 39.6383164,5.21834443 Z M39.6383164,14.3434778 C40.0241772,14.3434778 40.338072,14.0173222 40.338072,13.6169222 C40.338072,13.2171 40.0241772,12.8918111 39.6383164,12.8918111 C39.2528732,12.8918111 38.9388393,13.2171 38.9388393,13.6169222 C38.9388393,14.0173222 39.2530124,14.3434778 39.6383164,14.3434778 Z M39.6383164,0.387833333 C39.7421591,0.387833333 39.8265139,0.300588889 39.8265139,0.19341111 C39.8265139,0.0868111113 39.7422983,0 39.6383164,0 C39.5355872,0 39.4517891,0.0868111113 39.4517891,0.19341111 C39.4519283,0.300588889 39.5355872,0.387833333 39.6383164,0.387833333 Z M39.6383164,3.40715555 C39.9196385,3.40715555 40.1480646,3.16997777 40.1480646,2.87877777 C40.1480646,2.58757778 39.9194993,2.35097777 39.6383164,2.35097777 C39.3582471,2.35097777 39.1305168,2.58772222 39.1305168,2.87877777 C39.1305168,3.16997777 39.3583862,3.40715555 39.6383164,3.40715555 Z M37.0515733,17.0276889 C37.4374342,17.0276889 37.7514681,16.7019667 37.7514681,16.301711 C37.7514681,15.9017444 37.4374342,15.5760222 37.0515733,15.5760222 C36.6657125,15.5760222 36.3522354,15.9018888 36.3522354,16.301711 C36.3522354,16.7019667 36.6657125,17.0276889 37.0515733,17.0276889 Z M38.3458497,19.8398778 C38.0858251,19.8398778 37.8739635,20.0592889 37.8739635,20.3289667 C37.8739635,20.598211 38.085686,20.8179111 38.3458497,20.8179111 C38.6051782,20.8179111 38.8163437,20.598211 38.8163437,20.3289667 C38.8163437,20.0591444 38.6053173,19.8398778 38.3458497,19.8398778 L38.3458497,19.8398778 Z M37.0515733,18.2609556 C36.6657125,18.2609556 36.3522354,18.5863888 36.3522354,18.9867889 C36.3522354,19.3867555 36.6657125,19.7117556 37.0515733,19.7117556 C37.4374342,19.7117556 37.7514682,19.3867555 37.7514682,18.9867889 C37.7516073,18.5863888 37.4375734,18.2609556 37.0515733,18.2609556 Z M38.3458497,16.9179111 C37.960128,16.9179111 37.6460941,17.2437778 37.6460941,17.6437444 C37.6460941,18.0441444 37.960128,18.3695778 38.3458497,18.3695778 C38.7317105,18.3695778 39.0453268,18.0441444 39.0453268,17.6437444 C39.0454659,17.2437778 38.7318497,16.9179111 38.3458497,16.9179111 Z M39.6383164,15.5758778 C39.2528732,15.5758778 38.9388393,15.9017444 38.9388393,16.3015666 C38.9388393,16.7018222 39.2530124,17.0275445 39.6383164,17.0275445 C40.0241772,17.0275445 40.338072,16.7018222 40.338072,16.3015666 C40.3382111,15.9017444 40.0243164,15.5758778 39.6383164,15.5758778 Z M39.6383164,18.6850444 C39.4783763,18.6850444 39.3479464,18.8202444 39.3479464,18.9867889 C39.3479464,19.1526111 39.4783763,19.2879555 39.6383164,19.2879555 C39.7995093,19.2879555 39.930496,19.1526111 39.930496,18.9867889 C39.930496,18.8202444 39.7996484,18.6850444 39.6383164,18.6850444 Z M37.0515733,21.1036222 C36.7499283,21.1036222 36.5049371,21.3582777 36.5049371,21.671 C36.5049371,21.9843 36.7499283,22.2393888 37.0515733,22.2393888 C37.3532186,22.2393888 37.5986271,21.9843 37.5986271,21.671 C37.5986271,21.3581333 37.3532186,21.1036222 37.0515733,21.1036222 Z M35.7577147,19.7615889 C35.4562087,19.7615889 35.210661,20.0162445 35.210661,20.3289667 C35.210661,20.6419777 35.4562087,20.8962 35.7577147,20.8962 C36.0599166,20.8962 36.305882,20.6419777 36.305882,20.3289667 C36.305882,20.0160999 36.0599166,19.7615889 35.7577147,19.7615889 Z M37.0515733,24.0537555 C36.8917724,24.0537555 36.7613425,24.1892444 36.7613425,24.3557889 C36.7613425,24.5223333 36.8917724,24.6579666 37.0515733,24.6579666 C37.2129055,24.6579666 37.343753,24.5224778 37.343753,24.3557889 C37.343753,24.1893888 37.2130447,24.0537555 37.0515733,24.0537555 Z M40.9327319,17.3418555 C40.7718174,17.3418555 40.6408306,17.4774889 40.6408306,17.6438888 C40.6408306,17.8104333 40.7716782,17.9460666 40.9327319,17.9460666 C41.0925328,17.9460666 41.2229627,17.8105777 41.2229627,17.6438888 C41.2229627,17.4774889 41.092672,17.3418555 40.9327319,17.3418555 Z M35.7577147,22.4458 C35.4562087,22.4458 35.210661,22.7003111 35.210661,23.0131778 C35.210661,23.3263332 35.4562087,23.5814221 35.7577147,23.5814221 C36.0599166,23.5814221 36.305882,23.3263332 36.305882,23.0131778 C36.305882,22.7001666 36.0599166,22.4458 35.7577147,22.4458 Z M43.5207277,14.7656889 C43.4170241,14.7656889 43.3326692,14.8525 43.3326692,14.9596778 C43.3326692,15.0665667 43.416885,15.1532333 43.5207277,15.1532333 C43.6233177,15.1532333 43.7072549,15.0665667 43.7072549,14.9596778 C43.7072549,14.8523555 43.6233177,14.7656889 43.5207277,14.7656889 Z M44.8131944,10.7382889 C44.7106044,10.7382889 44.6266671,10.8255333 44.6266671,10.9325667 C44.6266671,11.0398889 44.7106044,11.1271333 44.8131944,11.1271333 C44.9162019,11.1271333 45,11.0398889 45,10.9325667 C45,10.8253889 44.9162019,10.7382889 44.8131944,10.7382889 Z M43.5193356,11.7470889 C43.2384312,11.7470889 43.0101441,11.9836889 43.0101441,12.2746 C43.0101441,12.5658 43.2385704,12.8022555 43.5193356,12.8022555 C43.800101,12.8022555 44.0286664,12.5656555 44.0286664,12.2746 C44.0286664,11.9836889 43.8002401,11.7470889 43.5193356,11.7470889 Z M42.2265905,12.9904667 C41.8932079,12.9904667 41.6221867,13.2715555 41.6221867,13.6169222 C41.6221867,13.9628666 41.8932079,14.2441 42.2265905,14.2441 C42.5601123,14.2441 42.8309944,13.9628666 42.8309944,13.6169222 C42.8309944,13.2715555 42.5601123,12.9904667 42.2265905,12.9904667 Z M40.9327319,14.2338444 C40.5467318,14.2338444 40.2331155,14.5594222 40.2331155,14.9589555 C40.2331155,15.3595 40.5467318,15.6855111 40.9327319,15.6855111 C41.3184534,15.6855111 41.6319307,15.3595 41.6319307,14.9589555 C41.6320698,14.5594222 41.3184534,14.2338444 40.9327319,14.2338444 Z M42.2265905,16.1077222 C42.1230262,16.1077222 42.038393,16.1946778 42.038393,16.301711 C42.038393,16.4090333 42.122887,16.4962777 42.2265905,16.4962777 C42.329459,16.4962777 42.4133961,16.4090333 42.4133961,16.301711 C42.4133961,16.1945334 42.329459,16.1077222 42.2265905,16.1077222 Z M34.4649695,23.9464332 C34.246844,23.9464332 34.0692256,24.1300221 34.0692256,24.3557889 C34.0692256,24.5817 34.2467048,24.7652889 34.4649695,24.7652889 C34.6821207,24.7652889 34.8590432,24.5817 34.8590432,24.3557889 C34.8590432,24.1300221 34.6821207,23.9464332 34.4649695,23.9464332 Z M33.3574989,23.0130334 C33.3574989,22.9058556 33.2737008,22.8186111 33.1709717,22.8186111 C33.0681033,22.8186111 32.9843052,22.9058556 32.9843052,23.0130334 C32.9843052,23.1200666 33.0681033,23.2070222 33.1709717,23.2070222 C33.27384,23.2070222 33.3574989,23.1200666 33.3574989,23.0130334 Z M33.1709717,11.5489111 C32.78525,11.5489111 32.4713553,11.8744889 32.4713553,12.2746 C32.4713553,12.6747111 32.78525,13.0002889 33.1709717,13.0002889 C33.556554,13.0002889 33.8705879,12.6747111 33.8705879,12.2746 C33.8705879,11.8744889 33.556554,11.5489111 33.1709717,11.5489111 Z M33.1709717,14.4710222 C32.9115039,14.4710222 32.7004776,14.6901444 32.7004776,14.9596778 C32.7004776,15.2290666 32.9115039,15.4479 33.1709717,15.4479 C33.430161,15.4479 33.6416049,15.2290666 33.6416049,14.9596778 C33.6416049,14.69 33.4303001,14.4710222 33.1709717,14.4710222 Z M33.1709717,25.3959333 C33.0111707,25.3959333 32.8807409,25.5314222 32.8807409,25.6978222 C32.8807409,25.8642223 33.0111707,26 33.1709717,26 C33.3310509,26 33.4610633,25.8643667 33.4610633,25.6978222 C33.4610633,25.5312777 33.3311901,25.3959333 33.1709717,25.3959333 Z M30.5843678,14.5498889 C30.365964,14.5498889 30.1886238,14.7337667 30.1886238,14.9595333 C30.1886238,15.1850111 30.3658248,15.3681667 30.5843678,15.3681667 C30.8016582,15.3681667 30.9781631,15.1848666 30.9781631,14.9595333 C30.9783022,14.7339111 30.8016582,14.5498889 30.5843678,14.5498889 Z M31.8783658,16.1083001 C31.7748014,16.1083001 31.6904466,16.1952555 31.6904466,16.301711 C31.6904466,16.4090333 31.7746622,16.4962777 31.8783658,16.4962777 C31.9812341,16.4962777 32.0650322,16.4090333 32.0650322,16.301711 C32.0650322,16.1951111 31.9813733,16.1083001 31.8783658,16.1083001 Z M31.8783658,12.9904667 C31.5442871,12.9904667 31.2725698,13.2715555 31.2725698,13.6169222 C31.2725698,13.9628666 31.5441479,14.2441 31.8783658,14.2441 C32.2110524,14.2441 32.4813777,13.9628666 32.4813777,13.6169222 C32.4813777,13.2715555 32.2110524,12.9904667 31.8783658,12.9904667 Z M34.4649695,21.2612111 C34.246844,21.2612111 34.0692256,21.4449445 34.0692256,21.6708556 C34.0692256,21.8967666 34.2467048,22.0806445 34.4649695,22.0806445 C34.6821207,22.0806445 34.8590432,21.8967666 34.8590432,21.6708556 C34.8590432,21.4449445 34.6821207,21.2612111 34.4649695,21.2612111 Z M35.7577147,15.6855111 C36.1434362,15.6855111 36.4571918,15.3595 36.4571918,14.9589555 C36.4571918,14.5594222 36.1434362,14.2338444 35.7577147,14.2338444 C35.371993,14.2338444 35.0579591,14.5594222 35.0579591,14.9589555 C35.0579591,15.3595 35.371993,15.6855111 35.7577147,15.6855111 Z M35.2873598,17.6437444 C35.2873598,17.9132778 35.4983861,18.1325445 35.7578539,18.1325445 C36.0180176,18.1325445 36.2298791,17.9132778 36.2298791,17.6437444 C36.2298791,17.3747889 36.0181568,17.1555222 35.7578539,17.1555222 C35.4982469,17.1556666 35.2873598,17.3747889 35.2873598,17.6437444 Z M29.2902308,15.9998223 C29.1304299,15.9998223 29,16.1348777 29,16.3012778 C29,16.4681111 29.1304299,16.6040333 29.2902308,16.6040333 C29.4510061,16.6040333 29.5821319,16.4682555 29.5821319,16.3012778 C29.5819927,16.1347333 29.4510061,15.9998223 29.2902308,15.9998223 Z M34.4649695,12.8918111 C34.0791088,12.8918111 33.7656316,13.2171 33.7656316,13.6169222 C33.7656316,14.0173222 34.0791088,14.3434778 34.4649695,14.3434778 C34.8508304,14.3434778 35.1645859,14.0173222 35.1645859,13.6169222 C35.1647251,13.2171 34.8509695,12.8918111 34.4649695,12.8918111 Z M34.4649695,16.6038888 C34.6249097,16.6038888 34.7552003,16.4683999 34.7552003,16.3015666 C34.7552003,16.1353111 34.6249097,15.9996778 34.4649695,15.9996778 C34.3043335,15.9996778 34.1730684,16.1351667 34.1730684,16.3015666 C34.1732076,16.4683999 34.3043335,16.6038888 34.4649695,16.6038888 Z M35.7577147,25.3959333 C35.5979138,25.3959333 35.4673447,25.5314222 35.4673447,25.6978222 C35.4673447,25.8642223 35.5979138,26 35.7577147,26 C35.91849,26 36.0494766,25.8643667 36.0494766,25.6978222 C36.0494766,25.5312777 35.9186292,25.3959333 35.7577147,25.3959333 Z M34.4649695,19.2879555 C34.6249097,19.2879555 34.7552003,19.1526111 34.7552003,18.9867889 C34.7552003,18.8199556 34.6249097,18.6840332 34.4649695,18.6840332 C34.3043335,18.6840332 34.1730684,18.8198111 34.1730684,18.9867889 C34.1732076,19.1527555 34.3043335,19.2879555 34.4649695,19.2879555 Z" id="Shape"></path>
            </g>
            <path d="M131.332,7.992 C131.748,7.992 131.956,7.792 131.956,7.392 C131.956,7.176 131.906,7.02 131.806,6.924 C131.706,6.828 131.548,6.78 131.332,6.78 C131.108,6.78 130.948,6.828 130.852,6.924 C130.756,7.02 130.708,7.176 130.708,7.392 C130.708,7.6 130.756,7.752 130.852,7.848 C130.948,7.944 131.108,7.992 131.332,7.992 Z M131.812,15 L131.812,9.168 L131.26,9.168 C131.1,9.168 130.992,9.198 130.936,9.258 C130.88,9.318 130.852,9.404 130.852,9.516 L130.852,9.516 L130.852,15 L131.812,15 Z M134.464,15 L134.464,11.496 C134.464,10.896 134.592,10.466 134.848,10.206 C135.104,9.946 135.532,9.816 136.132,9.816 C136.636,9.816 137,9.936 137.224,10.176 C137.448,10.416 137.56,10.812 137.56,11.364 L137.56,11.364 L137.56,15 L138.52,15 L138.52,11.328 C138.52,10.512 138.348,9.924 138.004,9.564 C137.66,9.204 137.092,9.024 136.3,9.024 C135.828,9.024 135.424,9.096 135.088,9.24 C134.752,9.384 134.496,9.596 134.32,9.876 L134.32,9.876 L134.224,9.168 L133.912,9.168 C133.752,9.168 133.644,9.198 133.588,9.258 C133.532,9.318 133.504,9.404 133.504,9.516 L133.504,9.516 L133.504,15 L134.464,15 Z M143.86,17.496 L143.86,14.508 C144.188,14.932 144.816,15.144 145.744,15.144 C146.616,15.144 147.248,14.904 147.64,14.424 C148.032,13.944 148.228,13.164 148.228,12.084 C148.228,11.004 148.032,10.224 147.64,9.744 C147.248,9.264 146.616,9.024 145.744,9.024 C145.24,9.024 144.826,9.086 144.502,9.21 C144.178,9.334 143.916,9.536 143.716,9.816 L143.716,9.816 L143.62,9.168 L143.308,9.168 C143.148,9.168 143.04,9.198 142.984,9.258 C142.928,9.318 142.9,9.404 142.9,9.516 L142.9,9.516 L142.9,17.496 L143.86,17.496 Z M145.516,14.376 C145.156,14.376 144.868,14.334 144.652,14.25 C144.436,14.166 144.27,14.048 144.154,13.896 C144.038,13.744 143.96,13.566 143.92,13.362 C143.88,13.158 143.86,12.94 143.86,12.708 L143.86,12.708 L143.86,11.496 C143.86,11.256 143.88,11.03 143.92,10.818 C143.96,10.606 144.04,10.424 144.16,10.272 C144.28,10.12 144.448,10 144.664,9.912 C144.88,9.824 145.164,9.78 145.516,9.78 C146.132,9.78 146.574,9.96 146.842,10.32 C147.11,10.68 147.244,11.268 147.244,12.084 C147.244,12.9 147.11,13.486 146.842,13.842 C146.574,14.198 146.132,14.376 145.516,14.376 Z M151.792,15.144 C152.248,15.144 152.636,15.078 152.956,14.946 C153.276,14.814 153.52,14.62 153.688,14.364 C153.704,14.644 153.798,14.826 153.97,14.91 C154.142,14.994 154.356,15.036 154.612,15.036 L154.612,15.036 L154.768,15.036 C154.816,15.036 154.86,15.032 154.9,15.024 C154.94,15.016 154.976,15.008 155.008,15 L155.008,15 L155.008,14.376 L154.84,14.364 C154.696,14.348 154.61,14.32 154.582,14.28 C154.554,14.24 154.54,14.14 154.54,13.98 L154.54,13.98 L154.54,9.168 L154.144,9.168 C153.936,9.168 153.816,9.272 153.784,9.48 L153.784,9.48 L153.724,9.816 C153.532,9.536 153.288,9.334 152.992,9.21 C152.696,9.086 152.296,9.024 151.792,9.024 C150.984,9.024 150.364,9.268 149.932,9.756 C149.5,10.244 149.284,11.02 149.284,12.084 C149.284,13.164 149.496,13.944 149.92,14.424 C150.344,14.904 150.968,15.144 151.792,15.144 Z M152.02,14.376 C151.404,14.376 150.958,14.198 150.682,13.842 C150.406,13.486 150.268,12.9 150.268,12.084 C150.268,11.268 150.406,10.68 150.682,10.32 C150.958,9.96 151.404,9.78 152.02,9.78 C152.324,9.78 152.576,9.82 152.776,9.9 C152.976,9.98 153.136,10.094 153.256,10.242 C153.376,10.39 153.46,10.568 153.508,10.776 C153.556,10.984 153.58,11.212 153.58,11.46 L153.58,11.46 L153.58,12.612 C153.58,13.188 153.466,13.626 153.238,13.926 C153.01,14.226 152.604,14.376 152.02,14.376 Z M157.228,15 L157.228,11.496 C157.228,10.88 157.364,10.446 157.636,10.194 C157.908,9.942 158.344,9.816 158.944,9.816 C159.032,9.816 159.126,9.818 159.226,9.822 C159.326,9.826 159.416,9.836 159.496,9.852 L159.496,9.852 L159.496,9.06 C159.36,9.036 159.188,9.024 158.98,9.024 C158.532,9.024 158.142,9.102 157.81,9.258 C157.478,9.414 157.236,9.62 157.084,9.876 L157.084,9.876 L156.988,9.168 L156.676,9.168 C156.516,9.168 156.408,9.198 156.352,9.258 C156.296,9.318 156.268,9.404 156.268,9.516 L156.268,9.516 L156.268,15 L157.228,15 Z M163.18,15.144 C163.38,15.144 163.558,15.136 163.714,15.12 C163.87,15.104 164,15.084 164.104,15.06 L164.104,15.06 L164.104,14.328 C164.016,14.344 163.91,14.356 163.786,14.364 C163.662,14.372 163.508,14.376 163.324,14.376 C162.932,14.376 162.65,14.286 162.478,14.106 C162.306,13.926 162.22,13.628 162.22,13.212 L162.22,13.212 L162.22,9.924 L163.912,9.924 L163.912,9.168 L162.22,9.168 L162.22,7.224 L161.668,7.224 C161.508,7.224 161.4,7.254 161.344,7.314 C161.288,7.374 161.26,7.46 161.26,7.572 L161.26,7.572 L161.26,9.168 L160.408,9.312 C160.296,9.328 160.224,9.354 160.192,9.39 C160.16,9.426 160.144,9.488 160.144,9.576 L160.144,9.576 L160.144,9.924 L161.26,9.924 L161.26,13.248 C161.26,13.92 161.41,14.404 161.71,14.7 C162.01,14.996 162.5,15.144 163.18,15.144 Z M166.168,15 L166.168,11.496 C166.168,10.896 166.296,10.466 166.552,10.206 C166.808,9.946 167.236,9.816 167.836,9.816 C168.34,9.816 168.704,9.936 168.928,10.176 C169.152,10.416 169.264,10.812 169.264,11.364 L169.264,11.364 L169.264,15 L170.224,15 L170.224,11.328 C170.224,10.512 170.052,9.924 169.708,9.564 C169.364,9.204 168.796,9.024 168.004,9.024 C167.532,9.024 167.128,9.096 166.792,9.24 C166.456,9.384 166.2,9.596 166.024,9.876 L166.024,9.876 L165.928,9.168 L165.616,9.168 C165.456,9.168 165.348,9.198 165.292,9.258 C165.236,9.318 165.208,9.404 165.208,9.516 L165.208,9.516 L165.208,15 L166.168,15 Z M174.676,15.144 C175.004,15.144 175.328,15.124 175.648,15.084 C175.968,15.044 176.28,14.972 176.584,14.868 L176.584,14.868 L176.584,14.1 C176.28,14.196 175.976,14.266 175.672,14.31 C175.368,14.354 175.06,14.376 174.748,14.376 C173.98,14.376 173.432,14.22 173.104,13.908 C172.776,13.596 172.608,13.128 172.6,12.504 L172.6,12.504 L175.95832,12.50328 C176.13944,12.50136 176.286,12.4956 176.398,12.486 C176.538,12.474 176.644,12.438 176.716,12.378 C176.788,12.318 176.834,12.23 176.854,12.114 C176.874,11.998 176.884,11.836 176.884,11.628 C176.884,11.236 176.84,10.88 176.752,10.56 C176.664,10.24 176.52,9.966 176.32,9.738 C176.12,9.51 175.858,9.334 175.534,9.21 C175.21,9.086 174.816,9.024 174.352,9.024 C173.384,9.024 172.682,9.27 172.246,9.762 C171.81,10.254 171.592,11.028 171.592,12.084 C171.592,13.164 171.836,13.944 172.324,14.424 C172.812,14.904 173.596,15.144 174.676,15.144 Z M175.924,11.772 L172.6,11.772 C172.616,11.14 172.762,10.648 173.038,10.296 C173.314,9.944 173.752,9.768 174.352,9.768 C174.936,9.768 175.344,9.95 175.576,10.314 C175.808,10.678 175.924,11.164 175.924,11.772 L175.924,11.772 Z M179.152,15 L179.152,11.496 C179.152,10.88 179.288,10.446 179.56,10.194 C179.832,9.942 180.268,9.816 180.868,9.816 C180.956,9.816 181.05,9.818 181.15,9.822 C181.25,9.826 181.34,9.836 181.42,9.852 L181.42,9.852 L181.42,9.06 C181.284,9.036 181.112,9.024 180.904,9.024 C180.456,9.024 180.066,9.102 179.734,9.258 C179.402,9.414 179.16,9.62 179.008,9.876 L179.008,9.876 L178.912,9.168 L178.6,9.168 C178.44,9.168 178.332,9.198 178.276,9.258 C178.22,9.318 178.192,9.404 178.192,9.516 L178.192,9.516 L178.192,15 L179.152,15 Z M184.312,15.144 C185.848,15.144 186.616,14.564 186.616,13.404 C186.616,13.012 186.532,12.706 186.364,12.486 C186.196,12.266 185.986,12.098 185.734,11.982 C185.482,11.866 185.21,11.78 184.918,11.724 C184.626,11.668 184.354,11.606 184.102,11.538 C183.85,11.47 183.64,11.374 183.472,11.25 C183.304,11.126 183.22,10.94 183.22,10.692 C183.22,10.404 183.328,10.178 183.544,10.014 C183.76,9.85 184.104,9.768 184.576,9.768 C185.184,9.768 185.764,9.856 186.316,10.032 L186.316,10.032 L186.316,9.576 C186.316,9.448 186.29,9.36 186.238,9.312 C186.186,9.264 186.068,9.216 185.884,9.168 C185.756,9.136 185.572,9.104 185.332,9.072 C185.092,9.04 184.816,9.024 184.504,9.024 C183.736,9.024 183.17,9.178 182.806,9.486 C182.442,9.794 182.26,10.2 182.26,10.704 C182.26,11.088 182.344,11.388 182.512,11.604 C182.68,11.82 182.888,11.986 183.136,12.102 C183.384,12.218 183.656,12.304 183.952,12.36 C184.248,12.416 184.52,12.48 184.768,12.552 C185.016,12.624 185.224,12.724 185.392,12.852 C185.56,12.98 185.644,13.172 185.644,13.428 C185.644,13.764 185.53,14.008 185.302,14.16 C185.074,14.312 184.72,14.388 184.24,14.388 C183.576,14.388 182.932,14.28 182.308,14.064 L182.308,14.064 L182.308,14.856 C182.908,15.048 183.576,15.144 184.312,15.144 Z M188.944,15 L188.944,11.496 C188.944,10.896 189.072,10.466 189.328,10.206 C189.584,9.946 190.012,9.816 190.612,9.816 C191.116,9.816 191.48,9.936 191.704,10.176 C191.928,10.416 192.04,10.812 192.04,11.364 L192.04,11.364 L192.04,15 L193,15 L193,11.328 C193,10.512 192.828,9.924 192.484,9.564 C192.14,9.204 191.572,9.024 190.78,9.024 C190.324,9.024 189.944,9.088 189.64,9.216 C189.336,9.344 189.104,9.5 188.944,9.684 L188.944,9.684 L188.944,6.552 L188.392,6.552 C188.232,6.552 188.124,6.582 188.068,6.642 C188.012,6.702 187.984,6.788 187.984,6.9 L187.984,6.9 L187.984,15 L188.944,15 Z M195.172,7.992 C195.588,7.992 195.796,7.792 195.796,7.392 C195.796,7.176 195.746,7.02 195.646,6.924 C195.546,6.828 195.388,6.78 195.172,6.78 C194.948,6.78 194.788,6.828 194.692,6.924 C194.596,7.02 194.548,7.176 194.548,7.392 C194.548,7.6 194.596,7.752 194.692,7.848 C194.788,7.944 194.948,7.992 195.172,7.992 Z M195.652,15 L195.652,9.168 L195.1,9.168 C194.94,9.168 194.832,9.198 194.776,9.258 C194.72,9.318 194.692,9.404 194.692,9.516 L194.692,9.516 L194.692,15 L195.652,15 Z M198.304,17.496 L198.304,14.508 C198.632,14.932 199.26,15.144 200.188,15.144 C201.06,15.144 201.692,14.904 202.084,14.424 C202.476,13.944 202.672,13.164 202.672,12.084 C202.672,11.004 202.476,10.224 202.084,9.744 C201.692,9.264 201.06,9.024 200.188,9.024 C199.684,9.024 199.27,9.086 198.946,9.21 C198.622,9.334 198.36,9.536 198.16,9.816 L198.16,9.816 L198.064,9.168 L197.752,9.168 C197.592,9.168 197.484,9.198 197.428,9.258 C197.372,9.318 197.344,9.404 197.344,9.516 L197.344,9.516 L197.344,17.496 L198.304,17.496 Z M199.96,14.376 C199.6,14.376 199.312,14.334 199.096,14.25 C198.88,14.166 198.714,14.048 198.598,13.896 C198.482,13.744 198.404,13.566 198.364,13.362 C198.324,13.158 198.304,12.94 198.304,12.708 L198.304,12.708 L198.304,11.496 C198.304,11.256 198.324,11.03 198.364,10.818 C198.404,10.606 198.484,10.424 198.604,10.272 C198.724,10.12 198.892,10 199.108,9.912 C199.324,9.824 199.608,9.78 199.96,9.78 C200.576,9.78 201.018,9.96 201.286,10.32 C201.554,10.68 201.688,11.268 201.688,12.084 C201.688,12.9 201.554,13.486 201.286,13.842 C201.018,14.198 200.576,14.376 199.96,14.376 Z M208.948,15 L210.292,10.2 L210.34,10.2 L211.672,15 L212.764,15 L214.564,9.168 L213.988,9.168 C213.836,9.168 213.726,9.188 213.658,9.228 C213.59,9.268 213.536,9.356 213.496,9.492 L213.496,9.492 L212.224,13.968 L212.176,13.968 L210.844,9.168 L209.788,9.168 L208.444,13.968 L208.396,13.968 L207.04,9.168 L206.068,9.168 L207.856,15 L208.948,15 Z M216.256,7.992 C216.672,7.992 216.88,7.792 216.88,7.392 C216.88,7.176 216.83,7.02 216.73,6.924 C216.63,6.828 216.472,6.78 216.256,6.78 C216.032,6.78 215.872,6.828 215.776,6.924 C215.68,7.02 215.632,7.176 215.632,7.392 C215.632,7.6 215.68,7.752 215.776,7.848 C215.872,7.944 216.032,7.992 216.256,7.992 Z M216.736,15 L216.736,9.168 L216.184,9.168 C216.024,9.168 215.916,9.198 215.86,9.258 C215.804,9.318 215.776,9.404 215.776,9.516 L215.776,9.516 L215.776,15 L216.736,15 Z M220.864,15.144 C221.064,15.144 221.242,15.136 221.398,15.12 C221.554,15.104 221.684,15.084 221.788,15.06 L221.788,15.06 L221.788,14.328 C221.7,14.344 221.594,14.356 221.47,14.364 C221.346,14.372 221.192,14.376 221.008,14.376 C220.616,14.376 220.334,14.286 220.162,14.106 C219.99,13.926 219.904,13.628 219.904,13.212 L219.904,13.212 L219.904,9.924 L221.596,9.924 L221.596,9.168 L219.904,9.168 L219.904,7.224 L219.352,7.224 C219.192,7.224 219.084,7.254 219.028,7.314 C218.972,7.374 218.944,7.46 218.944,7.572 L218.944,7.572 L218.944,9.168 L218.092,9.312 C217.98,9.328 217.908,9.354 217.876,9.39 C217.844,9.426 217.828,9.488 217.828,9.576 L217.828,9.576 L217.828,9.924 L218.944,9.924 L218.944,13.248 C218.944,13.92 219.094,14.404 219.394,14.7 C219.694,14.996 220.184,15.144 220.864,15.144 Z M223.852,15 L223.852,11.496 C223.852,10.896 223.98,10.466 224.236,10.206 C224.492,9.946 224.92,9.816 225.52,9.816 C226.024,9.816 226.388,9.936 226.612,10.176 C226.836,10.416 226.948,10.812 226.948,11.364 L226.948,11.364 L226.948,15 L227.908,15 L227.908,11.328 C227.908,10.512 227.736,9.924 227.392,9.564 C227.048,9.204 226.48,9.024 225.688,9.024 C225.232,9.024 224.852,9.088 224.548,9.216 C224.244,9.344 224.012,9.5 223.852,9.684 L223.852,9.684 L223.852,6.552 L223.3,6.552 C223.14,6.552 223.032,6.582 222.976,6.642 C222.92,6.702 222.892,6.788 222.892,6.9 L222.892,6.9 L222.892,15 L223.852,15 Z" id="inpartnershipwith" fill="#3C4752" fill-rule="nonzero"></path>
            <g id="Components-/-Divider-/-Horizontal-/-Grey" transform="translate(116.500000, 25.500000) scale(1, -1) rotate(90.000000) translate(-116.500000, -25.500000) translate(91.000000, 12.500000)" fill="#C8C9C7">
                <rect id="Rectangle" x="0" y="12.5" width="51" height="1"></rect>
            </g>
            <g id="bordGaisEnergy.logo">
                <g id="g7248" transform="translate(51.500000, 24.500000) scale(-1, 1) rotate(-180.000000) translate(-51.500000, -24.500000) ">
                    <g id="g7250-Clipped">
                        <mask id="mask-2" fill="white">
                            <use xlink:href="#path-1"></use>
                        </mask>
                        <g id="path7252"></g>
                        <g id="g7250" mask="url(#mask-2)">
                            <g transform="translate(1.000000, 3.421713)">
                                <g id="g7256" transform="translate(35.633073, 25.604850)">
                                    <path d="M5.08641973,6.84342605 C6.27155553,6.84342605 7.07690532,7.31391159 7.097251,8.28225637 L7.09894647,8.31305179 C7.1159012,9.14623891 6.46653495,9.66120672 5.27970368,9.66120672 L2.62289711,9.66120672 L2.56355554,6.84342605 L5.08641973,6.84342605 Z M5.53402467,2.35927113 C6.79376129,2.35927113 7.57028803,2.86055209 7.59063371,3.81521002 L7.59232918,3.84429458 C7.60928392,4.73736168 6.91413989,5.2677272 5.45942384,5.2677272 L2.53134155,5.2677272 L2.47030452,2.35927113 L5.53402467,2.35927113 Z M0.82060905,10.3746339 C0.830781889,10.9032885 1.24786831,11.3138941 1.77176954,11.3138941 L5.55437035,11.3138941 C6.7547654,11.3138941 7.69575305,10.9802771 8.28238679,10.3746339 C8.7384691,9.90414835 8.96566251,9.32930056 8.95209873,8.61758425 L8.95209873,8.58507798 C8.92497115,7.31391159 8.18913577,6.63127984 7.40074071,6.22238513 C8.62317692,5.79980357 9.46413165,5.08466555 9.4353086,3.64754608 L9.43361313,3.61675067 C9.39292177,1.72283251 7.82630449,0.708294596 5.48316047,0.708294596 L1.55135802,0.708294596 C1.02576131,0.708294596 0.629020573,1.11547845 0.639193413,1.64755482 L0.82060905,10.3746339 Z" id="path7258" fill="#1E2C52" fill-rule="nonzero"></path>
                                </g>
                                <g id="g7260" transform="translate(45.782006, 26.135048)">
                                    <path d="M6.78189297,4.13256954 L6.78358845,4.16336495 C6.81241149,5.57139986 5.83073248,6.738204 4.40314401,6.738204 C2.9467325,6.738204 1.99387653,5.58679757 1.96335802,4.19244951 L1.96335802,4.16336495 C1.93453497,2.76730604 2.91621398,1.60221275 4.32854319,1.60221275 C5.79851849,1.60221275 6.75306993,2.75361919 6.78189297,4.13256954 M0.147506172,4.13256954 L0.147506172,4.16336495 C0.19328395,6.45078011 2.03456789,8.34298741 4.467572,8.34298741 C6.89888063,8.34298741 8.64691354,6.47986467 8.59944029,4.19244951 L8.59944029,4.16336495 C8.55366251,1.88963665 6.7106831,-0.00428151015 4.26411521,-0.00428151015 C1.84637036,-0.00428151015 0.100032921,1.85884123 0.147506172,4.13256954" id="path7262" fill="#1E2C52" fill-rule="nonzero"></path>
                                </g>
                                <g id="g7264" transform="translate(55.269366, 26.207927)">
                                    <path d="M0.423868305,7.27114017 C0.434041145,7.78610798 0.832477357,8.19500269 1.34451028,8.19500269 C1.85315225,8.19500269 2.25158846,7.78610798 2.23972015,7.27114017 L2.22276542,6.4516399 C2.66528393,7.45249096 3.46046088,8.21040039 4.25563784,8.21040039 C4.82701232,8.21040039 5.14915223,7.83230111 5.13728392,7.30193559 C5.12711108,6.81605234 4.80666664,6.49783303 4.39805759,6.42255534 C3.1044115,6.19501142 2.19733332,5.19587122 2.15833743,3.30195306 L2.10916871,0.937549363 C2.09899587,0.439690118 1.6853004,0.0273736985 1.17496295,0.0273736985 C0.678189292,0.0273736985 0.281448553,0.422581553 0.293316865,0.937549363 L0.423868305,7.27114017 Z" id="path7266" fill="#1E2C52" fill-rule="nonzero"></path>
                                </g>
                                <g id="g7268" transform="translate(60.309838, 25.195613)">
                                    <path d="M2.11934155,5.13256954 L2.11764608,5.10177412 C2.08712756,3.55687069 3.11627982,2.54233278 4.34719339,2.54233278 C5.56284771,2.54233278 6.66490531,3.5722684 6.69542383,5.10177412 L6.69711931,5.13256954 C6.73102877,6.67918382 5.66966252,7.69201088 4.45400821,7.69201088 C3.20783537,7.69201088 2.15155554,6.72195523 2.11934155,5.13256954 M8.41802465,1.95037642 C8.40615634,1.43369776 7.99415634,1.04020076 7.49907815,1.04020076 C6.98704523,1.04020076 6.59030449,1.43369776 6.60047733,1.95037642 L6.61234564,2.44994652 C6.01045264,1.61847026 5.16949791,0.951236221 3.87924278,0.951236221 C2.01761315,0.951236221 0.230584355,2.44994652 0.286534973,5.10177412 L0.286534973,5.13256954 C0.34248559,7.78268627 2.16003291,9.28139658 4.05048557,9.28139658 C5.35599997,9.28139658 6.16982713,8.6312711 6.72424688,7.87507252 L6.79545675,11.3446895 C6.80732507,11.8596573 7.22102054,12.2531543 7.71609873,12.2531543 C8.22643617,12.2531543 8.62487238,11.8596573 8.61300407,11.3446895 L8.41802465,1.95037642 Z" id="path7270" fill="#1E2C52" fill-rule="nonzero"></path>
                                </g>
                                <g id="g7272" transform="translate(72.647797, 26.025549)">
                                    <path d="M1.17954691e-14,5.56028366 L0.00169547324,5.59107907 C0.0610370368,8.55941512 2.36688065,11.0743742 5.53402467,11.0743742 C7.10911931,11.0743742 8.15353083,10.694564 9.10130037,9.99824545 C9.27762959,9.86308778 9.46582712,9.60474845 9.45904523,9.24033601 C9.44887239,8.74076591 9.03517691,8.3164735 8.52483947,8.3164735 C8.28408227,8.3164735 8.10605758,8.4225466 7.9585514,8.52861971 C7.29392589,9.02818981 6.5648724,9.36180683 5.42212343,9.36180683 C3.48758846,9.36180683 1.98031275,7.65095031 1.93792592,5.62016364 L1.93792592,5.59107907 C1.89214814,3.40802617 3.28413167,1.8015319 5.43229627,1.8015319 C6.42414812,1.8015319 7.32953083,2.11975121 7.98567898,2.60563446 L8.02637033,4.59022802 L5.9561975,4.59022802 C5.50520162,4.59022802 5.13728393,4.93924274 5.14576129,5.39433058 C5.15423866,5.84941841 5.53911109,6.21040913 5.98671602,6.21040913 L8.91818926,6.21040913 C9.44209049,6.21040913 9.83883123,5.80322528 9.82865839,5.27114891 L9.76931683,2.43968138 C9.75744852,1.907605 9.53873247,1.53121657 9.0996049,1.25747953 C8.18574482,0.650125469 6.91244441,0.106073098 5.3356543,0.106073098 C2.04813168,0.106073098 -0.0644279833,2.46876594 1.17954691e-14,5.56028366" id="path7274" fill="#1E2C52" fill-rule="nonzero"></path>
                                </g>
                                <g id="g7276" transform="translate(83.267733, 25.304594)">
                                    <path d="M3.81481479,10.2651391 C3.81820574,10.3712122 3.88093825,10.5080807 3.94027981,10.6004669 L4.82362137,11.9332242 C4.99486417,12.2052504 5.23901232,12.3712034 5.55606581,12.3712034 C6.03588474,12.3712034 6.63099585,12.0683818 6.62421396,11.7809579 C6.62082301,11.613294 6.51231272,11.4627386 6.35802466,11.3258701 L5.33395882,10.3575253 C4.96604112,10.0221974 4.67781067,9.94691976 4.25733331,9.94691976 C4.00301232,9.94691976 3.81142385,10.0683906 3.81481479,10.2651391 M5.81377775,3.88535514 L5.82395059,4.43282922 C5.36447734,4.61246916 4.75071602,4.75104853 4.03013989,4.75104853 C2.86026336,4.75104853 2.15833743,4.25147843 2.1413827,3.41658045 L2.13968723,3.38749589 C2.12442797,2.61418875 2.79074895,2.17449863 3.6622222,2.17449863 C4.86092178,2.17449863 5.79343207,2.87252808 5.81377775,3.88535514 M0.367917688,3.31221821 L0.367917688,3.34130277 C0.4052181,5.06926784 1.75820575,5.91614182 3.69274072,5.91614182 C4.57947323,5.91614182 5.20679833,5.78098415 5.81886417,5.58423565 L5.82395059,5.78098415 C5.84768721,6.91699288 5.16949791,7.52263608 3.89280656,7.52263608 C3.20105348,7.52263608 2.629679,7.40287613 2.12951439,7.20441677 C2.02439505,7.17362135 1.93453497,7.1599345 1.84297941,7.1599345 C1.42419752,7.1599345 1.08679834,7.49184067 1.09358024,7.91784394 C1.10036213,8.25146096 1.33264196,8.53888485 1.60391768,8.6432471 C2.36179422,8.93067099 3.1298436,9.11373264 4.16577775,9.11373264 C5.35091355,9.11373264 6.23255964,8.79551333 6.77511108,8.22066554 C7.34818103,7.64410689 7.60080654,6.79552206 7.57876539,5.74847788 L7.49738268,1.81008619 C7.48720984,1.31051609 7.08877363,0.932416799 6.59369544,0.932416799 C6.06809873,0.932416799 5.7154403,1.29511838 5.72222219,1.70572394 L5.73069956,2.00854554 C5.17627981,1.35670921 4.33871602,0.841741404 3.12306171,0.841741404 C1.63782715,0.841741404 0.334008223,1.70572394 0.367917688,3.31221821" id="path7278" fill="#1E2C52" fill-rule="nonzero"></path>
                                </g>
                                <g id="g7280" transform="translate(92.081142, 26.199372)">
                                    <path d="M0.423868305,10.2651391 C0.435736618,10.8091914 0.893514394,11.1582062 1.47845266,11.1582062 C2.06339093,11.1582062 2.50590945,10.8091914 2.49573661,10.2651391 L2.49404114,10.1727528 C2.4838683,9.62698959 2.02439505,9.26428801 1.43945678,9.26428801 C0.854518509,9.26428801 0.411999993,9.62698959 0.422172832,10.1727528 L0.423868305,10.2651391 Z M0.498469128,7.27969446 C0.508641967,7.79466227 0.905382706,8.20355697 1.41741563,8.20355697 C1.92775307,8.20355697 2.32449381,7.79466227 2.31432097,7.27969446 L2.18376953,0.947814508 C2.17359669,0.431135841 1.75820575,0.0376388433 1.2478683,0.0376388433 C0.752790114,0.0376388433 0.356049375,0.431135841 0.366222215,0.947814508 L0.498469128,7.27969446 Z" id="path7282" fill="#1E2C52" fill-rule="nonzero"></path>
                                </g>
                                <g id="g7284" transform="translate(95.310171, 25.403824)">
                                    <path d="M0.423868305,1.71085651 C0.230584355,1.81692962 0.0847736565,2.04618439 0.0915555495,2.34900599 C0.100032916,2.75618984 0.422172832,3.09151772 0.842650196,3.09151772 C0.993547315,3.09151772 1.12918517,3.04532459 1.23091357,2.98373376 C1.98539916,2.46876595 2.77718517,2.21213747 3.4977613,2.21213747 C4.27767899,2.21213747 4.73545676,2.54404363 4.7456296,3.07612001 L4.7456296,3.10691543 C4.76088886,3.72624548 3.92332508,3.93839169 2.99759669,4.22752644 C1.83450204,4.56114346 0.537465013,5.04531585 0.571374477,6.57653243 L0.571374477,6.60561699 C0.601892996,8.119725 1.86671604,9.04529838 3.44350615,9.04529838 C4.28446088,9.04529838 5.16610697,8.80235675 5.92228803,8.39346205 C6.17491355,8.25659353 6.34954729,8.0136519 6.3427654,7.69714345 C6.33428803,7.27456189 5.99858433,6.95463172 5.57641149,6.95463172 C5.42720985,6.95463172 5.33734976,6.98371628 5.21866664,7.04530712 C4.5811687,7.37892414 3.92502055,7.59107034 3.36890533,7.59107034 C2.66358846,7.59107034 2.25158846,7.25574247 2.24141562,6.80407635 L2.24141562,6.77157007 C2.22954731,6.18132458 3.0789794,5.93838295 4.0047078,5.63556135 C5.15254318,5.27285977 6.44788474,4.74249425 6.41736622,3.30195307 L6.41736622,3.27286851 C6.38176128,1.59109656 5.07285594,0.757909435 3.42316047,0.757909435 C2.41435389,0.757909435 1.32755554,1.07612875 0.423868305,1.71085651" id="path7286" fill="#1E2C52" fill-rule="nonzero"></path>
                                </g>
                                <g id="g7288" transform="translate(35.958265, 12.990833)">
                                    <path d="M-6.24611555e-13,0.66830332 L0.194979423,10.0609056 C0.203456789,10.3945226 0.478123455,10.6682596 0.793481478,10.6682596 L7.32444441,10.6682596 C7.62454318,10.6682596 7.86021396,10.425318 7.85343206,10.1224964 C7.84665017,9.8196748 7.60250202,9.57673318 7.30070779,9.57673318 L1.36994238,9.57673318 L1.29534156,5.9565608 L6.55130861,5.9565608 C6.8497119,5.9565608 7.08538268,5.69822146 7.08029626,5.41079757 C7.0718189,5.10626511 6.82767075,4.86332349 6.52757199,4.86332349 L1.27160493,4.86332349 L1.19700411,1.15247571 L7.20067487,1.15247571 C7.50077363,1.15247571 7.73644441,0.911244945 7.72966252,0.608423342 C7.7245761,0.303890883 7.48042795,0.0609492586 7.17863371,0.0609492586 L0.573069956,0.0609492586 C0.257711933,0.0609492586 -0.00678189297,0.332975444 -6.24611555e-13,0.66830332" id="path7290" fill="#1E2C52" fill-rule="nonzero"></path>
                                </g>
                                <g id="g7292" transform="translate(44.936474, 12.859781)">
                                    <path d="M0.423868305,7.51172937 C0.430650198,7.82823782 0.691753078,8.10368572 1.0071111,8.10368572 C1.33603291,8.10368572 1.58696295,7.84363553 1.58018106,7.51172937 L1.56322632,6.66143368 C2.0905185,7.51172937 2.9145185,8.19265026 4.25224689,8.19265026 C6.1274403,8.19265026 7.19728391,6.91977301 7.15828803,5.05665027 L7.06842795,0.70765302 C7.06164605,0.375746857 6.80054317,0.117407523 6.48518515,0.117407523 C6.15626334,0.117407523 5.9053333,0.375746857 5.91211519,0.70765302 L5.99688886,4.76922638 C6.02740737,6.22174356 5.26444442,7.13191922 3.89789298,7.13191922 C2.56355554,7.13191922 1.55135801,6.14646587 1.52083949,4.67684013 L1.43945678,0.70765302 C1.43267489,0.375746857 1.18513579,0.117407523 0.856213982,0.117407523 C0.5255967,0.117407523 0.276362133,0.375746857 0.283144026,0.70765302 L0.423868305,7.51172937 Z" id="path7294" fill="#1E2C52" fill-rule="nonzero"></path>
                                </g>
                                <g id="g7296" transform="translate(52.854503, 12.268210)">
                                    <path d="M6.78189297,5.13256954 C6.69203289,6.55600215 5.90702878,7.79979484 4.35906171,7.79979484 C3.00776953,7.79979484 1.96505349,6.66207526 1.78363785,5.13256954 L6.78189297,5.13256954 Z M4.3912757,0.602221492 C2.26006583,0.602221492 0.551028804,2.25319803 0.603588475,4.6774817 L0.603588475,4.70827712 C0.649366252,6.96660772 2.26345678,8.78524819 4.40992591,8.78524819 C6.70559668,8.78524819 7.97550614,6.89133003 7.93142383,4.81435022 C7.92464194,4.49613091 7.66523453,4.27029785 7.37869956,4.27029785 L1.76329217,4.27029785 C1.89384361,2.57312819 3.0603292,1.61847026 4.4421399,1.61847026 C5.40177775,1.61847026 6.11726746,1.99656955 6.69711931,2.52693507 C6.78867487,2.6005019 6.89548968,2.66380359 7.03112754,2.66380359 C7.31596705,2.66380359 7.53807404,2.43625967 7.53129215,2.16252263 C7.5279012,2.02736497 7.46516869,1.89049645 7.34139914,1.78442334 C6.59369544,1.07270703 5.71204936,0.602221492 4.3912757,0.602221492" id="path7298" fill="#1E2C52" fill-rule="nonzero"></path>
                                </g>
                                <g id="g7300" transform="translate(61.871708, 12.859781)">
                                    <path d="M0.423868305,7.51172937 C0.428954725,7.82823782 0.691753078,8.10368572 1.00541563,8.10368572 C1.33603291,8.10368572 1.58526748,7.84363553 1.57848558,7.51172937 L1.54796707,6.04210362 C2.14646912,7.34406543 3.28752261,8.13277028 4.2641152,8.13277028 C4.60829627,8.13277028 4.82870779,7.87443095 4.8219259,7.54252478 C4.81683948,7.22259462 4.5998189,6.9950507 4.29972014,6.95056843 C2.79583537,6.76921764 1.5394897,5.63320892 1.49371192,3.37658918 L1.43945678,0.70765302 C1.43097941,0.389433709 1.18513579,0.117407523 0.854518509,0.117407523 C0.5255967,0.117407523 0.27466666,0.375746857 0.283144026,0.70765302 L0.423868305,7.51172937 Z" id="path7302" fill="#1E2C52" fill-rule="nonzero"></path>
                                </g>
                                <g id="g7304" transform="translate(66.889801, 10.496960)">
                                    <path d="M6.78189297,6.84342605 L6.78358845,6.87422146 C6.81580244,8.47900487 5.45772837,9.5243382 3.98436212,9.5243382 C2.51438682,9.5243382 1.27669135,8.49440258 1.24278189,6.88961917 L1.24278189,6.85882376 C1.2105679,5.28312491 2.4330041,4.19330931 3.87415636,4.19330931 C5.34582714,4.19330931 6.74967898,5.2677272 6.78189297,6.84342605 M0.581547323,1.02480305 C0.403522632,1.11547845 0.286534978,1.29854009 0.291621398,1.5106863 C0.296707818,1.76731478 0.557810697,2.02394325 0.827390943,2.02394325 C0.932510284,2.02394325 1.00541563,1.99656955 1.08001646,1.95037642 C1.88027983,1.4046132 2.80431274,1.10179159 3.80972838,1.10179159 C5.52046088,1.10179159 6.65134153,2.05644953 6.69033742,3.88877685 L6.70898762,4.81435022 C6.01384359,3.90588542 5.05420574,3.16337369 3.62831274,3.16337369 C1.76668312,3.16337369 0.00847736622,4.5714086 0.055950617,6.82802834 L0.0576460903,6.85882376 C0.103423868,9.14623891 1.93453497,10.5559847 3.78090533,10.5559847 C5.23731685,10.5559847 6.16813166,9.8271598 6.78189297,8.98028583 L6.79884771,9.87506379 C6.8056296,10.1932831 7.05147322,10.4653093 7.3820905,10.4653093 C7.71440326,10.4653093 7.96024688,10.1932831 7.95523796,9.87506379 L7.83308638,3.91957227 C7.80595881,2.70828586 7.42786828,1.78271249 6.78528392,1.14798472 C6.07827158,0.449955263 5.03725101,0.100940534 3.80464196,0.100940534 C2.61950616,0.100940534 1.54457612,0.417448989 0.581547323,1.02480305" id="path7306" fill="#1E2C52" fill-rule="nonzero"></path>
                                </g>
                                <g id="g7308" transform="translate(76.054512, 10.382675)">
                                    <path d="M0.423868305,0.427714122 C0.245843615,0.504702665 0.0695143973,0.655258038 0.0728572082,0.927284224 C0.0796872368,1.21470812 0.325530857,1.42856518 0.581547317,1.42856518 C0.683275711,1.42856518 0.774831267,1.39776976 0.864691349,1.36697435 C1.08679834,1.29169666 1.31060081,1.23010583 1.70225513,1.23010583 C2.42283126,1.23010583 2.85009052,1.67150681 3.29260903,2.62445388 L3.35534154,2.7459247 L0.256016454,9.68515871 C0.213629623,9.79123181 0.184806578,9.89730491 0.186502051,10.003378 C0.194979417,10.3198865 0.456082297,10.5799367 0.785004106,10.5799367 C1.10036213,10.5799367 1.26143209,10.3831882 1.35976954,10.1265597 L3.93519339,3.97260881 L6.46653495,10.1385357 C6.55978597,10.3831882 6.7293333,10.5799367 7.02943206,10.5799367 C7.34479009,10.5799367 7.59402465,10.3198865 7.58893823,10.003378 C7.58724276,9.91270262 7.55502877,9.80662952 7.52281478,9.71424327 L4.33702055,2.41401853 C3.62831274,0.790415703 2.86874072,0.201881063 1.69547324,0.201881063 C1.18344032,0.201881063 0.810436205,0.292556458 0.423868305,0.427714122" id="path7310" fill="#1E2C52" fill-rule="nonzero"></path>
                                </g>
                                <g id="g7312" transform="translate(9.643564, 12.310297)">
                                    <path d="M2.35054245,0 C1.78594986,0 1.39090459,0.335327876 1.14167002,1.02651391 C-0.619926676,5.87508126 -0.311350546,11.4165455 2.03518442,17.0538177 C4.25286343,22.3865575 8.27283049,27.6132241 13.3592502,31.7688946 C14.479958,32.6876245 15.5328469,33.2128575 16.2466412,33.2128575 C16.6026905,33.2128575 16.8773572,33.0845432 17.0842049,32.824493 C19.7359251,29.486612 21.0956946,25.5944134 21.1279086,21.2539704 C21.1567317,17.1325171 20.0004189,12.817737 17.6860979,8.42767918 C16.8739663,6.88961917 14.705456,3.92299398 12.3114478,3.70913692 C12.2385424,3.70229349 12.169028,3.69887178 12.1012091,3.69887178 C11.6909045,3.69887178 11.4196288,3.81863173 11.2721227,4.06841678 C10.8414725,4.79210909 11.3958922,6.53718273 11.9265753,7.54316636 C14.6274642,12.6654708 14.4562214,18.2000916 11.4450609,23.13078 L11.2059992,23.524277 L10.9143778,23.166708 C6.90967,18.2291761 5.46173585,11.4901123 7.30980168,6.39518164 C7.58616382,5.63556135 7.1690774,4.31135841 6.21961239,2.93925149 C5.04125848,1.2352384 3.4119087,0 2.35054245,0" id="path7314" fill="#1E2C52" fill-rule="nonzero"></path>
                                </g>
                                <g id="g7316" transform="translate(0.002533, 0.397090)">
                                    <path d="M35.6049381,0 L35.5676377,0 C28.5297283,0.136868521 22.0869299,2.51324822 16.9343868,6.87422146 L16.73093,7.04530712 L16.5240822,6.87935403 C12.0395555,3.30537478 6.8819259,1.09665902 1.19191769,0.314797598 C1.10714403,0.302821603 1.02406584,0.297689033 0.942683123,0.297689033 C0.37639506,0.297689033 0.0949465016,0.564582649 0.0542551438,1.14456301 C-0.055950617,2.706575 1.79889711,5.79296015 3.81311932,6.08038404 C8.82154729,6.87764318 13.2009547,8.97515326 16.4850863,12.1453704 C16.9784691,12.6226993 17.9431933,13.4216693 18.8621398,13.4216693 C19.2588806,13.4216693 19.6064526,13.2728248 19.9235061,12.9700032 C24.6776131,8.37464263 31.018683,5.8733704 38.2617447,5.73136931 C39.0637035,5.71768246 39.4519669,5.31734204 39.4436254,4.50981777 C39.4265348,2.85370866 37.5242138,0 35.6049381,0" id="path7318" fill="#5DB2DF" fill-rule="nonzero"></path>
                                </g>
                            </g>
                        </g>
                    </g>
                </g>
            </g>
        </g>
    </g>
</svg>