<?xml version="1.0" encoding="UTF-8"?>
<svg width="247px" height="51px" viewBox="0 0 247 51" version="1.1" xmlns="http://www.w3.org/2000/svg" xmlns:xlink="http://www.w3.org/1999/xlink">
    <!-- Generator: Sketch 63.1 (92452) - https://sketch.com -->
    <title>British Gas</title>
    <desc>Created with Sketch.</desc>
    <defs>
        <path d="M8.14278091,5.59105612 C8.14278091,5.59105612 4.48226472,6.89308289 2.4652456,8.65464851 C1.19527059,9.72690585 0.298817648,11.1821122 2.62243822e-15,12.7904982 C1.41938383,12.0246001 2.83876766,11.4884715 2.83876766,11.4884715 L16.136153,7.04626251 C16.136153,7.04626251 16.6590839,17.3858868 10.6827309,21.9046856 C12.4009324,21.5217366 14.4179515,20.8324283 16.6590839,19.4538117 C25.4742045,14.3988842 24.7271604,0 24.7271604,0 L8.14278091,5.59105612 Z" id="path-1"></path>
        <linearGradient x1="59.394431%" y1="70.6678617%" x2="43.1097342%" y2="34.8139475%" id="linearGradient-3">
            <stop stop-color="#2BACE2" offset="0%"></stop>
            <stop stop-color="#1877BB" offset="42.07%"></stop>
            <stop stop-color="#0751A0" offset="80%"></stop>
            <stop stop-color="#1F4799" offset="86.08%"></stop>
            <stop stop-color="#2B3B92" offset="94.41%"></stop>
            <stop stop-color="#2E368F" offset="100%"></stop>
        </linearGradient>
        <path d="M2.09730769,1.23271091 C0.749038462,2.46542183 0,4.27339783 0,6.24573529 C0,9.94386803 2.99615385,12.9023742 6.66644231,12.9023742 L6.66644231,12.9023742 C8.46413462,12.984555 10.71125,12.3271091 13.5575962,10.6013139 C13.9321154,10.3547717 14.2317308,10.1082295 14.60625,9.86168731 C13.7074038,10.0260488 12.8085577,10.1082295 12.0595192,10.1082295 L12.0595192,10.1082295 C7.49038462,10.1082295 3.74519231,6.41009675 3.74519231,1.80797601 C3.74519231,1.23271091 3.82009615,0.575265093 3.895,5.37164298e-16 C3.14596154,0.410903638 2.54673077,0.821807276 2.09730769,1.23271091" id="path-4"></path>
        <linearGradient x1="28.5838469%" y1="35.1971094%" x2="73.4675063%" y2="66.0119961%" id="linearGradient-6">
            <stop stop-color="#D6E042" offset="0%"></stop>
            <stop stop-color="#97B543" offset="29.4%"></stop>
            <stop stop-color="#5C9642" offset="62.71%"></stop>
            <stop stop-color="#2C8541" offset="87.2%"></stop>
            <stop stop-color="#048040" offset="100%"></stop>
        </linearGradient>
    </defs>
    <g id="Page-1" stroke="none" stroke-width="1" fill="none" fill-rule="evenodd">
        <g id="British-Gas">
            <g id="Group-3">
                <g id="Group-2" transform="translate(149.000000, 25.000000)" fill="#6633CC" fill-rule="nonzero">
                    <path d="M25.7582027,12.0912286 L22.9684337,12.0912286 L22.9684337,20 L25.7582027,20 L25.7582027,12.0912286 Z M0,20 L9.57800469,20 L9.57800469,17.3763917 L2.90127887,17.3763917 L2.90127887,14.6198975 L8.72218087,14.6198975 L8.72218087,12.0912286 L2.90127887,12.0912286 L2.90127887,9.35378136 L9.3730403,9.35378136 L9.3730403,6.71127364 L0,6.71127364 L0,20 Z M11.8654015,20 L14.6553149,20 L14.6553149,6.71127364 L11.8654015,6.71127364 L11.8654015,20 Z M17.4455172,20 L20.2355752,20 L20.2355752,6.71127364 L17.4455172,6.71127364 L17.4455172,20 Z M26,6.67273676 C26,6.20424054 25.8419796,5.80779795 25.5259387,5.48459017 C25.2098976,5.16123476 24.8219243,5 24.3630293,5 C23.9047121,5 23.517172,5.16123476 23.2008423,5.48459017 C22.8848013,5.80765029 22.7266364,6.20424054 22.7266364,6.67273676 C22.7266364,7.14167596 22.8849457,7.53767559 23.2008423,7.86103101 C23.5170276,8.18423877 23.9047121,8.34562119 24.3630293,8.34562119 C24.8219243,8.34562119 25.2097532,8.18423877 25.5259387,7.86103101 C25.842124,7.53782324 26,7.14167596 26,6.67273676 Z" id="Shape"></path>
                    <path d="M37.0515733,8.9736111 C37.4374342,8.9736111 37.7514681,8.64803332 37.7514681,8.24777776 C37.7514681,7.84795555 37.4374342,7.52252222 37.0515733,7.52252222 C36.6657125,7.52252222 36.3522354,7.84795555 36.3522354,8.24777776 C36.3522354,8.64803332 36.6657125,8.9736111 37.0515733,8.9736111 Z M35.7591066,4.41494444 C35.8618358,4.41494444 35.9456339,4.32813332 35.9456339,4.22153333 C35.9456339,4.11392222 35.8618358,4.02638889 35.7591066,4.02638889 C35.6552639,4.02638889 35.5709091,4.11377777 35.5709091,4.22153333 C35.5710483,4.32827778 35.6552639,4.41494444 35.7591066,4.41494444 Z M37.0515733,6.20995556 C37.3955352,6.20995556 37.6749084,5.91962222 37.6749084,5.56284444 C37.6749084,5.2062111 37.3955352,4.91616666 37.0515733,4.91616666 C36.7081684,4.91616666 36.4285168,5.2062111 36.4285168,5.56284444 C36.428656,5.91962222 36.7083076,6.20995556 37.0515733,6.20995556 Z M35.7577147,7.39382221 C36.0178784,7.39382221 36.2297399,7.1747 36.2297399,6.9056 C36.2297399,6.63606666 36.0180176,6.41665555 35.7577147,6.41665555 C35.4982469,6.41665555 35.2872206,6.63606666 35.2872206,6.9056 C35.2873598,7.17484444 35.4982469,7.39382221 35.7577147,7.39382221 Z M38.3458497,4.78876666 C38.6470772,4.78876666 38.8927642,4.53382222 38.8927642,4.22066666 C38.8927642,3.90779999 38.6470772,3.65328889 38.3458497,3.65328889 C38.0443436,3.65328889 37.7987959,3.90779999 37.7987959,4.22066666 C37.7989351,4.53396666 38.0443436,4.78876666 38.3458497,4.78876666 Z M37.0515733,3.18066666 C37.2129055,3.18066666 37.343753,3.04517778 37.343753,2.87877777 C37.343753,2.71223332 37.2130447,2.5766 37.0515733,2.5766 C36.8917724,2.5766 36.7613425,2.71208888 36.7613425,2.87877777 C36.7613425,3.04517778 36.8917724,3.18066666 37.0515733,3.18066666 Z M38.3458497,1.83776667 C38.505929,1.83776667 38.6362197,1.70256666 38.6362197,1.53645555 C38.6362197,1.37005555 38.505929,1.23456667 38.3458497,1.23456667 C38.1850743,1.23456667 38.0540876,1.37005555 38.0540876,1.53645555 C38.0542269,1.70256666 38.1850743,1.83776667 38.3458497,1.83776667 Z M38.3458497,7.47283333 C38.6470772,7.47283333 38.8927642,7.21846666 38.8927642,6.9056 C38.8927642,6.59258889 38.6470772,6.33822221 38.3458497,6.33822221 C38.0443436,6.33822221 37.7987959,6.59258889 37.7987959,6.9056 C37.7989351,7.2186111 38.0443436,7.47283333 38.3458497,7.47283333 Z M34.4649695,8.73643333 C34.7245765,8.73643333 34.9354637,8.51716666 34.9354637,8.24763332 C34.9354637,7.97867778 34.7245765,7.75955554 34.4649695,7.75955554 C34.2048058,7.75955554 33.9930835,7.97867778 33.9930835,8.24763332 C33.9932227,8.5173111 34.2048058,8.73643333 34.4649695,8.73643333 L34.4649695,8.73643333 Z M31.8783658,11.2344555 C32.0381667,11.2344555 32.1685966,11.0991111 32.1685966,10.9324222 C32.1685966,10.7661667 32.0381667,10.6305333 31.8783658,10.6305333 C31.7174513,10.6305333 31.5864645,10.7660222 31.5864645,10.9324222 C31.5866037,11.0992555 31.7174513,11.2344555 31.8783658,11.2344555 Z M33.1709717,9.92015555 C33.3467805,9.92015555 33.4900168,9.77224443 33.4900168,9.5898111 C33.4900168,9.4078111 33.3467805,9.2596111 33.1709717,9.2596111 C32.9958588,9.2596111 32.8533186,9.4078111 32.8533186,9.5898111 C32.8533186,9.77209999 32.995998,9.92015555 33.1709717,9.92015555 Z M35.7577147,10.3156444 C36.1434362,10.3156444 36.4571918,9.99006665 36.4571918,9.5898111 C36.4571918,9.18998888 36.1434362,8.86469998 35.7577147,8.86469998 C35.371993,8.86469998 35.0579591,9.18998888 35.0579591,9.5898111 C35.0579591,9.99006665 35.371993,10.3156444 35.7577147,10.3156444 Z M30.5843678,12.5766333 C30.7441687,12.5766333 30.8743203,12.4411444 30.8743203,12.2746 C30.8743203,12.1082 30.7441687,11.9727111 30.5843678,11.9727111 C30.4234533,11.9727111 30.2924667,12.1082 30.2924667,12.2746 C30.2926059,12.4412889 30.4234533,12.5766333 30.5843678,12.5766333 Z M34.4649695,5.75697777 C34.567838,5.75697777 34.6516359,5.66973333 34.6516359,5.5627 C34.6516359,5.45595555 34.567838,5.36914444 34.4649695,5.36914444 C34.3622403,5.36914444 34.2784424,5.45595555 34.2784424,5.5627 C34.2785816,5.66987777 34.3622403,5.75697777 34.4649695,5.75697777 Z M34.4649695,11.6584 C34.8508304,11.6584 35.1645859,11.3325333 35.1645859,10.9319889 C35.1645859,10.5321667 34.8508304,10.2067333 34.4649695,10.2067333 C34.0791088,10.2067333 33.7656316,10.5321667 33.7656316,10.9319889 C33.7656316,11.3325333 34.0791088,11.6584 34.4649695,11.6584 Z M38.8163437,9.5898111 C38.8163437,9.3207111 38.6051782,9.10173333 38.3458497,9.10173333 C38.0858251,9.10173333 37.8739635,9.3207111 37.8739635,9.5898111 C37.8739635,9.85934444 38.085686,10.0787556 38.3458497,10.0787556 C38.6053173,10.0786111 38.8163437,9.85934444 38.8163437,9.5898111 Z M37.0515733,11.6584 C37.4374342,11.6584 37.7514681,11.3325333 37.7514681,10.9319889 C37.7514681,10.5321667 37.4374342,10.2067333 37.0515733,10.2067333 C36.6657125,10.2067333 36.3522354,10.5321667 36.3522354,10.9319889 C36.3522354,11.3325333 36.6657125,11.6584 37.0515733,11.6584 Z M40.9327319,13.0746778 C41.3581253,13.0746778 41.7043143,12.7160222 41.7043143,12.2747444 C41.7043143,11.8336111 41.3581253,11.4749555 40.9327319,11.4749555 C40.5069208,11.4749555 40.160871,11.8336111 40.160871,12.2747444 C40.160871,12.7158778 40.50706,13.0746778 40.9327319,13.0746778 Z M35.7577147,11.5489111 C35.371993,11.5489111 35.0579591,11.8744889 35.0579591,12.2746 C35.0579591,12.6747111 35.371993,13.0002889 35.7577147,13.0002889 C36.1434362,13.0002889 36.4571918,12.6747111 36.4571918,12.2746 C36.4571918,11.8744889 36.1435754,11.5489111 35.7577147,11.5489111 Z M29.2902308,13.8109111 C29.3930991,13.8109111 29.4768972,13.7241 29.4768972,13.6167778 C29.4768972,13.5098889 29.3930991,13.4230778 29.2902308,13.4230778 C29.1875015,13.4230778 29.1037036,13.5098889 29.1037036,13.6167778 C29.1037036,13.7242444 29.1873623,13.8109111 29.2902308,13.8109111 Z M42.2265905,11.4603666 C42.5077734,11.4603666 42.7360604,11.2237667 42.7360604,10.9325667 C42.7360604,10.6416555 42.5076343,10.4049111 42.2265905,10.4049111 C41.9456861,10.4049111 41.7172598,10.6418 41.7172598,10.9325667 C41.7172598,11.2237667 41.9458253,11.4603666 42.2265905,11.4603666 Z M37.0515733,14.3434778 C37.4374342,14.3434778 37.7514681,14.0173222 37.7514681,13.6169222 C37.7514681,13.2171 37.4374342,12.8918111 37.0515733,12.8918111 C36.6657125,12.8918111 36.3522354,13.2171 36.3522354,13.6169222 C36.3522354,14.0173222 36.6657125,14.3434778 37.0515733,14.3434778 Z M40.9327319,1.83776667 C41.0925328,1.83776667 41.2229627,1.70256666 41.2229627,1.53645555 C41.2229627,1.37005555 41.0925328,1.23456667 40.9327319,1.23456667 C40.7718174,1.23456667 40.6408306,1.37005555 40.6408306,1.53645555 C40.6409698,1.70256666 40.7718174,1.83776667 40.9327319,1.83776667 Z M38.3458497,11.5489111 C37.960128,11.5489111 37.6460941,11.8744889 37.6460941,12.2746 C37.6460941,12.6747111 37.960128,13.0002889 38.3458497,13.0002889 C38.7317105,13.0002889 39.0453268,12.6747111 39.0453268,12.2746 C39.0453268,11.8744889 38.7318497,11.5489111 38.3458497,11.5489111 Z M40.9327319,9.33862221 C40.7988221,9.33862221 40.6898289,9.45128887 40.6898289,9.58966666 C40.6898289,9.72862221 40.7988221,9.84157777 40.9327319,9.84157777 C41.0665025,9.84157777 41.175078,9.72862221 41.175078,9.58966666 C41.175078,9.45143333 41.0665025,9.33862221 40.9327319,9.33862221 Z M39.6383164,7.99658889 C39.505381,7.99658889 39.3972229,8.10911111 39.3972229,8.24763332 C39.3972229,8.38615555 39.505381,8.49867777 39.6383164,8.49867777 C39.7722262,8.49867777 39.8810802,8.38615555 39.8810802,8.24763332 C39.8810802,8.10911111 39.7722262,7.99658889 39.6383164,7.99658889 Z M39.6383164,11.4603666 C39.9196385,11.4603666 40.1480646,11.2237667 40.1480646,10.9325667 C40.1480646,10.6416555 39.9194993,10.4049111 39.6383164,10.4049111 C39.3582471,10.4049111 39.1305168,10.6418 39.1305168,10.9325667 C39.1305168,11.2237667 39.3583862,11.4603666 39.6383164,11.4603666 Z M38.3458497,15.6855111 C38.7317105,15.6855111 39.0453268,15.3595 39.0453268,14.9589555 C39.0453268,14.5594222 38.7317105,14.2338444 38.3458497,14.2338444 C37.960128,14.2338444 37.6460941,14.5594222 37.6460941,14.9589555 C37.6460941,15.3595 37.960128,15.6855111 38.3458497,15.6855111 Z M39.6383164,5.21834443 C39.4554083,5.21834443 39.3063257,5.37261111 39.3063257,5.56284444 C39.3063257,5.75322222 39.4552691,5.90806666 39.6383164,5.90806666 C39.8221988,5.90806666 39.9718383,5.75336666 39.9718383,5.56284444 C39.9719774,5.37261111 39.8223381,5.21834443 39.6383164,5.21834443 Z M39.6383164,14.3434778 C40.0241772,14.3434778 40.338072,14.0173222 40.338072,13.6169222 C40.338072,13.2171 40.0241772,12.8918111 39.6383164,12.8918111 C39.2528732,12.8918111 38.9388393,13.2171 38.9388393,13.6169222 C38.9388393,14.0173222 39.2530124,14.3434778 39.6383164,14.3434778 Z M39.6383164,0.387833333 C39.7421591,0.387833333 39.8265139,0.300588889 39.8265139,0.19341111 C39.8265139,0.0868111113 39.7422983,0 39.6383164,0 C39.5355872,0 39.4517891,0.0868111113 39.4517891,0.19341111 C39.4519283,0.300588889 39.5355872,0.387833333 39.6383164,0.387833333 Z M39.6383164,3.40715555 C39.9196385,3.40715555 40.1480646,3.16997777 40.1480646,2.87877777 C40.1480646,2.58757778 39.9194993,2.35097777 39.6383164,2.35097777 C39.3582471,2.35097777 39.1305168,2.58772222 39.1305168,2.87877777 C39.1305168,3.16997777 39.3583862,3.40715555 39.6383164,3.40715555 Z M37.0515733,17.0276889 C37.4374342,17.0276889 37.7514681,16.7019667 37.7514681,16.301711 C37.7514681,15.9017444 37.4374342,15.5760222 37.0515733,15.5760222 C36.6657125,15.5760222 36.3522354,15.9018888 36.3522354,16.301711 C36.3522354,16.7019667 36.6657125,17.0276889 37.0515733,17.0276889 Z M38.3458497,19.8398778 C38.0858251,19.8398778 37.8739635,20.0592889 37.8739635,20.3289667 C37.8739635,20.598211 38.085686,20.8179111 38.3458497,20.8179111 C38.6051782,20.8179111 38.8163437,20.598211 38.8163437,20.3289667 C38.8163437,20.0591444 38.6053173,19.8398778 38.3458497,19.8398778 L38.3458497,19.8398778 Z M37.0515733,18.2609556 C36.6657125,18.2609556 36.3522354,18.5863888 36.3522354,18.9867889 C36.3522354,19.3867555 36.6657125,19.7117556 37.0515733,19.7117556 C37.4374342,19.7117556 37.7514682,19.3867555 37.7514682,18.9867889 C37.7516073,18.5863888 37.4375734,18.2609556 37.0515733,18.2609556 Z M38.3458497,16.9179111 C37.960128,16.9179111 37.6460941,17.2437778 37.6460941,17.6437444 C37.6460941,18.0441444 37.960128,18.3695778 38.3458497,18.3695778 C38.7317105,18.3695778 39.0453268,18.0441444 39.0453268,17.6437444 C39.0454659,17.2437778 38.7318497,16.9179111 38.3458497,16.9179111 Z M39.6383164,15.5758778 C39.2528732,15.5758778 38.9388393,15.9017444 38.9388393,16.3015666 C38.9388393,16.7018222 39.2530124,17.0275445 39.6383164,17.0275445 C40.0241772,17.0275445 40.338072,16.7018222 40.338072,16.3015666 C40.3382111,15.9017444 40.0243164,15.5758778 39.6383164,15.5758778 Z M39.6383164,18.6850444 C39.4783763,18.6850444 39.3479464,18.8202444 39.3479464,18.9867889 C39.3479464,19.1526111 39.4783763,19.2879555 39.6383164,19.2879555 C39.7995093,19.2879555 39.930496,19.1526111 39.930496,18.9867889 C39.930496,18.8202444 39.7996484,18.6850444 39.6383164,18.6850444 Z M37.0515733,21.1036222 C36.7499283,21.1036222 36.5049371,21.3582777 36.5049371,21.671 C36.5049371,21.9843 36.7499283,22.2393888 37.0515733,22.2393888 C37.3532186,22.2393888 37.5986271,21.9843 37.5986271,21.671 C37.5986271,21.3581333 37.3532186,21.1036222 37.0515733,21.1036222 Z M35.7577147,19.7615889 C35.4562087,19.7615889 35.210661,20.0162445 35.210661,20.3289667 C35.210661,20.6419777 35.4562087,20.8962 35.7577147,20.8962 C36.0599166,20.8962 36.305882,20.6419777 36.305882,20.3289667 C36.305882,20.0160999 36.0599166,19.7615889 35.7577147,19.7615889 Z M37.0515733,24.0537555 C36.8917724,24.0537555 36.7613425,24.1892444 36.7613425,24.3557889 C36.7613425,24.5223333 36.8917724,24.6579666 37.0515733,24.6579666 C37.2129055,24.6579666 37.343753,24.5224778 37.343753,24.3557889 C37.343753,24.1893888 37.2130447,24.0537555 37.0515733,24.0537555 Z M40.9327319,17.3418555 C40.7718174,17.3418555 40.6408306,17.4774889 40.6408306,17.6438888 C40.6408306,17.8104333 40.7716782,17.9460666 40.9327319,17.9460666 C41.0925328,17.9460666 41.2229627,17.8105777 41.2229627,17.6438888 C41.2229627,17.4774889 41.092672,17.3418555 40.9327319,17.3418555 Z M35.7577147,22.4458 C35.4562087,22.4458 35.210661,22.7003111 35.210661,23.0131778 C35.210661,23.3263332 35.4562087,23.5814221 35.7577147,23.5814221 C36.0599166,23.5814221 36.305882,23.3263332 36.305882,23.0131778 C36.305882,22.7001666 36.0599166,22.4458 35.7577147,22.4458 Z M43.5207277,14.7656889 C43.4170241,14.7656889 43.3326692,14.8525 43.3326692,14.9596778 C43.3326692,15.0665667 43.416885,15.1532333 43.5207277,15.1532333 C43.6233177,15.1532333 43.7072549,15.0665667 43.7072549,14.9596778 C43.7072549,14.8523555 43.6233177,14.7656889 43.5207277,14.7656889 Z M44.8131944,10.7382889 C44.7106044,10.7382889 44.6266671,10.8255333 44.6266671,10.9325667 C44.6266671,11.0398889 44.7106044,11.1271333 44.8131944,11.1271333 C44.9162019,11.1271333 45,11.0398889 45,10.9325667 C45,10.8253889 44.9162019,10.7382889 44.8131944,10.7382889 Z M43.5193356,11.7470889 C43.2384312,11.7470889 43.0101441,11.9836889 43.0101441,12.2746 C43.0101441,12.5658 43.2385704,12.8022555 43.5193356,12.8022555 C43.800101,12.8022555 44.0286664,12.5656555 44.0286664,12.2746 C44.0286664,11.9836889 43.8002401,11.7470889 43.5193356,11.7470889 Z M42.2265905,12.9904667 C41.8932079,12.9904667 41.6221867,13.2715555 41.6221867,13.6169222 C41.6221867,13.9628666 41.8932079,14.2441 42.2265905,14.2441 C42.5601123,14.2441 42.8309944,13.9628666 42.8309944,13.6169222 C42.8309944,13.2715555 42.5601123,12.9904667 42.2265905,12.9904667 Z M40.9327319,14.2338444 C40.5467318,14.2338444 40.2331155,14.5594222 40.2331155,14.9589555 C40.2331155,15.3595 40.5467318,15.6855111 40.9327319,15.6855111 C41.3184534,15.6855111 41.6319307,15.3595 41.6319307,14.9589555 C41.6320698,14.5594222 41.3184534,14.2338444 40.9327319,14.2338444 Z M42.2265905,16.1077222 C42.1230262,16.1077222 42.038393,16.1946778 42.038393,16.301711 C42.038393,16.4090333 42.122887,16.4962777 42.2265905,16.4962777 C42.329459,16.4962777 42.4133961,16.4090333 42.4133961,16.301711 C42.4133961,16.1945334 42.329459,16.1077222 42.2265905,16.1077222 Z M34.4649695,23.9464332 C34.246844,23.9464332 34.0692256,24.1300221 34.0692256,24.3557889 C34.0692256,24.5817 34.2467048,24.7652889 34.4649695,24.7652889 C34.6821207,24.7652889 34.8590432,24.5817 34.8590432,24.3557889 C34.8590432,24.1300221 34.6821207,23.9464332 34.4649695,23.9464332 Z M33.3574989,23.0130334 C33.3574989,22.9058556 33.2737008,22.8186111 33.1709717,22.8186111 C33.0681033,22.8186111 32.9843052,22.9058556 32.9843052,23.0130334 C32.9843052,23.1200666 33.0681033,23.2070222 33.1709717,23.2070222 C33.27384,23.2070222 33.3574989,23.1200666 33.3574989,23.0130334 Z M33.1709717,11.5489111 C32.78525,11.5489111 32.4713553,11.8744889 32.4713553,12.2746 C32.4713553,12.6747111 32.78525,13.0002889 33.1709717,13.0002889 C33.556554,13.0002889 33.8705879,12.6747111 33.8705879,12.2746 C33.8705879,11.8744889 33.556554,11.5489111 33.1709717,11.5489111 Z M33.1709717,14.4710222 C32.9115039,14.4710222 32.7004776,14.6901444 32.7004776,14.9596778 C32.7004776,15.2290666 32.9115039,15.4479 33.1709717,15.4479 C33.430161,15.4479 33.6416049,15.2290666 33.6416049,14.9596778 C33.6416049,14.69 33.4303001,14.4710222 33.1709717,14.4710222 Z M33.1709717,25.3959333 C33.0111707,25.3959333 32.8807409,25.5314222 32.8807409,25.6978222 C32.8807409,25.8642223 33.0111707,26 33.1709717,26 C33.3310509,26 33.4610633,25.8643667 33.4610633,25.6978222 C33.4610633,25.5312777 33.3311901,25.3959333 33.1709717,25.3959333 Z M30.5843678,14.5498889 C30.365964,14.5498889 30.1886238,14.7337667 30.1886238,14.9595333 C30.1886238,15.1850111 30.3658248,15.3681667 30.5843678,15.3681667 C30.8016582,15.3681667 30.9781631,15.1848666 30.9781631,14.9595333 C30.9783022,14.7339111 30.8016582,14.5498889 30.5843678,14.5498889 Z M31.8783658,16.1083001 C31.7748014,16.1083001 31.6904466,16.1952555 31.6904466,16.301711 C31.6904466,16.4090333 31.7746622,16.4962777 31.8783658,16.4962777 C31.9812341,16.4962777 32.0650322,16.4090333 32.0650322,16.301711 C32.0650322,16.1951111 31.9813733,16.1083001 31.8783658,16.1083001 Z M31.8783658,12.9904667 C31.5442871,12.9904667 31.2725698,13.2715555 31.2725698,13.6169222 C31.2725698,13.9628666 31.5441479,14.2441 31.8783658,14.2441 C32.2110524,14.2441 32.4813777,13.9628666 32.4813777,13.6169222 C32.4813777,13.2715555 32.2110524,12.9904667 31.8783658,12.9904667 Z M34.4649695,21.2612111 C34.246844,21.2612111 34.0692256,21.4449445 34.0692256,21.6708556 C34.0692256,21.8967666 34.2467048,22.0806445 34.4649695,22.0806445 C34.6821207,22.0806445 34.8590432,21.8967666 34.8590432,21.6708556 C34.8590432,21.4449445 34.6821207,21.2612111 34.4649695,21.2612111 Z M35.7577147,15.6855111 C36.1434362,15.6855111 36.4571918,15.3595 36.4571918,14.9589555 C36.4571918,14.5594222 36.1434362,14.2338444 35.7577147,14.2338444 C35.371993,14.2338444 35.0579591,14.5594222 35.0579591,14.9589555 C35.0579591,15.3595 35.371993,15.6855111 35.7577147,15.6855111 Z M35.2873598,17.6437444 C35.2873598,17.9132778 35.4983861,18.1325445 35.7578539,18.1325445 C36.0180176,18.1325445 36.2298791,17.9132778 36.2298791,17.6437444 C36.2298791,17.3747889 36.0181568,17.1555222 35.7578539,17.1555222 C35.4982469,17.1556666 35.2873598,17.3747889 35.2873598,17.6437444 Z M29.2902308,15.9998223 C29.1304299,15.9998223 29,16.1348777 29,16.3012778 C29,16.4681111 29.1304299,16.6040333 29.2902308,16.6040333 C29.4510061,16.6040333 29.5821319,16.4682555 29.5821319,16.3012778 C29.5819927,16.1347333 29.4510061,15.9998223 29.2902308,15.9998223 Z M34.4649695,12.8918111 C34.0791088,12.8918111 33.7656316,13.2171 33.7656316,13.6169222 C33.7656316,14.0173222 34.0791088,14.3434778 34.4649695,14.3434778 C34.8508304,14.3434778 35.1645859,14.0173222 35.1645859,13.6169222 C35.1647251,13.2171 34.8509695,12.8918111 34.4649695,12.8918111 Z M34.4649695,16.6038888 C34.6249097,16.6038888 34.7552003,16.4683999 34.7552003,16.3015666 C34.7552003,16.1353111 34.6249097,15.9996778 34.4649695,15.9996778 C34.3043335,15.9996778 34.1730684,16.1351667 34.1730684,16.3015666 C34.1732076,16.4683999 34.3043335,16.6038888 34.4649695,16.6038888 Z M35.7577147,25.3959333 C35.5979138,25.3959333 35.4673447,25.5314222 35.4673447,25.6978222 C35.4673447,25.8642223 35.5979138,26 35.7577147,26 C35.91849,26 36.0494766,25.8643667 36.0494766,25.6978222 C36.0494766,25.5312777 35.9186292,25.3959333 35.7577147,25.3959333 Z M34.4649695,19.2879555 C34.6249097,19.2879555 34.7552003,19.1526111 34.7552003,18.9867889 C34.7552003,18.8199556 34.6249097,18.6840332 34.4649695,18.6840332 C34.3043335,18.6840332 34.1730684,18.8198111 34.1730684,18.9867889 C34.1732076,19.1527555 34.3043335,19.2879555 34.4649695,19.2879555 Z" id="Shape"></path>
                </g>
                <g id="Group">
                    <g id="Pinned" transform="translate(0.000000, 27.000000)" fill="#003C71">
                        <path d="M49.7327753,5.36842105 C51.5298187,5.36842105 53.6691562,5.5386434 54.6104647,5.62375457 C54.6104647,7.24086687 53.9258767,8.00686744 52.5567007,7.92175626 C51.7865392,7.92175626 50.5885102,7.83664509 49.3049078,7.83664509 C48.5347463,7.83664509 47.9357318,8.17708978 47.9357318,8.94309035 C47.9357318,9.87931326 48.7058933,10.0495356 51.1875247,10.4750915 C53.8403032,10.9857585 55.2094792,11.7517591 55.2094792,14.3050943 C55.2094792,16.9435407 53.2412887,17.9648748 49.9894957,17.9648748 C48.1068788,17.9648748 46.3954088,17.8797636 45.1973798,17.7946524 L45.1973798,17.7946524 L45.3685268,15.2413172 C46.4809823,15.3264284 48.2780258,15.4115395 49.9039222,15.4115395 C51.0163777,15.4115395 52.2144067,15.2413172 52.2144067,14.2199831 C52.2144067,13.3688714 51.7009657,13.198649 49.2193343,12.7730932 C46.4809823,12.3475373 44.9406593,11.5815367 44.9406593,8.94309035 C44.9406593,6.38975514 46.9944233,5.36842105 49.7327753,5.36842105 Z M108.809698,5.36842105 C110.606742,5.36842105 112.746079,5.5386434 113.687388,5.62375457 C113.687388,7.24086687 113.0028,8.00686744 111.633624,7.92175626 C110.863462,7.92175626 109.665433,7.83664509 108.381831,7.83664509 C107.611669,7.83664509 107.012655,8.17708978 107.012655,8.94309035 C107.012655,9.87931326 107.782816,10.0495356 110.264448,10.4750915 C112.917226,10.9857585 114.286402,11.7517591 114.286402,14.3050943 C114.286402,16.9435407 112.318212,17.9648748 109.066419,17.9648748 C107.183802,17.9648748 105.472332,17.8797636 104.274303,17.7946524 L104.274303,17.7946524 L104.44545,15.2413172 C105.557905,15.3264284 107.354949,15.4115395 108.980845,15.4115395 C110.093301,15.4115395 111.29133,15.2413172 111.29133,14.2199831 C111.29133,13.3688714 110.777889,13.198649 108.296257,12.7730932 C105.557905,12.3475373 104.017582,11.5815367 104.017582,8.94309035 C104.017582,6.38975514 106.071346,5.36842105 108.809698,5.36842105 Z M98.1642796,5.36842105 C101.242549,5.36842105 102.298681,6.65559621 102.35498,9.07351899 L102.357381,9.28353504 L102.442955,9.28353504 L102.442955,17.5393189 C100.817058,17.7946524 97.7364121,17.9648748 94.9980602,17.9648748 C92.3452817,17.9648748 91.1472527,16.5179848 91.1472527,14.0497608 C91.1472527,11.3262032 92.7731492,10.5602026 95.5115012,10.1346468 C96.5098586,9.99279482 97.5676422,9.85094287 98.6848517,9.75834506 L99.3623086,9.70909091 L99.3623086,9.28353504 C99.3623086,8.26220096 98.9344411,7.92175626 97.9931326,7.92175626 C96.9662506,7.92175626 95.1692072,8.00686744 94.2278987,8.00686744 C92.8587227,8.00686744 92.4308552,7.24086687 92.4308552,5.70886575 C93.5433107,5.62375457 96.1960892,5.36842105 98.1642796,5.36842105 Z M82.9789603,0.736842105 C84.3481363,0.736842105 87.5999292,1.16239797 88.8835317,1.33262032 C88.8835317,2.94973262 88.1989437,3.88595553 86.4019002,3.80084436 L86.4019002,3.80084436 L83.6635483,3.63062201 C79.6415939,3.37528849 78.8714324,4.48173375 78.8714324,9.33307064 C78.8714324,14.2695187 79.8127409,15.2908528 82.3799458,15.2908528 C83.2356808,15.2908528 85.2894448,15.1206305 86.1451797,15.0355193 L86.1451797,15.0355193 L86.1451797,10.7799606 L85.0327243,10.7799606 C83.4068278,10.7799606 82.8078133,10.01396 82.9789603,8.14151421 L82.9789603,8.14151421 L89.3969727,8.14151421 L89.3969727,17.1632986 C87.5999292,17.5888545 84.0914158,17.9292992 82.2943723,17.9292992 C77.4166829,17.9292992 75.5340659,15.9717422 75.5340659,9.24795947 C75.5340659,2.43906558 77.0743889,0.736842105 82.9789603,0.736842105 Z M30.7940009,3.1501525 C30.7940009,1.44792902 32.3343239,1.02237316 33.8746469,1.1925955 L33.8746469,1.1925955 L33.8746469,5.36304301 L38.1533218,5.36304301 C38.3244688,7.06526649 37.7254543,7.83126705 36.0995578,7.83126705 L36.0995578,7.83126705 L33.9602204,7.83126705 L33.9602204,13.6188269 C33.9602204,14.8954945 34.5592349,15.3210503 35.7572639,15.3210503 C36.4418518,15.3210503 37.2975868,15.3210503 37.8966013,15.2359392 L37.8966013,15.2359392 L37.9821748,17.7041632 C37.1264398,17.7892744 36.3562783,17.8743855 35.3293964,17.8743855 C32.0776034,17.8743855 30.7940009,16.5126068 30.7940009,13.4486045 L30.7940009,13.4486045 L30.7940009,7.83126705 L28.4835165,7.83126705 L28.4835165,5.36304301 L30.7940009,5.36304301 Z M56.5450549,2.52095783 C56.5450549,0.816697182 58.091303,0.390632019 59.637551,0.561058085 L59.637551,0.561058085 L59.637551,6.78160946 C60.9260911,6.27033127 63.0736578,5.41820094 64.7058085,5.41820094 C67.3687912,5.41820094 68.3137206,6.8668225 68.3137206,9.42321347 L68.3137206,9.42321347 L68.3137206,17.8593037 L65.2212245,17.8593037 L65.2212245,9.59363954 C65.2212245,8.82672224 64.7058085,8.23023102 63.7608791,8.23023102 C62.6441444,8.23023102 61.0119937,8.82672224 59.637551,9.33800044 L59.637551,9.33800044 L59.637551,17.8593037 L56.5450549,17.8593037 Z M42.8307692,5.36842105 L42.8307692,17.7894737 L39.6659341,17.7894737 L39.6659341,5.36842105 L42.8307692,5.36842105 Z M26.5846154,5.36842105 L26.5846154,17.7894737 L23.4197802,17.7894737 L23.4197802,5.36842105 L26.5846154,5.36842105 Z M7.86487602,0.947368421 C11.1134118,0.947368421 12.6521919,2.12631579 12.6521919,5.32631579 C12.6521919,7.6 11.6263385,8.35789474 10.3440217,8.94736842 C11.8828018,9.2 13.0796308,10.1263158 13.0796308,12.8210526 C13.0796308,16.3537869 11.3708922,17.5620902 8.42971855,17.6971281 L8.20682715,17.7052632 L-1.42108547e-14,17.7052632 L-1.42108547e-14,0.947368421 L7.86487602,0.947368421 Z M19.7275222,5.19093093 C20.7533756,5.10672041 21.4372778,5.19093093 22.2066679,5.35935199 C22.2066679,6.45408883 21.9502045,7.21198357 21.35179,7.54882567 C20.6678878,7.88566778 20.4114244,7.71724672 19.6420344,7.80145725 C18.4452054,7.80145725 17.846791,8.05408883 17.846791,9.5698783 L17.846791,9.5698783 L17.846791,17.5698783 L14.7692308,17.5698783 L14.7692308,9.5698783 C14.7692308,6.28566778 16.4789864,5.27514146 19.7275222,5.19093093 Z M99.2767351,12.0070926 C98.0787061,12.0922038 96.9662506,12.2624261 95.9393687,12.4326485 C94.6557662,12.687982 94.1423252,13.0284267 94.1423252,14.1348719 C94.1423252,14.8157613 94.3134722,15.6668731 95.5970747,15.6668731 C96.7889913,15.6668731 98.2760491,15.5934864 99.0990391,15.5148578 L99.2767351,15.4966507 L99.2767351,12.0070926 Z M7.69390045,10.3789474 L3.24853575,10.3789474 L3.24853575,15.0105263 L7.69390045,15.0105263 C9.40365611,15.0105263 9.91658281,14.2526316 9.91658281,12.6526316 C9.91658281,11.0526316 9.40365611,10.3789474 7.69390045,10.3789474 Z M7.26646154,3.47368421 L3.24853575,3.47368421 L3.24853575,7.93684211 L7.26646154,7.93684211 C8.97621719,7.93684211 9.48914389,7.26315789 9.48914389,5.66315789 C9.48914389,4.06315789 9.06170498,3.47368421 7.26646154,3.47368421 Z M23.6307692,3.1290704 C23.6307692,1.44485988 25.1695493,1.02380725 26.7083294,1.1922283 L26.7083294,1.1922283 L26.7083294,4.22380725 L23.6307692,4.22380725 Z M39.8769231,3.1290704 C39.8769231,1.44485988 41.4157032,1.02380725 42.9544833,1.1922283 L42.9544833,1.1922283 L42.9544833,4.22380725 L39.8769231,4.22380725 Z" id="Combined-Shape"></path>
                    </g>
                    <g id="Flame" transform="translate(93.000000, 0.000000)">
                        <g id="Flame-Mask---Top" transform="translate(4.000000, 0.000000)">
                            <mask id="mask-2" fill="white">
                                <use xlink:href="#path-1"></use>
                            </mask>
                            <g id="Mask"></g>
                            <polygon id="XMLID_52_" fill="url(#linearGradient-3)" fill-rule="nonzero" mask="url(#mask-2)" points="4.58009193 31.8418889 -8.11965812 3.88660832 20.9403582 -9.97614726 33.6401082 17.9791333"></polygon>
                        </g>
                        <g id="Flame-Mask---Bottom" transform="translate(0.000000, 12.000000)">
                            <mask id="mask-5" fill="white">
                                <use xlink:href="#path-4"></use>
                            </mask>
                            <g id="Mask"></g>
                            <polygon id="XMLID_49_" fill="url(#linearGradient-6)" fill-rule="nonzero" mask="url(#mask-5)" points="3.64836538 -7.05592105 19.6028846 3.05230844 10.9140385 19.7349961 -5.11538462 9.54458591"></polygon>
                        </g>
                    </g>
                </g>
                <path d="M150.332,7.992 C150.748,7.992 150.956,7.792 150.956,7.392 C150.956,7.176 150.906,7.02 150.806,6.924 C150.706,6.828 150.548,6.78 150.332,6.78 C150.108,6.78 149.948,6.828 149.852,6.924 C149.756,7.02 149.708,7.176 149.708,7.392 C149.708,7.6 149.756,7.752 149.852,7.848 C149.948,7.944 150.108,7.992 150.332,7.992 Z M150.812,15 L150.812,9.168 L150.26,9.168 C150.1,9.168 149.992,9.198 149.936,9.258 C149.88,9.318 149.852,9.404 149.852,9.516 L149.852,9.516 L149.852,15 L150.812,15 Z M153.464,15 L153.464,11.496 C153.464,10.896 153.592,10.466 153.848,10.206 C154.104,9.946 154.532,9.816 155.132,9.816 C155.636,9.816 156,9.936 156.224,10.176 C156.448,10.416 156.56,10.812 156.56,11.364 L156.56,11.364 L156.56,15 L157.52,15 L157.52,11.328 C157.52,10.512 157.348,9.924 157.004,9.564 C156.66,9.204 156.092,9.024 155.3,9.024 C154.828,9.024 154.424,9.096 154.088,9.24 C153.752,9.384 153.496,9.596 153.32,9.876 L153.32,9.876 L153.224,9.168 L152.912,9.168 C152.752,9.168 152.644,9.198 152.588,9.258 C152.532,9.318 152.504,9.404 152.504,9.516 L152.504,9.516 L152.504,15 L153.464,15 Z M162.86,17.496 L162.86,14.508 C163.188,14.932 163.816,15.144 164.744,15.144 C165.616,15.144 166.248,14.904 166.64,14.424 C167.032,13.944 167.228,13.164 167.228,12.084 C167.228,11.004 167.032,10.224 166.64,9.744 C166.248,9.264 165.616,9.024 164.744,9.024 C164.24,9.024 163.826,9.086 163.502,9.21 C163.178,9.334 162.916,9.536 162.716,9.816 L162.716,9.816 L162.62,9.168 L162.308,9.168 C162.148,9.168 162.04,9.198 161.984,9.258 C161.928,9.318 161.9,9.404 161.9,9.516 L161.9,9.516 L161.9,17.496 L162.86,17.496 Z M164.516,14.376 C164.156,14.376 163.868,14.334 163.652,14.25 C163.436,14.166 163.27,14.048 163.154,13.896 C163.038,13.744 162.96,13.566 162.92,13.362 C162.88,13.158 162.86,12.94 162.86,12.708 L162.86,12.708 L162.86,11.496 C162.86,11.256 162.88,11.03 162.92,10.818 C162.96,10.606 163.04,10.424 163.16,10.272 C163.28,10.12 163.448,10 163.664,9.912 C163.88,9.824 164.164,9.78 164.516,9.78 C165.132,9.78 165.574,9.96 165.842,10.32 C166.11,10.68 166.244,11.268 166.244,12.084 C166.244,12.9 166.11,13.486 165.842,13.842 C165.574,14.198 165.132,14.376 164.516,14.376 Z M170.792,15.144 C171.248,15.144 171.636,15.078 171.956,14.946 C172.276,14.814 172.52,14.62 172.688,14.364 C172.704,14.644 172.798,14.826 172.97,14.91 C173.142,14.994 173.356,15.036 173.612,15.036 L173.612,15.036 L173.768,15.036 C173.816,15.036 173.86,15.032 173.9,15.024 C173.94,15.016 173.976,15.008 174.008,15 L174.008,15 L174.008,14.376 L173.84,14.364 C173.696,14.348 173.61,14.32 173.582,14.28 C173.554,14.24 173.54,14.14 173.54,13.98 L173.54,13.98 L173.54,9.168 L173.144,9.168 C172.936,9.168 172.816,9.272 172.784,9.48 L172.784,9.48 L172.724,9.816 C172.532,9.536 172.288,9.334 171.992,9.21 C171.696,9.086 171.296,9.024 170.792,9.024 C169.984,9.024 169.364,9.268 168.932,9.756 C168.5,10.244 168.284,11.02 168.284,12.084 C168.284,13.164 168.496,13.944 168.92,14.424 C169.344,14.904 169.968,15.144 170.792,15.144 Z M171.02,14.376 C170.404,14.376 169.958,14.198 169.682,13.842 C169.406,13.486 169.268,12.9 169.268,12.084 C169.268,11.268 169.406,10.68 169.682,10.32 C169.958,9.96 170.404,9.78 171.02,9.78 C171.324,9.78 171.576,9.82 171.776,9.9 C171.976,9.98 172.136,10.094 172.256,10.242 C172.376,10.39 172.46,10.568 172.508,10.776 C172.556,10.984 172.58,11.212 172.58,11.46 L172.58,11.46 L172.58,12.612 C172.58,13.188 172.466,13.626 172.238,13.926 C172.01,14.226 171.604,14.376 171.02,14.376 Z M176.228,15 L176.228,11.496 C176.228,10.88 176.364,10.446 176.636,10.194 C176.908,9.942 177.344,9.816 177.944,9.816 C178.032,9.816 178.126,9.818 178.226,9.822 C178.326,9.826 178.416,9.836 178.496,9.852 L178.496,9.852 L178.496,9.06 C178.36,9.036 178.188,9.024 177.98,9.024 C177.532,9.024 177.142,9.102 176.81,9.258 C176.478,9.414 176.236,9.62 176.084,9.876 L176.084,9.876 L175.988,9.168 L175.676,9.168 C175.516,9.168 175.408,9.198 175.352,9.258 C175.296,9.318 175.268,9.404 175.268,9.516 L175.268,9.516 L175.268,15 L176.228,15 Z M182.18,15.144 C182.38,15.144 182.558,15.136 182.714,15.12 C182.87,15.104 183,15.084 183.104,15.06 L183.104,15.06 L183.104,14.328 C183.016,14.344 182.91,14.356 182.786,14.364 C182.662,14.372 182.508,14.376 182.324,14.376 C181.932,14.376 181.65,14.286 181.478,14.106 C181.306,13.926 181.22,13.628 181.22,13.212 L181.22,13.212 L181.22,9.924 L182.912,9.924 L182.912,9.168 L181.22,9.168 L181.22,7.224 L180.668,7.224 C180.508,7.224 180.4,7.254 180.344,7.314 C180.288,7.374 180.26,7.46 180.26,7.572 L180.26,7.572 L180.26,9.168 L179.408,9.312 C179.296,9.328 179.224,9.354 179.192,9.39 C179.16,9.426 179.144,9.488 179.144,9.576 L179.144,9.576 L179.144,9.924 L180.26,9.924 L180.26,13.248 C180.26,13.92 180.41,14.404 180.71,14.7 C181.01,14.996 181.5,15.144 182.18,15.144 Z M185.168,15 L185.168,11.496 C185.168,10.896 185.296,10.466 185.552,10.206 C185.808,9.946 186.236,9.816 186.836,9.816 C187.34,9.816 187.704,9.936 187.928,10.176 C188.152,10.416 188.264,10.812 188.264,11.364 L188.264,11.364 L188.264,15 L189.224,15 L189.224,11.328 C189.224,10.512 189.052,9.924 188.708,9.564 C188.364,9.204 187.796,9.024 187.004,9.024 C186.532,9.024 186.128,9.096 185.792,9.24 C185.456,9.384 185.2,9.596 185.024,9.876 L185.024,9.876 L184.928,9.168 L184.616,9.168 C184.456,9.168 184.348,9.198 184.292,9.258 C184.236,9.318 184.208,9.404 184.208,9.516 L184.208,9.516 L184.208,15 L185.168,15 Z M193.676,15.144 C194.004,15.144 194.328,15.124 194.648,15.084 C194.968,15.044 195.28,14.972 195.584,14.868 L195.584,14.868 L195.584,14.1 C195.28,14.196 194.976,14.266 194.672,14.31 C194.368,14.354 194.06,14.376 193.748,14.376 C192.98,14.376 192.432,14.22 192.104,13.908 C191.776,13.596 191.608,13.128 191.6,12.504 L191.6,12.504 L194.95832,12.50328 C195.13944,12.50136 195.286,12.4956 195.398,12.486 C195.538,12.474 195.644,12.438 195.716,12.378 C195.788,12.318 195.834,12.23 195.854,12.114 C195.874,11.998 195.884,11.836 195.884,11.628 C195.884,11.236 195.84,10.88 195.752,10.56 C195.664,10.24 195.52,9.966 195.32,9.738 C195.12,9.51 194.858,9.334 194.534,9.21 C194.21,9.086 193.816,9.024 193.352,9.024 C192.384,9.024 191.682,9.27 191.246,9.762 C190.81,10.254 190.592,11.028 190.592,12.084 C190.592,13.164 190.836,13.944 191.324,14.424 C191.812,14.904 192.596,15.144 193.676,15.144 Z M194.924,11.772 L191.6,11.772 C191.616,11.14 191.762,10.648 192.038,10.296 C192.314,9.944 192.752,9.768 193.352,9.768 C193.936,9.768 194.344,9.95 194.576,10.314 C194.808,10.678 194.924,11.164 194.924,11.772 L194.924,11.772 Z M198.152,15 L198.152,11.496 C198.152,10.88 198.288,10.446 198.56,10.194 C198.832,9.942 199.268,9.816 199.868,9.816 C199.956,9.816 200.05,9.818 200.15,9.822 C200.25,9.826 200.34,9.836 200.42,9.852 L200.42,9.852 L200.42,9.06 C200.284,9.036 200.112,9.024 199.904,9.024 C199.456,9.024 199.066,9.102 198.734,9.258 C198.402,9.414 198.16,9.62 198.008,9.876 L198.008,9.876 L197.912,9.168 L197.6,9.168 C197.44,9.168 197.332,9.198 197.276,9.258 C197.22,9.318 197.192,9.404 197.192,9.516 L197.192,9.516 L197.192,15 L198.152,15 Z M203.312,15.144 C204.848,15.144 205.616,14.564 205.616,13.404 C205.616,13.012 205.532,12.706 205.364,12.486 C205.196,12.266 204.986,12.098 204.734,11.982 C204.482,11.866 204.21,11.78 203.918,11.724 C203.626,11.668 203.354,11.606 203.102,11.538 C202.85,11.47 202.64,11.374 202.472,11.25 C202.304,11.126 202.22,10.94 202.22,10.692 C202.22,10.404 202.328,10.178 202.544,10.014 C202.76,9.85 203.104,9.768 203.576,9.768 C204.184,9.768 204.764,9.856 205.316,10.032 L205.316,10.032 L205.316,9.576 C205.316,9.448 205.29,9.36 205.238,9.312 C205.186,9.264 205.068,9.216 204.884,9.168 C204.756,9.136 204.572,9.104 204.332,9.072 C204.092,9.04 203.816,9.024 203.504,9.024 C202.736,9.024 202.17,9.178 201.806,9.486 C201.442,9.794 201.26,10.2 201.26,10.704 C201.26,11.088 201.344,11.388 201.512,11.604 C201.68,11.82 201.888,11.986 202.136,12.102 C202.384,12.218 202.656,12.304 202.952,12.36 C203.248,12.416 203.52,12.48 203.768,12.552 C204.016,12.624 204.224,12.724 204.392,12.852 C204.56,12.98 204.644,13.172 204.644,13.428 C204.644,13.764 204.53,14.008 204.302,14.16 C204.074,14.312 203.72,14.388 203.24,14.388 C202.576,14.388 201.932,14.28 201.308,14.064 L201.308,14.064 L201.308,14.856 C201.908,15.048 202.576,15.144 203.312,15.144 Z M207.944,15 L207.944,11.496 C207.944,10.896 208.072,10.466 208.328,10.206 C208.584,9.946 209.012,9.816 209.612,9.816 C210.116,9.816 210.48,9.936 210.704,10.176 C210.928,10.416 211.04,10.812 211.04,11.364 L211.04,11.364 L211.04,15 L212,15 L212,11.328 C212,10.512 211.828,9.924 211.484,9.564 C211.14,9.204 210.572,9.024 209.78,9.024 C209.324,9.024 208.944,9.088 208.64,9.216 C208.336,9.344 208.104,9.5 207.944,9.684 L207.944,9.684 L207.944,6.552 L207.392,6.552 C207.232,6.552 207.124,6.582 207.068,6.642 C207.012,6.702 206.984,6.788 206.984,6.9 L206.984,6.9 L206.984,15 L207.944,15 Z M214.172,7.992 C214.588,7.992 214.796,7.792 214.796,7.392 C214.796,7.176 214.746,7.02 214.646,6.924 C214.546,6.828 214.388,6.78 214.172,6.78 C213.948,6.78 213.788,6.828 213.692,6.924 C213.596,7.02 213.548,7.176 213.548,7.392 C213.548,7.6 213.596,7.752 213.692,7.848 C213.788,7.944 213.948,7.992 214.172,7.992 Z M214.652,15 L214.652,9.168 L214.1,9.168 C213.94,9.168 213.832,9.198 213.776,9.258 C213.72,9.318 213.692,9.404 213.692,9.516 L213.692,9.516 L213.692,15 L214.652,15 Z M217.304,17.496 L217.304,14.508 C217.632,14.932 218.26,15.144 219.188,15.144 C220.06,15.144 220.692,14.904 221.084,14.424 C221.476,13.944 221.672,13.164 221.672,12.084 C221.672,11.004 221.476,10.224 221.084,9.744 C220.692,9.264 220.06,9.024 219.188,9.024 C218.684,9.024 218.27,9.086 217.946,9.21 C217.622,9.334 217.36,9.536 217.16,9.816 L217.16,9.816 L217.064,9.168 L216.752,9.168 C216.592,9.168 216.484,9.198 216.428,9.258 C216.372,9.318 216.344,9.404 216.344,9.516 L216.344,9.516 L216.344,17.496 L217.304,17.496 Z M218.96,14.376 C218.6,14.376 218.312,14.334 218.096,14.25 C217.88,14.166 217.714,14.048 217.598,13.896 C217.482,13.744 217.404,13.566 217.364,13.362 C217.324,13.158 217.304,12.94 217.304,12.708 L217.304,12.708 L217.304,11.496 C217.304,11.256 217.324,11.03 217.364,10.818 C217.404,10.606 217.484,10.424 217.604,10.272 C217.724,10.12 217.892,10 218.108,9.912 C218.324,9.824 218.608,9.78 218.96,9.78 C219.576,9.78 220.018,9.96 220.286,10.32 C220.554,10.68 220.688,11.268 220.688,12.084 C220.688,12.9 220.554,13.486 220.286,13.842 C220.018,14.198 219.576,14.376 218.96,14.376 Z M227.948,15 L229.292,10.2 L229.34,10.2 L230.672,15 L231.764,15 L233.564,9.168 L232.988,9.168 C232.836,9.168 232.726,9.188 232.658,9.228 C232.59,9.268 232.536,9.356 232.496,9.492 L232.496,9.492 L231.224,13.968 L231.176,13.968 L229.844,9.168 L228.788,9.168 L227.444,13.968 L227.396,13.968 L226.04,9.168 L225.068,9.168 L226.856,15 L227.948,15 Z M235.256,7.992 C235.672,7.992 235.88,7.792 235.88,7.392 C235.88,7.176 235.83,7.02 235.73,6.924 C235.63,6.828 235.472,6.78 235.256,6.78 C235.032,6.78 234.872,6.828 234.776,6.924 C234.68,7.02 234.632,7.176 234.632,7.392 C234.632,7.6 234.68,7.752 234.776,7.848 C234.872,7.944 235.032,7.992 235.256,7.992 Z M235.736,15 L235.736,9.168 L235.184,9.168 C235.024,9.168 234.916,9.198 234.86,9.258 C234.804,9.318 234.776,9.404 234.776,9.516 L234.776,9.516 L234.776,15 L235.736,15 Z M239.864,15.144 C240.064,15.144 240.242,15.136 240.398,15.12 C240.554,15.104 240.684,15.084 240.788,15.06 L240.788,15.06 L240.788,14.328 C240.7,14.344 240.594,14.356 240.47,14.364 C240.346,14.372 240.192,14.376 240.008,14.376 C239.616,14.376 239.334,14.286 239.162,14.106 C238.99,13.926 238.904,13.628 238.904,13.212 L238.904,13.212 L238.904,9.924 L240.596,9.924 L240.596,9.168 L238.904,9.168 L238.904,7.224 L238.352,7.224 C238.192,7.224 238.084,7.254 238.028,7.314 C237.972,7.374 237.944,7.46 237.944,7.572 L237.944,7.572 L237.944,9.168 L237.092,9.312 C236.98,9.328 236.908,9.354 236.876,9.39 C236.844,9.426 236.828,9.488 236.828,9.576 L236.828,9.576 L236.828,9.924 L237.944,9.924 L237.944,13.248 C237.944,13.92 238.094,14.404 238.394,14.7 C238.694,14.996 239.184,15.144 239.864,15.144 Z M242.852,15 L242.852,11.496 C242.852,10.896 242.98,10.466 243.236,10.206 C243.492,9.946 243.92,9.816 244.52,9.816 C245.024,9.816 245.388,9.936 245.612,10.176 C245.836,10.416 245.948,10.812 245.948,11.364 L245.948,11.364 L245.948,15 L246.908,15 L246.908,11.328 C246.908,10.512 246.736,9.924 246.392,9.564 C246.048,9.204 245.48,9.024 244.688,9.024 C244.232,9.024 243.852,9.088 243.548,9.216 C243.244,9.344 243.012,9.5 242.852,9.684 L242.852,9.684 L242.852,6.552 L242.3,6.552 C242.14,6.552 242.032,6.582 241.976,6.642 C241.92,6.702 241.892,6.788 241.892,6.9 L241.892,6.9 L241.892,15 L242.852,15 Z" id="inpartnershipwith" fill="#3C4752" fill-rule="nonzero"></path>
                <g id="Components-/-Divider-/-Horizontal-/-Grey" transform="translate(135.500000, 25.500000) scale(1, -1) rotate(90.000000) translate(-135.500000, -25.500000) translate(110.000000, 12.500000)" fill="#C8C9C7">
                    <rect id="Rectangle" x="0" y="12.5" width="51" height="1"></rect>
                </g>
            </g>
        </g>
    </g>
</svg>