<?xml version="1.0" encoding="UTF-8"?>
<svg width="231px" height="51px" viewBox="0 0 231 51" version="1.1" xmlns="http://www.w3.org/2000/svg" xmlns:xlink="http://www.w3.org/1999/xlink">
    <!-- Generator: Sketch 63.1 (92452) - https://sketch.com -->
    <title>Centrica</title>
    <desc>Created with Sketch.</desc>
    <defs>
        <radialGradient cx="68.4955789%" cy="-19.962041%" fx="68.4955789%" fy="-19.962041%" r="483.534092%" gradientTransform="translate(0.684956,-0.199620),scale(0.188679,1.000000),translate(-0.684956,0.199620)" id="radialGradient-1">
            <stop stop-color="#4665AF" offset="0%"></stop>
            <stop stop-color="#000041" offset="60%"></stop>
        </radialGradient>
    </defs>
    <g id="Page-1" stroke="none" stroke-width="1" fill="none" fill-rule="evenodd">
        <g id="Centrica">
            <g id="Group-2" transform="translate(133.000000, 25.000000)" fill="#6633CC" fill-rule="nonzero">
                <path d="M25.7582027,12.0912286 L22.9684337,12.0912286 L22.9684337,20 L25.7582027,20 L25.7582027,12.0912286 Z M0,20 L9.57800469,20 L9.57800469,17.3763917 L2.90127887,17.3763917 L2.90127887,14.6198975 L8.72218087,14.6198975 L8.72218087,12.0912286 L2.90127887,12.0912286 L2.90127887,9.35378136 L9.3730403,9.35378136 L9.3730403,6.71127364 L0,6.71127364 L0,20 Z M11.8654015,20 L14.6553149,20 L14.6553149,6.71127364 L11.8654015,6.71127364 L11.8654015,20 Z M17.4455172,20 L20.2355752,20 L20.2355752,6.71127364 L17.4455172,6.71127364 L17.4455172,20 Z M26,6.67273676 C26,6.20424054 25.8419796,5.80779795 25.5259387,5.48459017 C25.2098976,5.16123476 24.8219243,5 24.3630293,5 C23.9047121,5 23.517172,5.16123476 23.2008423,5.48459017 C22.8848013,5.80765029 22.7266364,6.20424054 22.7266364,6.67273676 C22.7266364,7.14167596 22.8849457,7.53767559 23.2008423,7.86103101 C23.5170276,8.18423877 23.9047121,8.34562119 24.3630293,8.34562119 C24.8219243,8.34562119 25.2097532,8.18423877 25.5259387,7.86103101 C25.842124,7.53782324 26,7.14167596 26,6.67273676 Z" id="Shape"></path>
                <path d="M37.0515733,8.9736111 C37.4374342,8.9736111 37.7514681,8.64803332 37.7514681,8.24777776 C37.7514681,7.84795555 37.4374342,7.52252222 37.0515733,7.52252222 C36.6657125,7.52252222 36.3522354,7.84795555 36.3522354,8.24777776 C36.3522354,8.64803332 36.6657125,8.9736111 37.0515733,8.9736111 Z M35.7591066,4.41494444 C35.8618358,4.41494444 35.9456339,4.32813332 35.9456339,4.22153333 C35.9456339,4.11392222 35.8618358,4.02638889 35.7591066,4.02638889 C35.6552639,4.02638889 35.5709091,4.11377777 35.5709091,4.22153333 C35.5710483,4.32827778 35.6552639,4.41494444 35.7591066,4.41494444 Z M37.0515733,6.20995556 C37.3955352,6.20995556 37.6749084,5.91962222 37.6749084,5.56284444 C37.6749084,5.2062111 37.3955352,4.91616666 37.0515733,4.91616666 C36.7081684,4.91616666 36.4285168,5.2062111 36.4285168,5.56284444 C36.428656,5.91962222 36.7083076,6.20995556 37.0515733,6.20995556 Z M35.7577147,7.39382221 C36.0178784,7.39382221 36.2297399,7.1747 36.2297399,6.9056 C36.2297399,6.63606666 36.0180176,6.41665555 35.7577147,6.41665555 C35.4982469,6.41665555 35.2872206,6.63606666 35.2872206,6.9056 C35.2873598,7.17484444 35.4982469,7.39382221 35.7577147,7.39382221 Z M38.3458497,4.78876666 C38.6470772,4.78876666 38.8927642,4.53382222 38.8927642,4.22066666 C38.8927642,3.90779999 38.6470772,3.65328889 38.3458497,3.65328889 C38.0443436,3.65328889 37.7987959,3.90779999 37.7987959,4.22066666 C37.7989351,4.53396666 38.0443436,4.78876666 38.3458497,4.78876666 Z M37.0515733,3.18066666 C37.2129055,3.18066666 37.343753,3.04517778 37.343753,2.87877777 C37.343753,2.71223332 37.2130447,2.5766 37.0515733,2.5766 C36.8917724,2.5766 36.7613425,2.71208888 36.7613425,2.87877777 C36.7613425,3.04517778 36.8917724,3.18066666 37.0515733,3.18066666 Z M38.3458497,1.83776667 C38.505929,1.83776667 38.6362197,1.70256666 38.6362197,1.53645555 C38.6362197,1.37005555 38.505929,1.23456667 38.3458497,1.23456667 C38.1850743,1.23456667 38.0540876,1.37005555 38.0540876,1.53645555 C38.0542269,1.70256666 38.1850743,1.83776667 38.3458497,1.83776667 Z M38.3458497,7.47283333 C38.6470772,7.47283333 38.8927642,7.21846666 38.8927642,6.9056 C38.8927642,6.59258889 38.6470772,6.33822221 38.3458497,6.33822221 C38.0443436,6.33822221 37.7987959,6.59258889 37.7987959,6.9056 C37.7989351,7.2186111 38.0443436,7.47283333 38.3458497,7.47283333 Z M34.4649695,8.73643333 C34.7245765,8.73643333 34.9354637,8.51716666 34.9354637,8.24763332 C34.9354637,7.97867778 34.7245765,7.75955554 34.4649695,7.75955554 C34.2048058,7.75955554 33.9930835,7.97867778 33.9930835,8.24763332 C33.9932227,8.5173111 34.2048058,8.73643333 34.4649695,8.73643333 L34.4649695,8.73643333 Z M31.8783658,11.2344555 C32.0381667,11.2344555 32.1685966,11.0991111 32.1685966,10.9324222 C32.1685966,10.7661667 32.0381667,10.6305333 31.8783658,10.6305333 C31.7174513,10.6305333 31.5864645,10.7660222 31.5864645,10.9324222 C31.5866037,11.0992555 31.7174513,11.2344555 31.8783658,11.2344555 Z M33.1709717,9.92015555 C33.3467805,9.92015555 33.4900168,9.77224443 33.4900168,9.5898111 C33.4900168,9.4078111 33.3467805,9.2596111 33.1709717,9.2596111 C32.9958588,9.2596111 32.8533186,9.4078111 32.8533186,9.5898111 C32.8533186,9.77209999 32.995998,9.92015555 33.1709717,9.92015555 Z M35.7577147,10.3156444 C36.1434362,10.3156444 36.4571918,9.99006665 36.4571918,9.5898111 C36.4571918,9.18998888 36.1434362,8.86469998 35.7577147,8.86469998 C35.371993,8.86469998 35.0579591,9.18998888 35.0579591,9.5898111 C35.0579591,9.99006665 35.371993,10.3156444 35.7577147,10.3156444 Z M30.5843678,12.5766333 C30.7441687,12.5766333 30.8743203,12.4411444 30.8743203,12.2746 C30.8743203,12.1082 30.7441687,11.9727111 30.5843678,11.9727111 C30.4234533,11.9727111 30.2924667,12.1082 30.2924667,12.2746 C30.2926059,12.4412889 30.4234533,12.5766333 30.5843678,12.5766333 Z M34.4649695,5.75697777 C34.567838,5.75697777 34.6516359,5.66973333 34.6516359,5.5627 C34.6516359,5.45595555 34.567838,5.36914444 34.4649695,5.36914444 C34.3622403,5.36914444 34.2784424,5.45595555 34.2784424,5.5627 C34.2785816,5.66987777 34.3622403,5.75697777 34.4649695,5.75697777 Z M34.4649695,11.6584 C34.8508304,11.6584 35.1645859,11.3325333 35.1645859,10.9319889 C35.1645859,10.5321667 34.8508304,10.2067333 34.4649695,10.2067333 C34.0791088,10.2067333 33.7656316,10.5321667 33.7656316,10.9319889 C33.7656316,11.3325333 34.0791088,11.6584 34.4649695,11.6584 Z M38.8163437,9.5898111 C38.8163437,9.3207111 38.6051782,9.10173333 38.3458497,9.10173333 C38.0858251,9.10173333 37.8739635,9.3207111 37.8739635,9.5898111 C37.8739635,9.85934444 38.085686,10.0787556 38.3458497,10.0787556 C38.6053173,10.0786111 38.8163437,9.85934444 38.8163437,9.5898111 Z M37.0515733,11.6584 C37.4374342,11.6584 37.7514681,11.3325333 37.7514681,10.9319889 C37.7514681,10.5321667 37.4374342,10.2067333 37.0515733,10.2067333 C36.6657125,10.2067333 36.3522354,10.5321667 36.3522354,10.9319889 C36.3522354,11.3325333 36.6657125,11.6584 37.0515733,11.6584 Z M40.9327319,13.0746778 C41.3581253,13.0746778 41.7043143,12.7160222 41.7043143,12.2747444 C41.7043143,11.8336111 41.3581253,11.4749555 40.9327319,11.4749555 C40.5069208,11.4749555 40.160871,11.8336111 40.160871,12.2747444 C40.160871,12.7158778 40.50706,13.0746778 40.9327319,13.0746778 Z M35.7577147,11.5489111 C35.371993,11.5489111 35.0579591,11.8744889 35.0579591,12.2746 C35.0579591,12.6747111 35.371993,13.0002889 35.7577147,13.0002889 C36.1434362,13.0002889 36.4571918,12.6747111 36.4571918,12.2746 C36.4571918,11.8744889 36.1435754,11.5489111 35.7577147,11.5489111 Z M29.2902308,13.8109111 C29.3930991,13.8109111 29.4768972,13.7241 29.4768972,13.6167778 C29.4768972,13.5098889 29.3930991,13.4230778 29.2902308,13.4230778 C29.1875015,13.4230778 29.1037036,13.5098889 29.1037036,13.6167778 C29.1037036,13.7242444 29.1873623,13.8109111 29.2902308,13.8109111 Z M42.2265905,11.4603666 C42.5077734,11.4603666 42.7360604,11.2237667 42.7360604,10.9325667 C42.7360604,10.6416555 42.5076343,10.4049111 42.2265905,10.4049111 C41.9456861,10.4049111 41.7172598,10.6418 41.7172598,10.9325667 C41.7172598,11.2237667 41.9458253,11.4603666 42.2265905,11.4603666 Z M37.0515733,14.3434778 C37.4374342,14.3434778 37.7514681,14.0173222 37.7514681,13.6169222 C37.7514681,13.2171 37.4374342,12.8918111 37.0515733,12.8918111 C36.6657125,12.8918111 36.3522354,13.2171 36.3522354,13.6169222 C36.3522354,14.0173222 36.6657125,14.3434778 37.0515733,14.3434778 Z M40.9327319,1.83776667 C41.0925328,1.83776667 41.2229627,1.70256666 41.2229627,1.53645555 C41.2229627,1.37005555 41.0925328,1.23456667 40.9327319,1.23456667 C40.7718174,1.23456667 40.6408306,1.37005555 40.6408306,1.53645555 C40.6409698,1.70256666 40.7718174,1.83776667 40.9327319,1.83776667 Z M38.3458497,11.5489111 C37.960128,11.5489111 37.6460941,11.8744889 37.6460941,12.2746 C37.6460941,12.6747111 37.960128,13.0002889 38.3458497,13.0002889 C38.7317105,13.0002889 39.0453268,12.6747111 39.0453268,12.2746 C39.0453268,11.8744889 38.7318497,11.5489111 38.3458497,11.5489111 Z M40.9327319,9.33862221 C40.7988221,9.33862221 40.6898289,9.45128887 40.6898289,9.58966666 C40.6898289,9.72862221 40.7988221,9.84157777 40.9327319,9.84157777 C41.0665025,9.84157777 41.175078,9.72862221 41.175078,9.58966666 C41.175078,9.45143333 41.0665025,9.33862221 40.9327319,9.33862221 Z M39.6383164,7.99658889 C39.505381,7.99658889 39.3972229,8.10911111 39.3972229,8.24763332 C39.3972229,8.38615555 39.505381,8.49867777 39.6383164,8.49867777 C39.7722262,8.49867777 39.8810802,8.38615555 39.8810802,8.24763332 C39.8810802,8.10911111 39.7722262,7.99658889 39.6383164,7.99658889 Z M39.6383164,11.4603666 C39.9196385,11.4603666 40.1480646,11.2237667 40.1480646,10.9325667 C40.1480646,10.6416555 39.9194993,10.4049111 39.6383164,10.4049111 C39.3582471,10.4049111 39.1305168,10.6418 39.1305168,10.9325667 C39.1305168,11.2237667 39.3583862,11.4603666 39.6383164,11.4603666 Z M38.3458497,15.6855111 C38.7317105,15.6855111 39.0453268,15.3595 39.0453268,14.9589555 C39.0453268,14.5594222 38.7317105,14.2338444 38.3458497,14.2338444 C37.960128,14.2338444 37.6460941,14.5594222 37.6460941,14.9589555 C37.6460941,15.3595 37.960128,15.6855111 38.3458497,15.6855111 Z M39.6383164,5.21834443 C39.4554083,5.21834443 39.3063257,5.37261111 39.3063257,5.56284444 C39.3063257,5.75322222 39.4552691,5.90806666 39.6383164,5.90806666 C39.8221988,5.90806666 39.9718383,5.75336666 39.9718383,5.56284444 C39.9719774,5.37261111 39.8223381,5.21834443 39.6383164,5.21834443 Z M39.6383164,14.3434778 C40.0241772,14.3434778 40.338072,14.0173222 40.338072,13.6169222 C40.338072,13.2171 40.0241772,12.8918111 39.6383164,12.8918111 C39.2528732,12.8918111 38.9388393,13.2171 38.9388393,13.6169222 C38.9388393,14.0173222 39.2530124,14.3434778 39.6383164,14.3434778 Z M39.6383164,0.387833333 C39.7421591,0.387833333 39.8265139,0.300588889 39.8265139,0.19341111 C39.8265139,0.0868111113 39.7422983,0 39.6383164,0 C39.5355872,0 39.4517891,0.0868111113 39.4517891,0.19341111 C39.4519283,0.300588889 39.5355872,0.387833333 39.6383164,0.387833333 Z M39.6383164,3.40715555 C39.9196385,3.40715555 40.1480646,3.16997777 40.1480646,2.87877777 C40.1480646,2.58757778 39.9194993,2.35097777 39.6383164,2.35097777 C39.3582471,2.35097777 39.1305168,2.58772222 39.1305168,2.87877777 C39.1305168,3.16997777 39.3583862,3.40715555 39.6383164,3.40715555 Z M37.0515733,17.0276889 C37.4374342,17.0276889 37.7514681,16.7019667 37.7514681,16.301711 C37.7514681,15.9017444 37.4374342,15.5760222 37.0515733,15.5760222 C36.6657125,15.5760222 36.3522354,15.9018888 36.3522354,16.301711 C36.3522354,16.7019667 36.6657125,17.0276889 37.0515733,17.0276889 Z M38.3458497,19.8398778 C38.0858251,19.8398778 37.8739635,20.0592889 37.8739635,20.3289667 C37.8739635,20.598211 38.085686,20.8179111 38.3458497,20.8179111 C38.6051782,20.8179111 38.8163437,20.598211 38.8163437,20.3289667 C38.8163437,20.0591444 38.6053173,19.8398778 38.3458497,19.8398778 L38.3458497,19.8398778 Z M37.0515733,18.2609556 C36.6657125,18.2609556 36.3522354,18.5863888 36.3522354,18.9867889 C36.3522354,19.3867555 36.6657125,19.7117556 37.0515733,19.7117556 C37.4374342,19.7117556 37.7514682,19.3867555 37.7514682,18.9867889 C37.7516073,18.5863888 37.4375734,18.2609556 37.0515733,18.2609556 Z M38.3458497,16.9179111 C37.960128,16.9179111 37.6460941,17.2437778 37.6460941,17.6437444 C37.6460941,18.0441444 37.960128,18.3695778 38.3458497,18.3695778 C38.7317105,18.3695778 39.0453268,18.0441444 39.0453268,17.6437444 C39.0454659,17.2437778 38.7318497,16.9179111 38.3458497,16.9179111 Z M39.6383164,15.5758778 C39.2528732,15.5758778 38.9388393,15.9017444 38.9388393,16.3015666 C38.9388393,16.7018222 39.2530124,17.0275445 39.6383164,17.0275445 C40.0241772,17.0275445 40.338072,16.7018222 40.338072,16.3015666 C40.3382111,15.9017444 40.0243164,15.5758778 39.6383164,15.5758778 Z M39.6383164,18.6850444 C39.4783763,18.6850444 39.3479464,18.8202444 39.3479464,18.9867889 C39.3479464,19.1526111 39.4783763,19.2879555 39.6383164,19.2879555 C39.7995093,19.2879555 39.930496,19.1526111 39.930496,18.9867889 C39.930496,18.8202444 39.7996484,18.6850444 39.6383164,18.6850444 Z M37.0515733,21.1036222 C36.7499283,21.1036222 36.5049371,21.3582777 36.5049371,21.671 C36.5049371,21.9843 36.7499283,22.2393888 37.0515733,22.2393888 C37.3532186,22.2393888 37.5986271,21.9843 37.5986271,21.671 C37.5986271,21.3581333 37.3532186,21.1036222 37.0515733,21.1036222 Z M35.7577147,19.7615889 C35.4562087,19.7615889 35.210661,20.0162445 35.210661,20.3289667 C35.210661,20.6419777 35.4562087,20.8962 35.7577147,20.8962 C36.0599166,20.8962 36.305882,20.6419777 36.305882,20.3289667 C36.305882,20.0160999 36.0599166,19.7615889 35.7577147,19.7615889 Z M37.0515733,24.0537555 C36.8917724,24.0537555 36.7613425,24.1892444 36.7613425,24.3557889 C36.7613425,24.5223333 36.8917724,24.6579666 37.0515733,24.6579666 C37.2129055,24.6579666 37.343753,24.5224778 37.343753,24.3557889 C37.343753,24.1893888 37.2130447,24.0537555 37.0515733,24.0537555 Z M40.9327319,17.3418555 C40.7718174,17.3418555 40.6408306,17.4774889 40.6408306,17.6438888 C40.6408306,17.8104333 40.7716782,17.9460666 40.9327319,17.9460666 C41.0925328,17.9460666 41.2229627,17.8105777 41.2229627,17.6438888 C41.2229627,17.4774889 41.092672,17.3418555 40.9327319,17.3418555 Z M35.7577147,22.4458 C35.4562087,22.4458 35.210661,22.7003111 35.210661,23.0131778 C35.210661,23.3263332 35.4562087,23.5814221 35.7577147,23.5814221 C36.0599166,23.5814221 36.305882,23.3263332 36.305882,23.0131778 C36.305882,22.7001666 36.0599166,22.4458 35.7577147,22.4458 Z M43.5207277,14.7656889 C43.4170241,14.7656889 43.3326692,14.8525 43.3326692,14.9596778 C43.3326692,15.0665667 43.416885,15.1532333 43.5207277,15.1532333 C43.6233177,15.1532333 43.7072549,15.0665667 43.7072549,14.9596778 C43.7072549,14.8523555 43.6233177,14.7656889 43.5207277,14.7656889 Z M44.8131944,10.7382889 C44.7106044,10.7382889 44.6266671,10.8255333 44.6266671,10.9325667 C44.6266671,11.0398889 44.7106044,11.1271333 44.8131944,11.1271333 C44.9162019,11.1271333 45,11.0398889 45,10.9325667 C45,10.8253889 44.9162019,10.7382889 44.8131944,10.7382889 Z M43.5193356,11.7470889 C43.2384312,11.7470889 43.0101441,11.9836889 43.0101441,12.2746 C43.0101441,12.5658 43.2385704,12.8022555 43.5193356,12.8022555 C43.800101,12.8022555 44.0286664,12.5656555 44.0286664,12.2746 C44.0286664,11.9836889 43.8002401,11.7470889 43.5193356,11.7470889 Z M42.2265905,12.9904667 C41.8932079,12.9904667 41.6221867,13.2715555 41.6221867,13.6169222 C41.6221867,13.9628666 41.8932079,14.2441 42.2265905,14.2441 C42.5601123,14.2441 42.8309944,13.9628666 42.8309944,13.6169222 C42.8309944,13.2715555 42.5601123,12.9904667 42.2265905,12.9904667 Z M40.9327319,14.2338444 C40.5467318,14.2338444 40.2331155,14.5594222 40.2331155,14.9589555 C40.2331155,15.3595 40.5467318,15.6855111 40.9327319,15.6855111 C41.3184534,15.6855111 41.6319307,15.3595 41.6319307,14.9589555 C41.6320698,14.5594222 41.3184534,14.2338444 40.9327319,14.2338444 Z M42.2265905,16.1077222 C42.1230262,16.1077222 42.038393,16.1946778 42.038393,16.301711 C42.038393,16.4090333 42.122887,16.4962777 42.2265905,16.4962777 C42.329459,16.4962777 42.4133961,16.4090333 42.4133961,16.301711 C42.4133961,16.1945334 42.329459,16.1077222 42.2265905,16.1077222 Z M34.4649695,23.9464332 C34.246844,23.9464332 34.0692256,24.1300221 34.0692256,24.3557889 C34.0692256,24.5817 34.2467048,24.7652889 34.4649695,24.7652889 C34.6821207,24.7652889 34.8590432,24.5817 34.8590432,24.3557889 C34.8590432,24.1300221 34.6821207,23.9464332 34.4649695,23.9464332 Z M33.3574989,23.0130334 C33.3574989,22.9058556 33.2737008,22.8186111 33.1709717,22.8186111 C33.0681033,22.8186111 32.9843052,22.9058556 32.9843052,23.0130334 C32.9843052,23.1200666 33.0681033,23.2070222 33.1709717,23.2070222 C33.27384,23.2070222 33.3574989,23.1200666 33.3574989,23.0130334 Z M33.1709717,11.5489111 C32.78525,11.5489111 32.4713553,11.8744889 32.4713553,12.2746 C32.4713553,12.6747111 32.78525,13.0002889 33.1709717,13.0002889 C33.556554,13.0002889 33.8705879,12.6747111 33.8705879,12.2746 C33.8705879,11.8744889 33.556554,11.5489111 33.1709717,11.5489111 Z M33.1709717,14.4710222 C32.9115039,14.4710222 32.7004776,14.6901444 32.7004776,14.9596778 C32.7004776,15.2290666 32.9115039,15.4479 33.1709717,15.4479 C33.430161,15.4479 33.6416049,15.2290666 33.6416049,14.9596778 C33.6416049,14.69 33.4303001,14.4710222 33.1709717,14.4710222 Z M33.1709717,25.3959333 C33.0111707,25.3959333 32.8807409,25.5314222 32.8807409,25.6978222 C32.8807409,25.8642223 33.0111707,26 33.1709717,26 C33.3310509,26 33.4610633,25.8643667 33.4610633,25.6978222 C33.4610633,25.5312777 33.3311901,25.3959333 33.1709717,25.3959333 Z M30.5843678,14.5498889 C30.365964,14.5498889 30.1886238,14.7337667 30.1886238,14.9595333 C30.1886238,15.1850111 30.3658248,15.3681667 30.5843678,15.3681667 C30.8016582,15.3681667 30.9781631,15.1848666 30.9781631,14.9595333 C30.9783022,14.7339111 30.8016582,14.5498889 30.5843678,14.5498889 Z M31.8783658,16.1083001 C31.7748014,16.1083001 31.6904466,16.1952555 31.6904466,16.301711 C31.6904466,16.4090333 31.7746622,16.4962777 31.8783658,16.4962777 C31.9812341,16.4962777 32.0650322,16.4090333 32.0650322,16.301711 C32.0650322,16.1951111 31.9813733,16.1083001 31.8783658,16.1083001 Z M31.8783658,12.9904667 C31.5442871,12.9904667 31.2725698,13.2715555 31.2725698,13.6169222 C31.2725698,13.9628666 31.5441479,14.2441 31.8783658,14.2441 C32.2110524,14.2441 32.4813777,13.9628666 32.4813777,13.6169222 C32.4813777,13.2715555 32.2110524,12.9904667 31.8783658,12.9904667 Z M34.4649695,21.2612111 C34.246844,21.2612111 34.0692256,21.4449445 34.0692256,21.6708556 C34.0692256,21.8967666 34.2467048,22.0806445 34.4649695,22.0806445 C34.6821207,22.0806445 34.8590432,21.8967666 34.8590432,21.6708556 C34.8590432,21.4449445 34.6821207,21.2612111 34.4649695,21.2612111 Z M35.7577147,15.6855111 C36.1434362,15.6855111 36.4571918,15.3595 36.4571918,14.9589555 C36.4571918,14.5594222 36.1434362,14.2338444 35.7577147,14.2338444 C35.371993,14.2338444 35.0579591,14.5594222 35.0579591,14.9589555 C35.0579591,15.3595 35.371993,15.6855111 35.7577147,15.6855111 Z M35.2873598,17.6437444 C35.2873598,17.9132778 35.4983861,18.1325445 35.7578539,18.1325445 C36.0180176,18.1325445 36.2298791,17.9132778 36.2298791,17.6437444 C36.2298791,17.3747889 36.0181568,17.1555222 35.7578539,17.1555222 C35.4982469,17.1556666 35.2873598,17.3747889 35.2873598,17.6437444 Z M29.2902308,15.9998223 C29.1304299,15.9998223 29,16.1348777 29,16.3012778 C29,16.4681111 29.1304299,16.6040333 29.2902308,16.6040333 C29.4510061,16.6040333 29.5821319,16.4682555 29.5821319,16.3012778 C29.5819927,16.1347333 29.4510061,15.9998223 29.2902308,15.9998223 Z M34.4649695,12.8918111 C34.0791088,12.8918111 33.7656316,13.2171 33.7656316,13.6169222 C33.7656316,14.0173222 34.0791088,14.3434778 34.4649695,14.3434778 C34.8508304,14.3434778 35.1645859,14.0173222 35.1645859,13.6169222 C35.1647251,13.2171 34.8509695,12.8918111 34.4649695,12.8918111 Z M34.4649695,16.6038888 C34.6249097,16.6038888 34.7552003,16.4683999 34.7552003,16.3015666 C34.7552003,16.1353111 34.6249097,15.9996778 34.4649695,15.9996778 C34.3043335,15.9996778 34.1730684,16.1351667 34.1730684,16.3015666 C34.1732076,16.4683999 34.3043335,16.6038888 34.4649695,16.6038888 Z M35.7577147,25.3959333 C35.5979138,25.3959333 35.4673447,25.5314222 35.4673447,25.6978222 C35.4673447,25.8642223 35.5979138,26 35.7577147,26 C35.91849,26 36.0494766,25.8643667 36.0494766,25.6978222 C36.0494766,25.5312777 35.9186292,25.3959333 35.7577147,25.3959333 Z M34.4649695,19.2879555 C34.6249097,19.2879555 34.7552003,19.1526111 34.7552003,18.9867889 C34.7552003,18.8199556 34.6249097,18.6840332 34.4649695,18.6840332 C34.3043335,18.6840332 34.1730684,18.8198111 34.1730684,18.9867889 C34.1732076,19.1527555 34.3043335,19.2879555 34.4649695,19.2879555 Z" id="Shape"></path>
            </g>
            <path d="M134.332,7.992 C134.748,7.992 134.956,7.792 134.956,7.392 C134.956,7.176 134.906,7.02 134.806,6.924 C134.706,6.828 134.548,6.78 134.332,6.78 C134.108,6.78 133.948,6.828 133.852,6.924 C133.756,7.02 133.708,7.176 133.708,7.392 C133.708,7.6 133.756,7.752 133.852,7.848 C133.948,7.944 134.108,7.992 134.332,7.992 Z M134.812,15 L134.812,9.168 L134.26,9.168 C134.1,9.168 133.992,9.198 133.936,9.258 C133.88,9.318 133.852,9.404 133.852,9.516 L133.852,9.516 L133.852,15 L134.812,15 Z M137.464,15 L137.464,11.496 C137.464,10.896 137.592,10.466 137.848,10.206 C138.104,9.946 138.532,9.816 139.132,9.816 C139.636,9.816 140,9.936 140.224,10.176 C140.448,10.416 140.56,10.812 140.56,11.364 L140.56,11.364 L140.56,15 L141.52,15 L141.52,11.328 C141.52,10.512 141.348,9.924 141.004,9.564 C140.66,9.204 140.092,9.024 139.3,9.024 C138.828,9.024 138.424,9.096 138.088,9.24 C137.752,9.384 137.496,9.596 137.32,9.876 L137.32,9.876 L137.224,9.168 L136.912,9.168 C136.752,9.168 136.644,9.198 136.588,9.258 C136.532,9.318 136.504,9.404 136.504,9.516 L136.504,9.516 L136.504,15 L137.464,15 Z M146.86,17.496 L146.86,14.508 C147.188,14.932 147.816,15.144 148.744,15.144 C149.616,15.144 150.248,14.904 150.64,14.424 C151.032,13.944 151.228,13.164 151.228,12.084 C151.228,11.004 151.032,10.224 150.64,9.744 C150.248,9.264 149.616,9.024 148.744,9.024 C148.24,9.024 147.826,9.086 147.502,9.21 C147.178,9.334 146.916,9.536 146.716,9.816 L146.716,9.816 L146.62,9.168 L146.308,9.168 C146.148,9.168 146.04,9.198 145.984,9.258 C145.928,9.318 145.9,9.404 145.9,9.516 L145.9,9.516 L145.9,17.496 L146.86,17.496 Z M148.516,14.376 C148.156,14.376 147.868,14.334 147.652,14.25 C147.436,14.166 147.27,14.048 147.154,13.896 C147.038,13.744 146.96,13.566 146.92,13.362 C146.88,13.158 146.86,12.94 146.86,12.708 L146.86,12.708 L146.86,11.496 C146.86,11.256 146.88,11.03 146.92,10.818 C146.96,10.606 147.04,10.424 147.16,10.272 C147.28,10.12 147.448,10 147.664,9.912 C147.88,9.824 148.164,9.78 148.516,9.78 C149.132,9.78 149.574,9.96 149.842,10.32 C150.11,10.68 150.244,11.268 150.244,12.084 C150.244,12.9 150.11,13.486 149.842,13.842 C149.574,14.198 149.132,14.376 148.516,14.376 Z M154.792,15.144 C155.248,15.144 155.636,15.078 155.956,14.946 C156.276,14.814 156.52,14.62 156.688,14.364 C156.704,14.644 156.798,14.826 156.97,14.91 C157.142,14.994 157.356,15.036 157.612,15.036 L157.612,15.036 L157.768,15.036 C157.816,15.036 157.86,15.032 157.9,15.024 C157.94,15.016 157.976,15.008 158.008,15 L158.008,15 L158.008,14.376 L157.84,14.364 C157.696,14.348 157.61,14.32 157.582,14.28 C157.554,14.24 157.54,14.14 157.54,13.98 L157.54,13.98 L157.54,9.168 L157.144,9.168 C156.936,9.168 156.816,9.272 156.784,9.48 L156.784,9.48 L156.724,9.816 C156.532,9.536 156.288,9.334 155.992,9.21 C155.696,9.086 155.296,9.024 154.792,9.024 C153.984,9.024 153.364,9.268 152.932,9.756 C152.5,10.244 152.284,11.02 152.284,12.084 C152.284,13.164 152.496,13.944 152.92,14.424 C153.344,14.904 153.968,15.144 154.792,15.144 Z M155.02,14.376 C154.404,14.376 153.958,14.198 153.682,13.842 C153.406,13.486 153.268,12.9 153.268,12.084 C153.268,11.268 153.406,10.68 153.682,10.32 C153.958,9.96 154.404,9.78 155.02,9.78 C155.324,9.78 155.576,9.82 155.776,9.9 C155.976,9.98 156.136,10.094 156.256,10.242 C156.376,10.39 156.46,10.568 156.508,10.776 C156.556,10.984 156.58,11.212 156.58,11.46 L156.58,11.46 L156.58,12.612 C156.58,13.188 156.466,13.626 156.238,13.926 C156.01,14.226 155.604,14.376 155.02,14.376 Z M160.228,15 L160.228,11.496 C160.228,10.88 160.364,10.446 160.636,10.194 C160.908,9.942 161.344,9.816 161.944,9.816 C162.032,9.816 162.126,9.818 162.226,9.822 C162.326,9.826 162.416,9.836 162.496,9.852 L162.496,9.852 L162.496,9.06 C162.36,9.036 162.188,9.024 161.98,9.024 C161.532,9.024 161.142,9.102 160.81,9.258 C160.478,9.414 160.236,9.62 160.084,9.876 L160.084,9.876 L159.988,9.168 L159.676,9.168 C159.516,9.168 159.408,9.198 159.352,9.258 C159.296,9.318 159.268,9.404 159.268,9.516 L159.268,9.516 L159.268,15 L160.228,15 Z M166.18,15.144 C166.38,15.144 166.558,15.136 166.714,15.12 C166.87,15.104 167,15.084 167.104,15.06 L167.104,15.06 L167.104,14.328 C167.016,14.344 166.91,14.356 166.786,14.364 C166.662,14.372 166.508,14.376 166.324,14.376 C165.932,14.376 165.65,14.286 165.478,14.106 C165.306,13.926 165.22,13.628 165.22,13.212 L165.22,13.212 L165.22,9.924 L166.912,9.924 L166.912,9.168 L165.22,9.168 L165.22,7.224 L164.668,7.224 C164.508,7.224 164.4,7.254 164.344,7.314 C164.288,7.374 164.26,7.46 164.26,7.572 L164.26,7.572 L164.26,9.168 L163.408,9.312 C163.296,9.328 163.224,9.354 163.192,9.39 C163.16,9.426 163.144,9.488 163.144,9.576 L163.144,9.576 L163.144,9.924 L164.26,9.924 L164.26,13.248 C164.26,13.92 164.41,14.404 164.71,14.7 C165.01,14.996 165.5,15.144 166.18,15.144 Z M169.168,15 L169.168,11.496 C169.168,10.896 169.296,10.466 169.552,10.206 C169.808,9.946 170.236,9.816 170.836,9.816 C171.34,9.816 171.704,9.936 171.928,10.176 C172.152,10.416 172.264,10.812 172.264,11.364 L172.264,11.364 L172.264,15 L173.224,15 L173.224,11.328 C173.224,10.512 173.052,9.924 172.708,9.564 C172.364,9.204 171.796,9.024 171.004,9.024 C170.532,9.024 170.128,9.096 169.792,9.24 C169.456,9.384 169.2,9.596 169.024,9.876 L169.024,9.876 L168.928,9.168 L168.616,9.168 C168.456,9.168 168.348,9.198 168.292,9.258 C168.236,9.318 168.208,9.404 168.208,9.516 L168.208,9.516 L168.208,15 L169.168,15 Z M177.676,15.144 C178.004,15.144 178.328,15.124 178.648,15.084 C178.968,15.044 179.28,14.972 179.584,14.868 L179.584,14.868 L179.584,14.1 C179.28,14.196 178.976,14.266 178.672,14.31 C178.368,14.354 178.06,14.376 177.748,14.376 C176.98,14.376 176.432,14.22 176.104,13.908 C175.776,13.596 175.608,13.128 175.6,12.504 L175.6,12.504 L178.95832,12.50328 C179.13944,12.50136 179.286,12.4956 179.398,12.486 C179.538,12.474 179.644,12.438 179.716,12.378 C179.788,12.318 179.834,12.23 179.854,12.114 C179.874,11.998 179.884,11.836 179.884,11.628 C179.884,11.236 179.84,10.88 179.752,10.56 C179.664,10.24 179.52,9.966 179.32,9.738 C179.12,9.51 178.858,9.334 178.534,9.21 C178.21,9.086 177.816,9.024 177.352,9.024 C176.384,9.024 175.682,9.27 175.246,9.762 C174.81,10.254 174.592,11.028 174.592,12.084 C174.592,13.164 174.836,13.944 175.324,14.424 C175.812,14.904 176.596,15.144 177.676,15.144 Z M178.924,11.772 L175.6,11.772 C175.616,11.14 175.762,10.648 176.038,10.296 C176.314,9.944 176.752,9.768 177.352,9.768 C177.936,9.768 178.344,9.95 178.576,10.314 C178.808,10.678 178.924,11.164 178.924,11.772 L178.924,11.772 Z M182.152,15 L182.152,11.496 C182.152,10.88 182.288,10.446 182.56,10.194 C182.832,9.942 183.268,9.816 183.868,9.816 C183.956,9.816 184.05,9.818 184.15,9.822 C184.25,9.826 184.34,9.836 184.42,9.852 L184.42,9.852 L184.42,9.06 C184.284,9.036 184.112,9.024 183.904,9.024 C183.456,9.024 183.066,9.102 182.734,9.258 C182.402,9.414 182.16,9.62 182.008,9.876 L182.008,9.876 L181.912,9.168 L181.6,9.168 C181.44,9.168 181.332,9.198 181.276,9.258 C181.22,9.318 181.192,9.404 181.192,9.516 L181.192,9.516 L181.192,15 L182.152,15 Z M187.312,15.144 C188.848,15.144 189.616,14.564 189.616,13.404 C189.616,13.012 189.532,12.706 189.364,12.486 C189.196,12.266 188.986,12.098 188.734,11.982 C188.482,11.866 188.21,11.78 187.918,11.724 C187.626,11.668 187.354,11.606 187.102,11.538 C186.85,11.47 186.64,11.374 186.472,11.25 C186.304,11.126 186.22,10.94 186.22,10.692 C186.22,10.404 186.328,10.178 186.544,10.014 C186.76,9.85 187.104,9.768 187.576,9.768 C188.184,9.768 188.764,9.856 189.316,10.032 L189.316,10.032 L189.316,9.576 C189.316,9.448 189.29,9.36 189.238,9.312 C189.186,9.264 189.068,9.216 188.884,9.168 C188.756,9.136 188.572,9.104 188.332,9.072 C188.092,9.04 187.816,9.024 187.504,9.024 C186.736,9.024 186.17,9.178 185.806,9.486 C185.442,9.794 185.26,10.2 185.26,10.704 C185.26,11.088 185.344,11.388 185.512,11.604 C185.68,11.82 185.888,11.986 186.136,12.102 C186.384,12.218 186.656,12.304 186.952,12.36 C187.248,12.416 187.52,12.48 187.768,12.552 C188.016,12.624 188.224,12.724 188.392,12.852 C188.56,12.98 188.644,13.172 188.644,13.428 C188.644,13.764 188.53,14.008 188.302,14.16 C188.074,14.312 187.72,14.388 187.24,14.388 C186.576,14.388 185.932,14.28 185.308,14.064 L185.308,14.064 L185.308,14.856 C185.908,15.048 186.576,15.144 187.312,15.144 Z M191.944,15 L191.944,11.496 C191.944,10.896 192.072,10.466 192.328,10.206 C192.584,9.946 193.012,9.816 193.612,9.816 C194.116,9.816 194.48,9.936 194.704,10.176 C194.928,10.416 195.04,10.812 195.04,11.364 L195.04,11.364 L195.04,15 L196,15 L196,11.328 C196,10.512 195.828,9.924 195.484,9.564 C195.14,9.204 194.572,9.024 193.78,9.024 C193.324,9.024 192.944,9.088 192.64,9.216 C192.336,9.344 192.104,9.5 191.944,9.684 L191.944,9.684 L191.944,6.552 L191.392,6.552 C191.232,6.552 191.124,6.582 191.068,6.642 C191.012,6.702 190.984,6.788 190.984,6.9 L190.984,6.9 L190.984,15 L191.944,15 Z M198.172,7.992 C198.588,7.992 198.796,7.792 198.796,7.392 C198.796,7.176 198.746,7.02 198.646,6.924 C198.546,6.828 198.388,6.78 198.172,6.78 C197.948,6.78 197.788,6.828 197.692,6.924 C197.596,7.02 197.548,7.176 197.548,7.392 C197.548,7.6 197.596,7.752 197.692,7.848 C197.788,7.944 197.948,7.992 198.172,7.992 Z M198.652,15 L198.652,9.168 L198.1,9.168 C197.94,9.168 197.832,9.198 197.776,9.258 C197.72,9.318 197.692,9.404 197.692,9.516 L197.692,9.516 L197.692,15 L198.652,15 Z M201.304,17.496 L201.304,14.508 C201.632,14.932 202.26,15.144 203.188,15.144 C204.06,15.144 204.692,14.904 205.084,14.424 C205.476,13.944 205.672,13.164 205.672,12.084 C205.672,11.004 205.476,10.224 205.084,9.744 C204.692,9.264 204.06,9.024 203.188,9.024 C202.684,9.024 202.27,9.086 201.946,9.21 C201.622,9.334 201.36,9.536 201.16,9.816 L201.16,9.816 L201.064,9.168 L200.752,9.168 C200.592,9.168 200.484,9.198 200.428,9.258 C200.372,9.318 200.344,9.404 200.344,9.516 L200.344,9.516 L200.344,17.496 L201.304,17.496 Z M202.96,14.376 C202.6,14.376 202.312,14.334 202.096,14.25 C201.88,14.166 201.714,14.048 201.598,13.896 C201.482,13.744 201.404,13.566 201.364,13.362 C201.324,13.158 201.304,12.94 201.304,12.708 L201.304,12.708 L201.304,11.496 C201.304,11.256 201.324,11.03 201.364,10.818 C201.404,10.606 201.484,10.424 201.604,10.272 C201.724,10.12 201.892,10 202.108,9.912 C202.324,9.824 202.608,9.78 202.96,9.78 C203.576,9.78 204.018,9.96 204.286,10.32 C204.554,10.68 204.688,11.268 204.688,12.084 C204.688,12.9 204.554,13.486 204.286,13.842 C204.018,14.198 203.576,14.376 202.96,14.376 Z M211.948,15 L213.292,10.2 L213.34,10.2 L214.672,15 L215.764,15 L217.564,9.168 L216.988,9.168 C216.836,9.168 216.726,9.188 216.658,9.228 C216.59,9.268 216.536,9.356 216.496,9.492 L216.496,9.492 L215.224,13.968 L215.176,13.968 L213.844,9.168 L212.788,9.168 L211.444,13.968 L211.396,13.968 L210.04,9.168 L209.068,9.168 L210.856,15 L211.948,15 Z M219.256,7.992 C219.672,7.992 219.88,7.792 219.88,7.392 C219.88,7.176 219.83,7.02 219.73,6.924 C219.63,6.828 219.472,6.78 219.256,6.78 C219.032,6.78 218.872,6.828 218.776,6.924 C218.68,7.02 218.632,7.176 218.632,7.392 C218.632,7.6 218.68,7.752 218.776,7.848 C218.872,7.944 219.032,7.992 219.256,7.992 Z M219.736,15 L219.736,9.168 L219.184,9.168 C219.024,9.168 218.916,9.198 218.86,9.258 C218.804,9.318 218.776,9.404 218.776,9.516 L218.776,9.516 L218.776,15 L219.736,15 Z M223.864,15.144 C224.064,15.144 224.242,15.136 224.398,15.12 C224.554,15.104 224.684,15.084 224.788,15.06 L224.788,15.06 L224.788,14.328 C224.7,14.344 224.594,14.356 224.47,14.364 C224.346,14.372 224.192,14.376 224.008,14.376 C223.616,14.376 223.334,14.286 223.162,14.106 C222.99,13.926 222.904,13.628 222.904,13.212 L222.904,13.212 L222.904,9.924 L224.596,9.924 L224.596,9.168 L222.904,9.168 L222.904,7.224 L222.352,7.224 C222.192,7.224 222.084,7.254 222.028,7.314 C221.972,7.374 221.944,7.46 221.944,7.572 L221.944,7.572 L221.944,9.168 L221.092,9.312 C220.98,9.328 220.908,9.354 220.876,9.39 C220.844,9.426 220.828,9.488 220.828,9.576 L220.828,9.576 L220.828,9.924 L221.944,9.924 L221.944,13.248 C221.944,13.92 222.094,14.404 222.394,14.7 C222.694,14.996 223.184,15.144 223.864,15.144 Z M226.852,15 L226.852,11.496 C226.852,10.896 226.98,10.466 227.236,10.206 C227.492,9.946 227.92,9.816 228.52,9.816 C229.024,9.816 229.388,9.936 229.612,10.176 C229.836,10.416 229.948,10.812 229.948,11.364 L229.948,11.364 L229.948,15 L230.908,15 L230.908,11.328 C230.908,10.512 230.736,9.924 230.392,9.564 C230.048,9.204 229.48,9.024 228.688,9.024 C228.232,9.024 227.852,9.088 227.548,9.216 C227.244,9.344 227.012,9.5 226.852,9.684 L226.852,9.684 L226.852,6.552 L226.3,6.552 C226.14,6.552 226.032,6.582 225.976,6.642 C225.92,6.702 225.892,6.788 225.892,6.9 L225.892,6.9 L225.892,15 L226.852,15 Z" id="inpartnershipwith" fill="#3C4752" fill-rule="nonzero"></path>
            <g id="Components-/-Divider-/-Horizontal-/-Grey" transform="translate(119.500000, 25.500000) scale(1, -1) rotate(90.000000) translate(-119.500000, -25.500000) translate(94.000000, 12.500000)" fill="#C8C9C7">
                <rect id="Rectangle" x="0" y="12.5" width="51" height="1"></rect>
            </g>
            <g id="Centrica+full+blend+cmyk" transform="translate(0.000000, 25.500000)" fill="url(#radialGradient-1)" fill-rule="nonzero">
                <path d="M33.0523814,6.49587147 L37.9504152,6.49587147 L37.4269612,8.32569919 L37.4269612,8.32569919 C38.4738692,7.15460945 39.8572834,6.12990593 42.0632681,6.12990593 C43.820578,6.12990593 45.9891731,6.93503012 45.9891731,9.64317514 C45.9891731,10.22872 45.8396149,11.1802304 45.652667,12.1317408 L44.0449154,19.4876482 L39.0721024,19.4876482 L40.3807374,13.5590064 C40.5302957,12.7904788 40.7920227,11.875565 40.7920227,11.3632132 C40.7920227,10.558089 40.1937895,10.1189303 39.3338294,10.1189303 C37.7260778,10.1189303 37.2026238,11.216827 36.9035072,12.607496 L35.4079244,19.4876482 L30.3603322,19.4876482 L33.0523814,6.49587147 L33.0523814,6.49587147 Z M57.9912257,6.49587147 L55.2243973,19.4876482 L60.3093791,19.4876482 L61.5058454,14.0713582 C62.0292994,11.6925822 63.0762074,10.7410718 64.683959,10.7410718 C65.46914,10.7410718 65.9552044,10.7776683 66.777775,11.0704408 L67.7499039,6.64225769 C67.3386186,6.45927492 66.9273333,6.42267836 66.2917106,6.42267836 C64.683959,6.42267836 63.1509865,7.52057499 62.3658055,8.76485784 L62.3658055,8.72826128 L62.8892595,6.49587147 L57.9912257,6.49587147 L57.9912257,6.49587147 Z M20.863381,13.9615685 C20.8259914,14.6934996 20.9381601,15.2790445 21.1998871,15.7913963 C21.4616141,16.2671515 21.9850681,16.7429067 22.957197,16.7429067 C24.0414946,16.7429067 24.5649486,16.2671515 24.9388443,15.5718169 L29.8368782,15.5718169 C29.500372,16.4135377 27.7804517,19.8902103 22.7702491,19.8902103 C17.8722153,19.8902103 15.7783992,17.4016446 15.7783992,13.9615685 C15.7783992,8.36229574 20.2651478,6.02011627 24.1162737,6.02011627 C27.668283,6.02011627 30.6220592,7.81334743 30.6220592,11.7291787 C30.6220592,12.5708995 30.54728,13.3028306 30.3603322,13.9615685 L20.863381,13.9615685 L20.863381,13.9615685 Z M21.3120558,11.3998097 L25.7988044,11.3998097 C26.0605315,9.86275447 25.3501296,9.05763027 23.9293259,9.05763027 C22.5833013,9.05763027 21.6859516,10.0823338 21.3120558,11.3998097 Z M69.0585389,6.49587147 L66.2917106,19.4876482 L71.3393027,19.4876482 L74.106131,6.49587147 L69.0585389,6.49587147 L69.0585389,6.49587147 Z M69.9932782,4.62944721 C69.2080972,3.45835747 69.8437199,1.66512631 71.4514715,0.713615898 C73.0218335,-0.311087621 74.9287016,-0.237894513 75.7138826,0.969791778 C76.4616741,2.14088151 75.8260513,3.86091957 74.2556893,4.88562309 C72.6853273,5.8371335 70.7784592,5.76394039 69.9932782,4.62944721 L69.9932782,4.62944721 Z M45.9891731,6.49587147 C45.9891731,6.49587147 46.699575,6.93503012 47.0734707,7.70355776 C47.3725873,8.43548885 47.5221456,9.42359582 47.2978082,10.558089 C46.8865229,12.7538823 46.437848,14.8398858 46.437848,14.8398858 C45.6152774,18.5727344 47.1482499,19.7438241 50.7002592,19.7438241 C51.6349985,19.7438241 52.9436335,19.670631 53.8409832,19.4876482 L54.5887746,15.974379 C53.7662041,16.0841687 53.0558022,16.1573618 52.5697378,16.1573618 C51.8219463,16.1573618 51.3732715,15.6816066 51.4480506,15.1326583 C51.4480506,14.6569031 51.5602193,14.1445513 51.672388,13.7053927 L52.5323482,9.78956136 L55.9347992,9.78956136 L56.7199802,6.49587147 L53.1305813,6.49587147 L54.0653206,2.50684706 C54.0653206,2.50684706 53.2801396,2.54344361 51.4480506,2.58004017 C49.8029095,2.61663672 49.2046763,2.61663672 49.2046763,2.61663672 L48.3447162,6.45927492 L45.9891731,6.45927492 L45.9891731,6.49587147 Z M103.943009,16.2671515 C103.643893,17.621224 103.643893,18.7923137 103.90562,19.4876482 L98.8206379,19.4876482 C98.5963005,19.0484896 98.5589109,18.4629447 98.5589109,17.950593 L98.5589109,17.9139964 C97.8111195,18.9021034 96.0538096,19.7804207 94.3338893,19.7804207 C90.4453739,19.7804207 89.473245,16.7429067 89.473245,14.4007272 C89.473245,10.5946856 91.9783463,6.16650248 96.6520428,6.16650248 C98.6710796,6.16650248 99.9797146,6.97162668 100.577948,8.17931297 L100.951843,6.49587147 L105.999436,6.49587147 C106.036825,6.49587147 104.204736,15.1326583 103.943009,16.2671515 Z M99.7927668,11.8389684 C99.7927668,10.5214924 99.2693128,9.53338548 97.7737299,9.53338548 C95.9790305,9.53338548 94.8199537,11.9853546 94.8199537,14.0347617 C94.8199537,15.64501 95.6051347,16.303748 96.801601,16.303748 C98.4467422,16.2671515 99.7927668,14.58371 99.7927668,11.8389684 Z M10.1699635,11.6559856 L15.1801661,11.6559856 C15.2175557,7.92313709 12.4881169,5.91032661 8.52482234,5.91032661 C3.29028231,5.91032661 0,9.93594758 0,13.7419892 C0,16.5599239 1.23385586,20 7.17879776,20 C10.6560279,20 13.9463102,17.9139964 14.7314912,14.2177444 L9.72128863,14.2177444 C9.34739292,15.3156411 8.4500432,16.5599239 7.17879776,16.5599239 C5.64582532,16.5599239 5.2719296,15.4620273 5.38409832,13.595603 C5.45887746,12.6440926 6.05711061,9.31380615 8.33787448,9.31380615 C10.0577948,9.35040271 10.1699635,11.0338442 10.1699635,11.6559856 L10.1699635,11.6559856 Z M83.9395884,11.6559856 L88.949791,11.6559856 C88.9871806,7.92313709 86.2951314,6.12990593 82.2944472,6.12990593 C77.0972968,6.12990593 73.7696249,9.93594758 73.7696249,13.7785858 C73.8070145,16.5599239 75.1156495,19.7804207 80.9858122,19.7804207 C84.4256528,19.7804207 87.7159351,17.9139964 88.5385057,14.2177444 L83.5283031,14.2177444 C83.1170178,15.3156411 82.2570577,16.3403446 80.9484227,16.3403446 C79.4902294,16.3403446 79.0789441,15.4254307 79.1911128,13.595603 C79.2285024,12.607496 79.7893459,9.49678892 82.1448889,9.49678892 C83.8648092,9.53338548 83.976978,11.0704408 83.9395884,11.6559856 L83.9395884,11.6559856 Z" id="Shape"></path>
            </g>
        </g>
    </g>
</svg>